SplineFontDB: 3.0
FontName: Rufina-Bold
FullName: Rufina Bold
FamilyName: Rufina
Weight: Bold
Copyright: Copyright (c) 2011-2012, Martin Sommaruga (martin@estudiotrama.com), with Reserved Font Name 'Rufina'
Version: 1.001
ItalicAngle: 0
UnderlinePosition: -50
UnderlineWidth: 50
Ascent: 800
Descent: 200
sfntRevision: 0x00010042
LayerCount: 2
Layer: 0 1 "Back"  1
Layer: 1 1 "Fore"  0
XUID: [1021 192 1799683634 2665241]
FSType: 0
OS2Version: 3
OS2_WeightWidthSlopeOnly: 0
OS2_UseTypoMetrics: 1
CreationTime: 1298553240
ModificationTime: 1351749401
PfmFamily: 17
TTFWeight: 700
TTFWidth: 5
LineGap: 0
VLineGap: 0
Panose: 2 0 5 3 0 0 0 2 0 4
OS2TypoAscent: 945
OS2TypoAOffset: 0
OS2TypoDescent: -290
OS2TypoDOffset: 0
OS2TypoLinegap: 0
OS2WinAscent: 945
OS2WinAOffset: 0
OS2WinDescent: 290
OS2WinDOffset: 0
HheadAscent: 945
HheadAOffset: 0
HheadDescent: -290
HheadDOffset: 0
OS2SubXSize: 650
OS2SubYSize: 600
OS2SubXOff: 0
OS2SubYOff: 75
OS2SupXSize: 650
OS2SupYSize: 600
OS2SupXOff: 0
OS2SupYOff: 350
OS2StrikeYSize: 50
OS2StrikeYPos: 292
OS2Vendor: 'PYRS'
OS2CodePages: 20000001.00000000
OS2UnicodeRanges: 00000023.00000000.00000000.00000000
Lookup: 258 0 0 "'kern' Horizontal Kerning lookup 0"  {"'kern' Horizontal Kerning lookup 0 per glyph data 0"  "'kern' Horizontal Kerning lookup 0 kerning class 1"  } ['kern' ('DFLT' <'dflt' > ) ]
DEI: 91125
KernClass2: 72+ 63 "'kern' Horizontal Kerning lookup 0 kerning class 1" 
 5 space
 10 exclamdown
 40 comma period quotesinglbase quotedblbase
 9 backslash
 4 zero
 4 four
 5 three
 5 seven
 4 nine
 10 registered
 20 hyphen endash emdash
 5 slash
 9 trademark
 29 guillemotright guilsinglright
 9 ampersand
 22 quoteleft quotedblleft
 24 quoteright quotedblright
 20 quotedbl quotesingle
 27 guillemotleft guilsinglleft
 8 asterisk
 15 colon semicolon
 1 R
 50 A Agrave Aacute Acircumflex Atilde Adieresis Aring
 1 P
 1 B
 1 J
 37 U Ugrave Uacute Ucircumflex Udieresis
 53 O Q Ograve Oacute Ocircumflex Otilde Odieresis Oslash

StartChar: exclam
Encoding: 33 33 4
Width: 273
GlyphClass: 2
Flags: W
LayerCount: 2
Fore
SplineSet
77 548 m 0,0,1
 77 613 77 613 88 640 c 0,2,3
 103 675 103 675 151 675 c 0,4,5
 174 675 174 675 206 669 c 1,6,7
 189 588 189 588 175 429 c 1,8,-1
 161 191 l 1,9,10
 157 188 157 188 145 187 c 128,-1,11
 133 186 133 186 119 192 c 128,-1,12
 105 198 105 198 101 214 c 1,13,14
 77 370 77 370 77 548 c 0,0,1
186.5 9.5 m 128,-1,16
 166 -12 166 -12 136 -12 c 128,-1,17
 106 -12 106 -12 85.5 9 c 128,-1,18
 65 30 65 30 65 59.5 c 128,-1,19
 65 89 65 89 86 110 c 128,-1,20
 107 131 107 131 136 131 c 128,-1,21
 165 131 165 131 186 109.5 c 128,-1,22
 207 88 207 88 207 59.5 c 128,-1,15
 207 31 207 31 186.5 9.5 c 128,-1,16
EndSplineSet
EndChar

StartChar: quotedbl
Encoding: 34 34 5
Width: 349
GlyphClass: 2
Flags: W
LayerCount: 2
Fore
SplineSet
152 677 m 1,0,-1
 122 452 l 1,1,-1
 74 452 l 1,2,-1
 45 677 l 1,3,-1
 152 677 l 1,0,-1
305 677 m 1,4,-1
 275 452 l 1,5,-1
 227 452 l 1,6,-1
 198 677 l 1,7,-1
 305 677 l 1,4,-1
EndSplineSet
EndChar

StartChar: numbersign
Encoding: 35 35 6
Width: 722
GlyphClass: 2
Flags: W
LayerCount: 2
Fore
SplineSet
686 473 m 1,0,-1
 672 396 l 1,1,-1
 524 396 l 1,2,-1
 500 271 l 1,3,-1
 648 271 l 1,4,-1
 635 193 l 1,5,-1
 487 193 l 1,6,-1
 450 0 l 1,7,-1
 373 0 l 1,8,-1
 408 193 l 1,9,-1
 277 193 l 1,10,-1
 240 0 l 1,11,-1
 163 0 l 1,12,-1
 198 193 l 1,13,-1
 36 193 l 1,14,-1
 50 271 l 1,15,-1
 211 271 l 1,16,-1
 235 396 l 1,17,-1
 74 396 l 1,18,-1
 88 473 l 1,19,-1
 247 473 l 1,20,-1
 284 668 l 1,21,-1
 360 668 l 1,22,-1
 326 473 l 1,23,-1
 457 473 l 1,24,-1
 494 668 l 1,25,-1
 570 668 l 1,26,-1
 536 473 l 1,27,-1
 686 473 l 1,0,-1
445 396 m 1,28,-1
 314 396 l 1,29,-1
 290 271 l 1,30,-1
 421 271 l 1,31,-1
 445 396 l 1,28,-1
EndSplineSet
EndChar

StartChar: dollar
Encoding: 36 36 7
Width: 586
GlyphClass: 2
Flags: W
LayerCount: 2
Fore
SplineSet
189.5 50.5 m 128,-1,1
 237 14 237 14 292.5 14 c 128,-1,2
 348 14 348 14 386.5 45.5 c 128,-1,3
 425 77 425 77 425 149 c 0,4,5
 425 206 425 206 376 240 c 0,6,7
 334 270 334 270 270 297 c 1,8,9
 217 317 217 317 188.5 330.5 c 128,-1,10
 160 344 160 344 126 368 c 1,11,12
 60 412 60 412 60 493 c 128,-1,13
 60 574 60 574 127 628.5 c 128,-1,14
 194 683 194 683 329 683 c 0,15,16
 413 683 413 683 471.5 648 c 128,-1,17
 530 613 530 613 530 557 c 0,18,19
 530 516 530 516 490 500 c 0,20,21
 470 491 470 491 450 491 c 128,-1,22
 430 491 430 491 411 499 c 1,23,24
 415 520 415 520 415 548.5 c 128,-1,25
 415 577 415 577 400 609 c 0,26,27
 376 658 376 658 315.5 658 c 128,-1,28
 255 658 255 658 221.5 620 c 128,-1,29
 188 582 188 582 188 525 c 0,30,31
 188 453 188 453 254 418 c 1,32,33
 293 396 293 396 343 378 c 128,-1,34
 393 360 393 360 422 347 c 128,-1,35
 451 334 451 334 463 325.5 c 128,-1,36
 475 317 475 317 495.5 300.5 c 128,-1,37
 516 284 516 284 524 268 c 0,38,39
 548 226 548 226 548 181 c 0,40,41
 548 96 548 96 475.5 42 c 128,-1,42
 403 -12 403 -12 284 -12 c 0,43,44
 153 -12 153 -12 76 38 c 1,45,46
 35 66 35 66 35 105 c 0,47,48
 35 152 35 152 125 175 c 1,49,0
 142 87 142 87 189.5 50.5 c 128,-1,1
274 800 m 1,50,-1
 321 800 l 1,51,-1
 321 -130 l 1,52,-1
 274 -130 l 1,53,-1
 274 800 l 1,50,-1
EndSplineSet
EndChar

StartChar: percent
Encoding: 37 37 8
Width: 730
GlyphClass: 2
Flags: W
LayerCount: 2
Fore
SplineSet
35 517 m 128,-1,1
 35 579 35 579 79.5 623 c 128,-1,2
 124 667 124 667 186 667 c 128,-1,3
 248 667 248 667 292.5 623 c 128,-1,4
 337 579 337 579 337 517 c 128,-1,5
 337 455 337 455 292.5 411 c 128,-1,6
 248 367 248 367 186 367 c 128,-1,7
 124 367 124 367 79.5 411 c 128,-1,0
 35 455 35 455 35 517 c 128,-1,1
100 516 m 128,-1,9
 100 480 100 480 125 453 c 128,-1,10
 150 426 150 426 185 426 c 128,-1,11
 220 426 220 426 245 453 c 128,-1,12
 270 480 270 480 270 516 c 128,-1,13
 270 552 270 552 245 579 c 128,-1,14
 220 606 220 606 185 606 c 128,-1,15
 150 606 150 606 125 579 c 128,-1,8
 100 552 100 552 100 516 c 128,-1,9
103 1 m 1,16,-1
 574 682 l 1,17,-1
 627 646 l 1,18,-1
 180 1 l 1,19,-1
 103 1 l 1,16,-1
393 147 m 128,-1,21
 393 209 393 209 437.5 253 c 128,-1,22
 482 297 482 297 544 297 c 128,-1,23
 606 297 606 297 650.5 253 c 128,-1,24
 695 209 695 209 695 147 c 128,-1,25
 695 85 695 85 650.5 41 c 128,-1,26
 606 -3 606 -3 544 -3 c 128,-1,27
 482 -3 482 -3 437.5 41 c 128,-1,20
 393 85 393 85 393 147 c 128,-1,21
458 146 m 128,-1,29
 458 110 458 110 483 83 c 128,-1,30
 508 56 508 56 543 56 c 128,-1,31
 578 56 578 56 603 83 c 128,-1,32
 628 110 628 110 628 146 c 128,-1,33
 628 182 628 182 603 209 c 128,-1,34
 578 236 578 236 543 236 c 128,-1,35
 508 236 508 236 483 209 c 128,-1,28
 458 182 458 182 458 146 c 128,-1,29
EndSplineSet
EndChar

StartChar: ampersand
Encoding: 38 38 9
Width: 822
GlyphClass: 2
Flags: W
LayerCount: 2
Fore
SplineSet
766 36 m 0,0,1
 784 36 784 36 803 39 c 1,2,3
 803 27 803 27 786 13 c 0,4,5
 756 -13 756 -13 694 -13 c 128,-1,6
 632 -13 632 -13 573.5 9 c 128,-1,7
 515 31 515 31 482 64 c 1,8,9
 405 -11 405 -11 275 -11 c 0,10,11
 180 -11 180 -11 113.5 34 c 128,-1,12
 47 79 47 79 46 163 c 0,13,14
 46 225 46 225 91 274 c 128,-1,15
 136 323 136 323 211 345 c 1,16,17
 128 418 128 418 128 509 c 0,18,19
 128 580 128 580 180.5 627 c 128,-1,20
 233 674 233 674 326.5 674 c 128,-1,21
 420 674 420 674 471 634 c 128,-1,22
 522 594 522 594 522 529 c 0,23,24
 522 521 522 521 521 512 c 0,25,26
 514 448 514 448 456.5 405 c 128,-1,27
 399 362 399 362 349 360 c 1,28,-1
 343 364 l 1,29,30
 395 309 395 309 537 167 c 1,31,32
 560 224 560 224 560 280.5 c 128,-1,33
 560 337 560 337 553 376 c 1,34,35
 566 383 566 383 576 383 c 0,36,37
 601 383 601 383 601 327 c 0,38,39
 601 220 601 220 564 141 c 1,40,-1
 567 138 l 1,41,42
 674 36 674 36 766 36 c 0,0,1
182 169 m 0,43,44
 182 107 182 107 214.5 68 c 128,-1,45
 247 29 247 29 296 29 c 0,46,47
 394 29 394 29 456 88 c 1,48,49
 422 126 422 126 348 201 c 128,-1,50
 274 276 274 276 239 317 c 1,51,-1
 235 321 l 1,52,53
 182 252 182 252 182 169 c 0,43,44
401 547 m 0,54,55
 401 588 401 588 382 617.5 c 128,-1,56
 363 647 363 647 325.5 647 c 128,-1,57
 288 647 288 647 263.5 616.5 c 128,-1,58
 239 586 239 586 239 531 c 0,59,60
 239 503 239 503 252.5 475.5 c 128,-1,61
 266 448 266 448 277.5 435 c 128,-1,62
 289 422 289 422 326 382 c 1,63,64
 391 423 391 423 400 523 c 0,65,66
 401 536 401 536 401 547 c 0,54,55
EndSplineSet
EndChar

StartChar: quotesingle
Encoding: 39 39 10
Width: 196
GlyphClass: 2
Flags: W
LayerCount: 2
Fore
SplineSet
152 677 m 1,0,-1
 122 452 l 1,1,-1
 74 452 l 1,2,-1
 45 677 l 1,3,-1
 152 677 l 1,0,-1
EndSplineSet
EndChar

StartChar: parenleft
Encoding: 40 40 11
Width: 294
GlyphClass: 2
Flags: W
LayerCount: 2
Fore
SplineSet
54.5 78 m 128,-1,1
 33 166 33 166 33 255 c 128,-1,2
 33 344 33 344 53.5 432 c 128,-1,3
 74 520 74 520 103 582 c 0,4,5
 164 710 164 710 210 765 c 1,6,-1
 231 789 l 1,7,-1
 265 765 l 1,8,9
 154 539 154 539 154 254 c 0,10,11
 154 118 154 118 185 -21.5 c 128,-1,12
 216 -161 216 -161 268 -255 c 1,13,-1
 234 -277 l 1,14,15
 205 -244 205 -244 167 -185 c 128,-1,16
 129 -126 129 -126 102.5 -68 c 128,-1,0
 76 -10 76 -10 54.5 78 c 128,-1,1
EndSplineSet
EndChar

StartChar: parenright
Encoding: 41 41 12
Width: 293
GlyphClass: 2
Flags: W
LayerCount: 2
Fore
SplineSet
140 254 m 0,0,1
 140 539 140 539 29 765 c 1,2,-1
 63 789 l 1,3,4
 92 756 92 756 129 697.5 c 128,-1,5
 166 639 166 639 192 580.5 c 128,-1,6
 218 522 218 522 239.5 433 c 128,-1,7
 261 344 261 344 261 255 c 128,-1,8
 261 166 261 166 240.5 79 c 128,-1,9
 220 -8 220 -8 190 -70 c 0,10,11
 127 -198 127 -198 80 -253 c 2,12,-1
 60 -277 l 1,13,-1
 26 -255 l 1,14,15
 78 -161 78 -161 109 -21.5 c 128,-1,16
 140 118 140 118 140 254 c 0,0,1
EndSplineSet
EndChar

StartChar: asterisk
Encoding: 42 42 13
Width: 464
GlyphClass: 2
Flags: W
LayerCount: 2
Fore
SplineSet
207 559 m 1,0,-1
 192 682 l 1,1,-1
 273 682 l 1,2,-1
 259 559 l 1,3,-1
 357 649 l 1,4,-1
 407 585 l 1,5,-1
 280 515 l 1,6,-1
 405 443 l 1,7,-1
 357 380 l 1,8,-1
 259 468 l 1,9,-1
 273 346 l 1,10,-1
 194 346 l 1,11,-1
 208 468 l 1,12,-1
 109 377 l 1,13,-1
 60 441 l 1,14,-1
 190 515 l 1,15,-1
 57 585 l 1,16,-1
 107 652 l 1,17,-1
 207 559 l 1,0,-1
EndSplineSet
EndChar

StartChar: plus
Encoding: 43 43 14
Width: 556
GlyphClass: 2
Flags: W
LayerCount: 2
Fore
SplineSet
510 272 m 1,0,-1
 510 193 l 1,1,-1
 318 193 l 1,2,-1
 318 0 l 1,3,-1
 234 0 l 1,4,-1
 234 193 l 1,5,-1
 46 193 l 1,6,-1
 46 272 l 1,7,-1
 234 272 l 1,8,-1
 234 456 l 1,9,-1
 318 456 l 1,10,-1
 318 272 l 1,11,-1
 510 272 l 1,0,-1
EndSplineSet
EndChar

StartChar: comma
Encoding: 44 44 15
Width: 245
GlyphClass: 2
Flags: W
LayerCount: 2
Fore
SplineSet
194 40 m 0,0,1
 194 -21 194 -21 145 -76 c 128,-1,2
 96 -131 96 -131 62 -144 c 1,3,-1
 47 -120 l 1,4,5
 81 -102 81 -102 105 -67 c 128,-1,6
 129 -32 129 -32 133 5 c 1,7,8
 121 -1 121 -1 100.5 -1 c 128,-1,9
 80 -1 80 -1 65.5 17 c 128,-1,10
 51 35 51 35 51 64.5 c 128,-1,11
 51 94 51 94 72 111 c 128,-1,12
 93 128 93 128 124.5 128 c 128,-1,13
 156 128 156 128 175 106.5 c 128,-1,14
 194 85 194 85 194 40 c 0,0,1
EndSplineSet
EndChar

StartChar: hyphen
Encoding: 45 45 16
Width: 414
GlyphClass: 2
Flags: W
LayerCount: 2
Fore
SplineSet
352 301 m 1,0,-1
 352 223 l 1,1,-1
 62 223 l 1,2,-1
 62 301 l 1,3,-1
 352 301 l 1,0,-1
EndSplineSet
EndChar

StartChar: period
Encoding: 46 46 17
Width: 244
GlyphClass: 2
Flags: W
LayerCount: 2
Fore
SplineSet
172.5 9.5 m 128,-1,1
 152 -12 152 -12 122 -12 c 128,-1,2
 92 -12 92 -12 71.5 9 c 128,-1,3
 51 30 51 30 51 59.5 c 128,-1,4
 51 89 51 89 72 110 c 128,-1,5
 93 131 93 131 122 131 c 128,-1,6
 151 131 151 131 172 109.5 c 128,-1,7
 193 88 193 88 193 59.5 c 128,-1,0
 193 31 193 31 172.5 9.5 c 128,-1,1
EndSplineSet
EndChar

StartChar: slash
Encoding: 47 47 18
Width: 368
GlyphClass: 2
Flags: W
LayerCount: 2
Fore
SplineSet
125 0 m 1,0,-1
 42 0 l 1,1,-1
 243 668 l 1,2,-1
 326 668 l 1,3,-1
 125 0 l 1,0,-1
EndSplineSet
EndChar

StartChar: zero
Encoding: 48 48 19
Width: 616
GlyphClass: 2
Flags: W
LayerCount: 2
Fore
SplineSet
494.5 61.5 m 128,-1,1
 424 -11 424 -11 308.5 -11 c 128,-1,2
 193 -11 193 -11 122 61.5 c 128,-1,3
 51 134 51 134 51 244 c 128,-1,4
 51 354 51 354 122 426.5 c 128,-1,5
 193 499 193 499 308.5 499 c 128,-1,6
 424 499 424 499 494.5 426.5 c 128,-1,7
 565 354 565 354 565 244 c 128,-1,0
 565 134 565 134 494.5 61.5 c 128,-1,1
219 73.5 m 128,-1,9
 249 13 249 13 308.5 13 c 128,-1,10
 368 13 368 13 397.5 73.5 c 128,-1,11
 427 134 427 134 427 244 c 0,12,13
 427 474 427 474 309 474 c 0,14,15
 189 474 189 474 189 244 c 0,16,8
 189 134 189 134 219 73.5 c 128,-1,9
EndSplineSet
EndChar

StartChar: one
Encoding: 49 49 20
Width: 364
GlyphClass: 2
Flags: W
LayerCount: 2
Fore
SplineSet
49 487 m 1,0,-1
 315 487 l 1,1,-1
 315 463 l 1,2,-1
 246 458 l 1,3,-1
 246 29 l 1,4,-1
 315 23 l 1,5,-1
 315 0 l 1,6,-1
 49 0 l 1,7,-1
 49 23 l 1,8,-1
 118 29 l 1,9,-1
 118 459 l 1,10,-1
 49 463 l 1,11,-1
 49 487 l 1,0,-1
EndSplineSet
EndChar

StartChar: two
Encoding: 50 50 21
Width: 520
GlyphClass: 2
Flags: W
LayerCount: 2
Fore
SplineSet
54 0 m 1,0,-1
 54 44 l 1,1,2
 144 90 144 90 226 172 c 0,3,4
 268 214 268 214 294 267 c 128,-1,5
 320 320 320 320 320 372 c 0,6,7
 320 470 320 470 247 470 c 0,8,9
 206 470 206 470 178 430 c 0,10,11
 158 401 158 401 158 362 c 0,12,13
 158 347 158 347 161 330 c 1,14,15
 139 317 139 317 118 317 c 1,16,-1
 91 322 l 1,17,18
 56 335 56 335 56 374 c 0,19,20
 56 430 56 430 113.5 464.5 c 128,-1,21
 171 499 171 499 236 499 c 128,-1,22
 301 499 301 499 344 487 c 128,-1,23
 387 475 387 475 418 442 c 128,-1,24
 449 409 449 409 449 360.5 c 128,-1,25
 449 312 449 312 419.5 265.5 c 128,-1,26
 390 219 390 219 342 182 c 0,27,28
 264 121 264 121 173 76 c 1,29,-1
 471 76 l 1,30,-1
 471 0 l 1,31,-1
 54 0 l 1,0,-1
EndSplineSet
EndChar

StartChar: three
Encoding: 51 51 22
Width: 561
GlyphClass: 2
Flags: W
LayerCount: 2
Fore
SplineSet
164 -116 m 1,0,1
 195 -164 195 -164 258 -164 c 128,-1,2
 321 -164 321 -164 353.5 -119.5 c 128,-1,3
 386 -75 386 -75 386 -4 c 128,-1,4
 386 67 386 67 342 108.5 c 128,-1,5
 298 150 298 150 225 150 c 0,6,7
 200 150 200 150 170 144 c 1,8,-1
 170 174 l 1,9,10
 254 178 254 178 311.5 224.5 c 128,-1,11
 369 271 369 271 369 356 c 0,12,13
 369 411 369 411 341 441.5 c 128,-1,14
 313 472 313 472 269 472 c 128,-1,15
 225 472 225 472 196 432 c 1,16,17
 177 404 177 404 177 378 c 128,-1,18
 177 352 177 352 182 333 c 1,19,20
 161 321 161 321 143.5 321 c 128,-1,21
 126 321 126 321 111 326 c 0,22,23
 74 339 74 339 74 378 c 0,24,25
 74 433 74 433 133.5 467 c 128,-1,26
 193 501 193 501 262 501 c 128,-1,27
 331 501 331 501 378 488 c 128,-1,28
 425 475 425 475 461.5 438 c 128,-1,29
 498 401 498 401 498 344 c 128,-1,30
 498 287 498 287 452.5 237.5 c 128,-1,31
 407 188 407 188 325 177 c 1,32,33
 411 169 411 169 464.5 125 c 128,-1,34
 518 81 518 81 518 -0.5 c 128,-1,35
 518 -82 518 -82 447 -137 c 128,-1,36
 376 -192 376 -192 262 -192 c 128,-1,37
 148 -192 148 -192 91.5 -155.5 c 128,-1,38
 35 -119 35 -119 35 -63 c 0,39,40
 35 -24 35 -24 68 -8 c 0,41,42
 86 1 86 1 105 1 c 128,-1,43
 124 1 124 1 144 -7 c 1,44,45
 142 -22 142 -22 142 -36 c 0,46,47
 142 -79 142 -79 164 -116 c 1,0,1
EndSplineSet
EndChar

StartChar: four
Encoding: 52 52 23
Width: 611
GlyphClass: 2
Flags: W
LayerCount: 2
Fore
SplineSet
584 74 m 1,0,-1
 584 22 l 1,1,-1
 451 22 l 1,2,-1
 451 -180 l 1,3,-1
 326 -180 l 1,4,-1
 326 22 l 1,5,-1
 32 22 l 1,6,-1
 18 53 l 1,7,-1
 347 488 l 1,8,-1
 451 488 l 1,9,-1
 451 74 l 1,10,-1
 584 74 l 1,0,-1
326 73 m 1,11,-1
 326 363 l 1,12,-1
 115 73 l 1,13,-1
 326 73 l 1,11,-1
EndSplineSet
EndChar

StartChar: five
Encoding: 53 53 24
Width: 549
GlyphClass: 2
Flags: W
LayerCount: 2
Fore
SplineSet
196 189 m 0,0,1
 146 189 146 189 90 171 c 1,2,-1
 121 488 l 1,3,-1
 488 488 l 1,4,-1
 482 410 l 1,5,-1
 175 410 l 1,6,-1
 156 229 l 1,7,8
 208 238 208 238 254 238 c 128,-1,9
 300 238 300 238 342.5 227.5 c 128,-1,10
 385 217 385 217 423 194.5 c 128,-1,11
 461 172 461 172 483 129 c 128,-1,12
 505 86 505 86 505 27 c 0,13,14
 505 -68 505 -68 434 -129.5 c 128,-1,15
 363 -191 363 -191 252.5 -191 c 128,-1,16
 142 -191 142 -191 87.5 -154 c 128,-1,17
 33 -117 33 -117 33 -62 c 0,18,19
 33 -23 33 -23 66 -6 c 0,20,21
 83 2 83 2 100.5 2 c 128,-1,22
 118 2 118 2 137 -7 c 1,23,24
 135 -22 135 -22 135 -36 c 0,25,26
 135 -79 135 -79 158 -114 c 0,27,28
 189 -162 189 -162 249 -162 c 128,-1,29
 309 -162 309 -162 340 -112.5 c 128,-1,30
 371 -63 371 -63 372 10 c 1,31,32
 372 189 372 189 196 189 c 0,0,1
EndSplineSet
EndChar

StartChar: six
Encoding: 54 54 25
Width: 590
GlyphClass: 2
Flags: W
LayerCount: 2
Fore
SplineSet
116.5 75 m 128,-1,1
 55 161 55 161 55 323 c 128,-1,2
 55 485 55 485 133 584.5 c 128,-1,3
 211 684 211 684 340 684 c 0,4,5
 418 684 418 684 469 651 c 128,-1,6
 520 618 520 618 520 563 c 0,7,8
 520 524 520 524 484 506 c 0,9,10
 466 498 466 498 448 498 c 128,-1,11
 430 498 430 498 413 507 c 1,12,13
 418 526 418 526 418 551.5 c 128,-1,14
 418 577 418 577 406 607 c 0,15,16
 386 656 386 656 336 656 c 0,17,18
 187 656 187 656 187 310 c 0,19,20
 187 176 187 176 217.5 98 c 128,-1,21
 248 20 248 20 311 20 c 0,22,23
 361 20 361 20 386 65 c 128,-1,24
 411 110 411 110 411 190 c 0,25,26
 411 347 411 347 301 347 c 0,27,28
 268 347 268 347 217 327 c 1,29,-1
 205 357 l 1,30,31
 266 395 266 395 345 395 c 128,-1,32
 424 395 424 395 482.5 346.5 c 128,-1,33
 541 298 541 298 541 204.5 c 128,-1,34
 541 111 541 111 477.5 50 c 128,-1,35
 414 -11 414 -11 296 -11 c 128,-1,0
 178 -11 178 -11 116.5 75 c 128,-1,1
EndSplineSet
EndChar

StartChar: seven
Encoding: 55 55 26
Width: 487
GlyphClass: 2
Flags: W
LayerCount: 2
Fore
SplineSet
483 487 m 1,0,-1
 155 -204 l 1,1,-1
 93 -174 l 1,2,-1
 368 409 l 1,3,-1
 28 409 l 1,4,-1
 35 487 l 1,5,-1
 483 487 l 1,0,-1
EndSplineSet
EndChar

StartChar: eight
Encoding: 56 56 27
Width: 580
GlyphClass: 2
Flags: W
LayerCount: 2
Fore
SplineSet
281 -11 m 128,-1,1
 171 -11 171 -11 111 35.5 c 128,-1,2
 51 82 51 82 51 150.5 c 128,-1,3
 51 219 51 219 96.5 268 c 128,-1,4
 142 317 142 317 218 340 c 1,5,6
 151 377 151 377 116.5 415.5 c 128,-1,7
 82 454 82 454 82 512 c 0,8,9
 82 591 82 591 141.5 637 c 128,-1,10
 201 683 201 683 301 683 c 128,-1,11
 401 683 401 683 452.5 641.5 c 128,-1,12
 504 600 504 600 504 535.5 c 128,-1,13
 504 471 504 471 455 426 c 128,-1,14
 406 381 406 381 353 375 c 1,15,-1
 359 375 l 1,16,17
 443 331 443 331 485.5 290.5 c 128,-1,18
 528 250 528 250 528 187 c 0,19,20
 528 102 528 102 459.5 45.5 c 128,-1,0
 391 -11 391 -11 281 -11 c 128,-1,1
372.5 52.5 m 128,-1,22
 409 88 409 88 409 149 c 128,-1,23
 409 210 409 210 373 246.5 c 128,-1,24
 337 283 337 283 266 318 c 1,25,26
 222 292 222 292 200 248 c 128,-1,27
 178 204 178 204 178 148.5 c 128,-1,28
 178 93 178 93 210 55 c 128,-1,29
 242 17 242 17 289 17 c 128,-1,21
 336 17 336 17 372.5 52.5 c 128,-1,22
223.5 622.5 m 128,-1,31
 194 590 194 590 194 534.5 c 128,-1,32
 194 479 194 479 224.5 448.5 c 128,-1,33
 255 418 255 418 316 394 c 1,34,35
 386 433 386 433 386 538 c 0,36,37
 386 595 386 595 360 625 c 128,-1,38
 334 655 334 655 293.5 655 c 128,-1,30
 253 655 253 655 223.5 622.5 c 128,-1,31
EndSplineSet
EndChar

StartChar: nine
Encoding: 57 57 28
Width: 575
GlyphClass: 2
Flags: W
LayerCount: 2
Fore
SplineSet
163 -22 m 1,0,1
 160 -38 160 -38 160 -63 c 128,-1,2
 160 -88 160 -88 178 -119 c 0,3,4
 203 -164 203 -164 256 -164 c 0,5,6
 324 -164 324 -164 355 -96 c 0,7,8
 386 -27 386 -27 392 36 c 0,9,10
 399 123 399 123 399 200 c 0,11,12
 399 473 399 473 283 473 c 0,13,14
 233 473 233 473 204.5 427 c 128,-1,15
 176 381 176 381 176 302 c 0,16,17
 176 145 176 145 282 145 c 0,18,19
 312 145 312 145 369 165 c 1,20,-1
 380 135 l 1,21,22
 318 97 318 97 238.5 97 c 128,-1,23
 159 97 159 97 102 145 c 128,-1,24
 45 193 45 193 45 286.5 c 128,-1,25
 45 380 45 380 110 441 c 128,-1,26
 175 502 175 502 292 502 c 128,-1,27
 409 502 409 502 469 420 c 128,-1,28
 529 338 529 338 529 193 c 0,29,30
 529 10 529 10 455.5 -91 c 128,-1,31
 382 -192 382 -192 255 -192 c 0,32,33
 173 -192 173 -192 116.5 -159 c 128,-1,34
 60 -126 60 -126 60 -71 c 0,35,36
 60 -40 60 -40 77 -26 c 128,-1,37
 94 -12 94 -12 114 -12 c 0,38,39
 136 -12 136 -12 163 -22 c 1,0,1
EndSplineSet
EndChar

StartChar: colon
Encoding: 58 58 29
Width: 266
GlyphClass: 2
Flags: W
LayerCount: 2
Fore
SplineSet
183.5 9.5 m 128,-1,1
 163 -12 163 -12 133 -12 c 128,-1,2
 103 -12 103 -12 82.5 9 c 128,-1,3
 62 30 62 30 62 59.5 c 128,-1,4
 62 89 62 89 83 110 c 128,-1,5
 104 131 104 131 133 131 c 128,-1,6
 162 131 162 131 183 109.5 c 128,-1,7
 204 88 204 88 204 59.5 c 128,-1,0
 204 31 204 31 183.5 9.5 c 128,-1,1
183.5 345.5 m 128,-1,9
 163 324 163 324 133 324 c 128,-1,10
 103 324 103 324 82.5 345 c 128,-1,11
 62 366 62 366 62 395.5 c 128,-1,12
 62 425 62 425 83 446 c 128,-1,13
 104 467 104 467 133 467 c 128,-1,14
 162 467 162 467 183 445.5 c 128,-1,15
 204 424 204 424 204 395.5 c 128,-1,8
 204 367 204 367 183.5 345.5 c 128,-1,9
EndSplineSet
EndChar

StartChar: semicolon
Encoding: 59 59 30
Width: 274
GlyphClass: 2
Flags: W
LayerCount: 2
Fore
SplineSet
183.5 345.5 m 128,-1,1
 163 324 163 324 133 324 c 128,-1,2
 103 324 103 324 82.5 345 c 128,-1,3
 62 366 62 366 62 395.5 c 128,-1,4
 62 425 62 425 83 446 c 128,-1,5
 104 467 104 467 133 467 c 128,-1,6
 162 467 162 467 183 445.5 c 128,-1,7
 204 424 204 424 204 395.5 c 128,-1,0
 204 367 204 367 183.5 345.5 c 128,-1,1
209 40 m 0,8,9
 209 -21 209 -21 160 -76 c 128,-1,10
 111 -131 111 -131 77 -144 c 1,11,-1
 62 -120 l 1,12,13
 96 -102 96 -102 120 -67 c 128,-1,14
 144 -32 144 -32 148 5 c 1,15,16
 136 -1 136 -1 115.5 -1 c 128,-1,17
 95 -1 95 -1 80.5 17 c 128,-1,18
 66 35 66 35 66 64.5 c 128,-1,19
 66 94 66 94 87 111 c 128,-1,20
 108 128 108 128 139.5 128 c 128,-1,21
 171 128 171 128 190 106.5 c 128,-1,22
 209 85 209 85 209 40 c 0,8,9
EndSplineSet
EndChar

StartChar: less
Encoding: 60 60 31
Width: 552
GlyphClass: 2
Flags: W
LayerCount: 2
Fore
SplineSet
496 390 m 1,0,-1
 153 235 l 1,1,-1
 496 73 l 1,2,-1
 458 -1 l 1,3,-1
 39 201 l 1,4,-1
 39 262 l 1,5,-1
 460 462 l 1,6,-1
 496 390 l 1,0,-1
EndSplineSet
EndChar

StartChar: equal
Encoding: 61 61 32
Width: 570
GlyphClass: 2
Flags: W
LayerCount: 2
Fore
SplineSet
500 345 m 1,0,-1
 500 261 l 1,1,-1
 70 261 l 1,2,-1
 70 345 l 1,3,-1
 500 345 l 1,0,-1
500 203 m 1,4,-1
 500 119 l 1,5,-1
 70 119 l 1,6,-1
 70 203 l 1,7,-1
 500 203 l 1,4,-1
EndSplineSet
EndChar

StartChar: greater
Encoding: 62 62 33
Width: 552
GlyphClass: 2
Flags: W
LayerCount: 2
Fore
SplineSet
399 235 m 1,0,-1
 56 390 l 1,1,-1
 92 462 l 1,2,-1
 513 262 l 1,3,-1
 513 201 l 1,4,-1
 94 -1 l 1,5,-1
 56 73 l 1,6,-1
 399 235 l 1,0,-1
EndSplineSet
EndChar

StartChar: question
Encoding: 63 63 34
Width: 452
GlyphClass: 2
Flags: W
LayerCount: 2
Fore
SplineSet
222 262 m 2,0,-1
 222 257 l 2,1,2
 222 240 222 240 229 221 c 1,3,4
 204 213 204 213 183 213 c 0,5,6
 130 213 130 213 130 260 c 0,7,8
 130 288 130 288 145 316 c 128,-1,9
 160 344 160 344 174 360 c 128,-1,10
 188 376 188 376 216.5 404.5 c 128,-1,11
 245 433 245 433 259.5 450 c 128,-1,12
 274 467 274 467 288 497 c 128,-1,13
 302 527 302 527 302 559 c 0,14,15
 302 662 302 662 230 662 c 0,16,17
 188 662 188 662 161 618 c 0,18,19
 142 586 142 586 142 546 c 0,20,21
 142 530 142 530 145 513 c 1,22,23
 126 504 126 504 108 504 c 128,-1,24
 90 504 90 504 74 510 c 0,25,26
 38 524 38 524 38 561 c 0,27,28
 38 620 38 620 94 656 c 128,-1,29
 150 692 150 692 231 692 c 0,30,31
 417 692 417 692 417 549 c 0,32,33
 417 516 417 516 396 479.5 c 128,-1,34
 375 443 375 443 354 421.5 c 128,-1,35
 333 400 333 400 302.5 372 c 128,-1,36
 272 344 272 344 259 330 c 0,37,38
 222 292 222 292 222 262 c 2,0,-1
232 7.5 m 128,-1,40
 213 -12 213 -12 185 -12 c 128,-1,41
 157 -12 157 -12 138.5 7 c 128,-1,42
 120 26 120 26 120 53.5 c 128,-1,43
 120 81 120 81 138.5 100.5 c 128,-1,44
 157 120 157 120 185 120 c 128,-1,45
 213 120 213 120 232 100.5 c 128,-1,46
 251 81 251 81 251 54 c 128,-1,39
 251 27 251 27 232 7.5 c 128,-1,40
EndSplineSet
EndChar

StartChar: at
Encoding: 64 64 35
Width: 827
GlyphClass: 2
Flags: W
LayerCount: 2
Fore
SplineSet
474 321 m 1,0,1
 419 321 419 321 386 301 c 128,-1,2
 353 281 353 281 353 224 c 128,-1,3
 353 167 353 167 397 167 c 0,4,5
 425 167 425 167 447.5 194.5 c 128,-1,6
 470 222 470 222 473 255 c 1,7,-1
 474 321 l 1,0,1
560 224 m 2,8,9
 560 182 560 182 590 182 c 0,10,11
 629 182 629 182 655 239 c 128,-1,12
 681 296 681 296 681 397 c 0,13,14
 681 520 681 520 618.5 584.5 c 128,-1,15
 556 649 556 649 445 649 c 0,16,17
 370 649 370 649 311.5 621.5 c 128,-1,18
 253 594 253 594 220 548 c 0,19,20
 152 455 152 455 152 322.5 c 128,-1,21
 152 190 152 190 218.5 107 c 128,-1,22
 285 24 285 24 417 24 c 0,23,24
 487 24 487 24 554 46 c 128,-1,25
 621 68 621 68 653 90 c 2,26,-1
 685 112 l 1,27,-1
 703 81 l 1,28,29
 693 71 693 71 659 52 c 128,-1,30
 625 33 625 33 594 20 c 0,31,32
 515 -12 515 -12 417 -12 c 0,33,34
 255 -12 255 -12 153 83 c 128,-1,35
 51 178 51 178 51 324 c 0,36,37
 51 466 51 466 150 570 c 0,38,39
 198 621 198 621 277 651 c 128,-1,40
 356 681 356 681 455 681 c 0,41,42
 596 681 596 681 689 608.5 c 128,-1,43
 782 536 782 536 782 411 c 128,-1,44
 782 286 782 286 710.5 218 c 128,-1,45
 639 150 639 150 564 150 c 0,46,47
 529 150 529 150 506 165.5 c 128,-1,48
 483 181 483 181 476 200 c 1,49,50
 458 168 458 168 423.5 152 c 128,-1,51
 389 136 389 136 350 136 c 128,-1,52
 311 136 311 136 284.5 159.5 c 128,-1,53
 258 183 258 183 258 224 c 0,54,55
 258 282 258 282 316.5 311 c 128,-1,56
 375 340 375 340 475 340 c 1,57,-1
 477 405 l 2,58,59
 477 408 477 408 477 411 c 0,60,61
 477 501 477 501 420 501 c 0,62,63
 385 501 385 501 369.5 477 c 128,-1,64
 354 453 354 453 354 430.5 c 128,-1,65
 354 408 354 408 356 394 c 1,66,67
 341 383 341 383 328 383 c 0,68,69
 278 383 278 383 278 428 c 0,70,71
 278 462 278 462 305 484 c 0,72,73
 349 520 349 520 427 520 c 128,-1,74
 505 520 505 520 535.5 490 c 128,-1,75
 566 460 566 460 566 401 c 0,76,77
 566 397 566 397 566 393 c 2,78,-1
 560 234 l 1,79,-1
 560 224 l 2,8,9
EndSplineSet
EndChar

StartChar: A
Encoding: 65 65 36
Width: 686
GlyphClass: 2
Flags: W
LayerCount: 2
Fore
SplineSet
716 0 m 1,0,-1
 422 0 l 1,1,-1
 422 24 l 1,2,-1
 503 33 l 1,3,-1
 411 263 l 1,4,-1
 186 263 l 1,5,-1
 106 50 l 1,6,-1
 195 24 l 1,7,-1
 195 0 l 1,8,-1
 -14 0 l 1,9,-1
 -14 24 l 1,10,-1
 62 50 l 1,11,-1
 304 668 l 1,12,-1
 374 668 l 1,13,-1
 639 33 l 1,14,-1
 716 24 l 1,15,-1
 716 0 l 1,0,-1
396 300 m 1,16,-1
 298 543 l 1,17,-1
 200 300 l 1,18,-1
 396 300 l 1,16,-1
EndSplineSet
EndChar

StartChar: B
Encoding: 66 66 37
Width: 636
GlyphClass: 2
Flags: W
LayerCount: 2
Fore
SplineSet
323 668 m 2,0,1
 562 668 562 668 562 511 c 0,2,3
 562 447 562 447 521 404.5 c 128,-1,4
 480 362 480 362 402 353 c 1,5,6
 503 334 503 334 549 294 c 128,-1,7
 595 254 595 254 595 181 c 0,8,9
 595 89 595 89 517 44.5 c 128,-1,10
 439 0 439 0 314 0 c 2,11,-1
 43 0 l 1,12,-1
 43 24 l 1,13,-1
 116 34 l 1,14,-1
 116 635 l 1,15,-1
 31 645 l 1,16,-1
 31 668 l 1,17,-1
 323 668 l 2,0,1
277 333 m 1,18,-1
 251 332 l 1,19,-1
 251 28 l 1,20,21
 270 23 270 23 295 23 c 0,22,23
 364 23 364 23 411 61.5 c 128,-1,24
 458 100 458 100 458 189 c 0,25,26
 458 302 458 302 360 324 c 0,27,28
 320 333 320 333 277 333 c 1,18,-1
251 641 m 1,29,-1
 251 361 l 1,30,-1
 275 361 l 2,31,32
 345 361 345 361 384 399 c 128,-1,33
 423 437 423 437 423 509.5 c 128,-1,34
 423 582 423 582 393 611.5 c 128,-1,35
 363 641 363 641 297 641 c 2,36,-1
 251 641 l 1,29,-1
EndSplineSet
EndChar

StartChar: C
Encoding: 67 67 38
Width: 719
GlyphClass: 2
Flags: W
LayerCount: 2
Fore
SplineSet
439 675 m 1,0,-1
 659 666 l 1,1,-1
 665 484 l 1,2,-1
 629 484 l 1,3,-1
 595 615 l 1,4,5
 526 638 526 638 462 638 c 0,6,7
 343 638 343 638 269 559.5 c 128,-1,8
 195 481 195 481 195 327.5 c 128,-1,9
 195 174 195 174 267 102 c 128,-1,10
 339 30 339 30 448.5 30 c 128,-1,11
 558 30 558 30 607 54 c 1,12,-1
 644 168 l 1,13,-1
 676 168 l 1,14,-1
 670 21 l 1,15,16
 545 -6 545 -6 451.5 -6 c 128,-1,17
 358 -6 358 -6 292 9.5 c 128,-1,18
 226 25 226 25 168 60 c 128,-1,19
 110 95 110 95 77.5 161 c 128,-1,20
 45 227 45 227 45 319 c 128,-1,21
 45 411 45 411 78.5 481.5 c 128,-1,22
 112 552 112 552 169 593 c 0,23,24
 283 675 283 675 439 675 c 1,0,-1
EndSplineSet
EndChar

StartChar: D
Encoding: 68 68 39
Width: 808
GlyphClass: 2
Flags: W
LayerCount: 2
Fore
SplineSet
762 335 m 0,0,1
 762 0 762 0 346 0 c 2,2,-1
 33 0 l 1,3,-1
 33 24 l 1,4,-1
 119 34 l 1,5,-1
 119 633 l 1,6,-1
 33 645 l 1,7,-1
 33 671 l 1,8,9
 79 668 79 668 140 668 c 2,10,-1
 236 668 l 1,11,-1
 360 672 l 1,12,13
 451 672 451 672 519.5 657 c 128,-1,14
 588 642 588 642 645 606 c 0,15,16
 762 532 762 532 762 335 c 0,0,1
611 334 m 0,17,18
 611 507 611 507 546 574 c 0,19,20
 525 597 525 597 507 608.5 c 128,-1,21
 489 620 489 620 462 626 c 0,22,23
 425 635 425 635 375 637 c 1,24,-1
 360 637 l 2,25,26
 287 637 287 637 253 632 c 1,27,-1
 253 35 l 1,28,-1
 346 32 l 1,29,30
 441 36 441 36 487 58 c 0,31,32
 611 117 611 117 611 334 c 0,17,18
EndSplineSet
EndChar

StartChar: E
Encoding: 69 69 40
Width: 615
GlyphClass: 2
Flags: W
LayerCount: 2
Fore
SplineSet
33 0 m 1,0,-1
 33 24 l 1,1,-1
 120 33 l 1,2,-1
 120 635 l 1,3,-1
 33 644 l 1,4,-1
 33 668 l 1,5,-1
 543 668 l 1,6,-1
 543 526 l 1,7,-1
 511 526 l 1,8,-1
 472 632 l 1,9,-1
 253 635 l 1,10,-1
 253 366 l 1,11,-1
 447 366 l 1,12,-1
 478 440 l 1,13,-1
 506 440 l 1,14,-1
 506 254 l 1,15,-1
 477 254 l 1,16,-1
 447 330 l 1,17,-1
 253 330 l 1,18,-1
 253 32 l 1,19,-1
 502 35 l 1,20,-1
 554 149 l 1,21,-1
 586 149 l 1,22,-1
 574 0 l 1,23,-1
 33 0 l 1,0,-1
EndSplineSet
EndChar

StartChar: F
Encoding: 70 70 41
Width: 577
GlyphClass: 2
Flags: W
LayerCount: 2
Fore
SplineSet
252 313 m 1,0,-1
 252 33 l 1,1,-1
 339 24 l 1,2,-1
 339 0 l 1,3,-1
 33 0 l 1,4,-1
 33 24 l 1,5,-1
 120 33 l 1,6,-1
 120 635 l 1,7,-1
 33 646 l 1,8,-1
 33 669 l 1,9,-1
 543 669 l 1,10,-1
 543 526 l 1,11,-1
 511 526 l 1,12,-1
 473 632 l 1,13,-1
 252 635 l 1,14,-1
 252 349 l 1,15,-1
 447 349 l 1,16,-1
 478 423 l 1,17,-1
 507 423 l 1,18,-1
 507 237 l 1,19,-1
 477 237 l 1,20,-1
 447 313 l 1,21,-1
 252 313 l 1,0,-1
EndSplineSet
EndChar

StartChar: G
Encoding: 71 71 42
Width: 755
GlyphClass: 2
Flags: W
LayerCount: 2
Fore
SplineSet
439 675 m 1,0,-1
 659 666 l 1,1,-1
 665 484 l 1,2,-1
 629 484 l 1,3,-1
 595 615 l 1,4,5
 526 638 526 638 462 638 c 0,6,7
 343 638 343 638 269 559.5 c 128,-1,8
 195 481 195 481 195 327.5 c 128,-1,9
 195 174 195 174 267 102 c 128,-1,10
 339 30 339 30 453 30 c 0,11,12
 494 30 494 30 542 36 c 1,13,-1
 542 259 l 1,14,-1
 459 268 l 1,15,-1
 459 292 l 1,16,-1
 730 292 l 1,17,-1
 730 268 l 1,18,-1
 670 259 l 1,19,-1
 670 21 l 1,20,21
 545 -6 545 -6 451.5 -6 c 128,-1,22
 358 -6 358 -6 292 9.5 c 128,-1,23
 226 25 226 25 168 60 c 128,-1,24
 110 95 110 95 77.5 161 c 128,-1,25
 45 227 45 227 45 319 c 128,-1,26
 45 411 45 411 78.5 481.5 c 128,-1,27
 112 552 112 552 169 593 c 0,28,29
 283 675 283 675 439 675 c 1,0,-1
EndSplineSet
EndChar

StartChar: H
Encoding: 72 72 43
Width: 821
GlyphClass: 2
Flags: W
LayerCount: 2
Fore
SplineSet
788 0 m 1,0,-1
 482 0 l 1,1,-1
 482 24 l 1,2,-1
 569 33 l 1,3,-1
 569 330 l 1,4,-1
 253 330 l 1,5,-1
 253 33 l 1,6,-1
 340 24 l 1,7,-1
 340 0 l 1,8,-1
 33 0 l 1,9,-1
 33 24 l 1,10,-1
 120 33 l 1,11,-1
 120 635 l 1,12,-1
 33 644 l 1,13,-1
 33 668 l 1,14,-1
 340 668 l 1,15,-1
 340 644 l 1,16,-1
 253 635 l 1,17,-1
 253 366 l 1,18,-1
 569 366 l 1,19,-1
 569 635 l 1,20,-1
 482 644 l 1,21,-1
 482 668 l 1,22,-1
 788 668 l 1,23,-1
 788 644 l 1,24,-1
 701 635 l 1,25,-1
 701 33 l 1,26,-1
 788 24 l 1,27,-1
 788 0 l 1,0,-1
EndSplineSet
EndChar

StartChar: I
Encoding: 73 73 44
Width: 373
GlyphClass: 2
Flags: W
LayerCount: 2
Fore
SplineSet
340 0 m 1,0,-1
 33 0 l 1,1,-1
 33 24 l 1,2,-1
 120 33 l 1,3,-1
 120 635 l 1,4,-1
 33 644 l 1,5,-1
 33 668 l 1,6,-1
 340 668 l 1,7,-1
 340 644 l 1,8,-1
 253 635 l 1,9,-1
 253 33 l 1,10,-1
 340 24 l 1,11,-1
 340 0 l 1,0,-1
EndSplineSet
EndChar

StartChar: J
Encoding: 74 74 45
Width: 359
GlyphClass: 2
Flags: W
LayerCount: 2
Fore
SplineSet
113 59 m 2,0,-1
 113 635 l 1,1,-1
 26 645 l 1,2,-1
 26 668 l 1,3,-1
 333 668 l 1,4,-1
 333 645 l 1,5,-1
 246 635 l 1,6,-1
 246 49 l 2,7,8
 246 -98 246 -98 182.5 -172.5 c 128,-1,9
 119 -247 119 -247 8 -247 c 0,10,11
 -72 -247 -72 -247 -119.5 -221.5 c 128,-1,12
 -167 -196 -167 -196 -167 -147.5 c 128,-1,13
 -167 -99 -167 -99 -132 -79 c 0,14,15
 -113 -69 -113 -69 -93.5 -69 c 128,-1,16
 -74 -69 -74 -69 -54 -78 c 1,17,18
 -59 -112 -59 -112 -59 -140 c 128,-1,19
 -59 -168 -59 -168 -42.5 -192.5 c 128,-1,20
 -26 -217 -26 -217 1 -217 c 128,-1,21
 28 -217 28 -217 45.5 -207 c 128,-1,22
 63 -197 63 -197 74 -182.5 c 128,-1,23
 85 -168 85 -168 92.5 -143 c 128,-1,24
 100 -118 100 -118 104 -97.5 c 128,-1,25
 108 -77 108 -77 110 -44 c 0,26,27
 113 6 113 6 113 59 c 2,0,-1
EndSplineSet
EndChar

StartChar: K
Encoding: 75 75 46
Width: 737
GlyphClass: 2
Flags: W
LayerCount: 2
Fore
SplineSet
486 668 m 1,0,-1
 689 668 l 1,1,-1
 689 645 l 1,2,-1
 607 618 l 1,3,-1
 342 378 l 1,4,-1
 676 34 l 1,5,-1
 756 28 l 1,6,-1
 756 0 l 1,7,-1
 436 0 l 1,8,-1
 436 26 l 1,9,-1
 507 33 l 1,10,-1
 253 304 l 1,11,-1
 253 33 l 1,12,-1
 340 24 l 1,13,-1
 340 0 l 1,14,-1
 33 0 l 1,15,-1
 33 24 l 1,16,-1
 120 33 l 1,17,-1
 120 635 l 1,18,-1
 33 644 l 1,19,-1
 33 668 l 1,20,-1
 340 668 l 1,21,-1
 340 644 l 1,22,-1
 253 635 l 1,23,-1
 253 349 l 1,24,-1
 557 622 l 1,25,-1
 486 644 l 1,26,-1
 486 668 l 1,0,-1
EndSplineSet
EndChar

StartChar: L
Encoding: 76 76 47
Width: 594
GlyphClass: 2
Flags: W
LayerCount: 2
Fore
SplineSet
340 668 m 1,0,-1
 340 645 l 1,1,-1
 253 635 l 1,2,-1
 253 32 l 1,3,-1
 502 35 l 1,4,-1
 554 149 l 1,5,-1
 586 149 l 1,6,-1
 574 0 l 1,7,-1
 33 0 l 1,8,-1
 33 24 l 1,9,-1
 120 33 l 1,10,-1
 120 635 l 1,11,-1
 33 645 l 1,12,-1
 33 668 l 1,13,-1
 340 668 l 1,0,-1
EndSplineSet
EndChar

StartChar: M
Encoding: 77 77 48
Width: 923
GlyphClass: 2
Flags: W
LayerCount: 2
Fore
SplineSet
893 0 m 1,0,-1
 612 0 l 1,1,-1
 612 24 l 1,2,-1
 688 33 l 1,3,-1
 662 546 l 1,4,-1
 461 0 l 1,5,-1
 408 0 l 1,6,-1
 168 541 l 1,7,-1
 149 49 l 1,8,-1
 233 24 l 1,9,-1
 233 0 l 1,10,-1
 28 0 l 1,11,-1
 28 24 l 1,12,-1
 111 53 l 1,13,-1
 131 635 l 1,14,-1
 46 645 l 1,15,-1
 46 668 l 1,16,-1
 245 668 l 1,17,-1
 471 141 l 1,18,-1
 666 668 l 1,19,-1
 879 668 l 1,20,-1
 880 645 l 1,21,-1
 794 635 l 1,22,-1
 816 33 l 1,23,-1
 893 24 l 1,24,-1
 893 0 l 1,0,-1
EndSplineSet
EndChar

StartChar: N
Encoding: 78 78 49
Width: 785
GlyphClass: 2
Flags: W
LayerCount: 2
Fore
SplineSet
542 668 m 1,0,-1
 744 668 l 1,1,-1
 744 644 l 1,2,-1
 674 620 l 1,3,-1
 674 0 l 1,4,-1
 606 0 l 1,5,-1
 161 548 l 1,6,-1
 161 49 l 1,7,-1
 245 24 l 1,8,-1
 245 0 l 1,9,-1
 45 0 l 1,10,-1
 45 24 l 1,11,-1
 118 49 l 1,12,-1
 118 635 l 1,13,-1
 31 644 l 1,14,-1
 31 668 l 1,15,-1
 219 668 l 1,16,-1
 619 170 l 1,17,-1
 619 621 l 1,18,-1
 542 644 l 1,19,-1
 542 668 l 1,0,-1
EndSplineSet
EndChar

StartChar: O
Encoding: 79 79 50
Width: 778
GlyphClass: 2
Flags: W
LayerCount: 2
Fore
SplineSet
641.5 87.5 m 128,-1,1
 548 -11 548 -11 389.5 -11 c 128,-1,2
 231 -11 231 -11 137.5 87.5 c 128,-1,3
 44 186 44 186 44 336 c 128,-1,4
 44 486 44 486 137.5 584.5 c 128,-1,5
 231 683 231 683 389.5 683 c 128,-1,6
 548 683 548 683 641.5 584.5 c 128,-1,7
 735 486 735 486 735 336 c 128,-1,0
 735 186 735 186 641.5 87.5 c 128,-1,1
391 20 m 0,8,9
 583 20 583 20 583 336 c 0,10,11
 583 488 583 488 539.5 570 c 128,-1,12
 496 652 496 652 390 652 c 128,-1,13
 284 652 284 652 239.5 570 c 128,-1,14
 195 488 195 488 195 336 c 0,15,16
 195 20 195 20 391 20 c 0,8,9
EndSplineSet
EndChar

StartChar: P
Encoding: 80 80 51
Width: 605
GlyphClass: 2
Flags: W
LayerCount: 2
Fore
SplineSet
585 501 m 0,0,1
 585 445 585 445 560 405 c 128,-1,2
 535 365 535 365 492 344 c 0,3,4
 413 306 413 306 301 306 c 0,5,6
 282 306 282 306 248 308 c 1,7,-1
 248 33 l 1,8,-1
 324 24 l 1,9,-1
 324 0 l 1,10,-1
 41 0 l 1,11,-1
 41 24 l 1,12,-1
 116 33 l 1,13,-1
 116 637 l 1,14,-1
 30 647 l 1,15,-1
 30 670 l 1,16,-1
 229 670 l 1,17,-1
 346 673 l 1,18,19
 470 672 470 672 527.5 629 c 128,-1,20
 585 586 585 586 585 501 c 0,0,1
276 337 m 0,21,22
 358 337 358 337 402 381.5 c 128,-1,23
 446 426 446 426 446 500 c 128,-1,24
 446 574 446 574 415 608.5 c 128,-1,25
 384 643 384 643 317 643 c 0,26,27
 270 643 270 643 248 639 c 1,28,-1
 248 339 l 1,29,30
 266 337 266 337 276 337 c 0,21,22
EndSplineSet
EndChar

StartChar: Q
Encoding: 81 81 52
Width: 779
GlyphClass: 2
Flags: W
LayerCount: 2
Fore
SplineSet
288 -90 m 1,0,1
 320 -77 320 -77 372.5 -77 c 128,-1,2
 425 -77 425 -77 527.5 -116.5 c 128,-1,3
 630 -156 630 -156 664 -156 c 0,4,5
 713 -156 713 -156 743 -98 c 1,6,-1
 766 -108 l 1,7,8
 722 -229 722 -229 605 -229 c 0,9,10
 539 -229 539 -229 382.5 -174.5 c 128,-1,11
 226 -120 226 -120 156 -120 c 1,12,-1
 159 -105 l 1,13,14
 267 -77 267 -77 374 -13 c 1,15,16
 221 -7 221 -7 132.5 90 c 128,-1,17
 44 187 44 187 44 335 c 128,-1,18
 44 483 44 483 137.5 581.5 c 128,-1,19
 231 680 231 680 389.5 680 c 128,-1,20
 548 680 548 680 641.5 581.5 c 128,-1,21
 735 483 735 483 735 338 c 128,-1,22
 735 193 735 193 653 97 c 128,-1,23
 571 1 571 1 431 -12 c 1,24,25
 343 -64 343 -64 287 -88 c 1,26,-1
 288 -90 l 1,0,1
391 17 m 0,27,28
 583 17 583 17 583 333 c 0,29,30
 583 485 583 485 539.5 567 c 128,-1,31
 496 649 496 649 390 649 c 128,-1,32
 284 649 284 649 239.5 567 c 128,-1,33
 195 485 195 485 195 333 c 0,34,35
 195 17 195 17 391 17 c 0,27,28
EndSplineSet
EndChar

StartChar: R
Encoding: 82 82 53
Width: 668
GlyphClass: 2
Flags: W
LayerCount: 2
Fore
SplineSet
249 349 m 1,0,-1
 283 349 l 2,1,2
 443 349 443 349 443 502 c 0,3,4
 443 576 443 576 412 609.5 c 128,-1,5
 381 643 381 643 314 643 c 0,6,7
 271 643 271 643 249 639 c 1,8,-1
 249 349 l 1,0,-1
232 670 m 1,9,-1
 344 673 l 1,10,11
 582 673 582 673 582 502 c 0,12,13
 582 426 582 426 528 378 c 128,-1,14
 474 330 474 330 389 330 c 2,15,-1
 366 330 l 1,16,17
 480 315 480 315 522.5 261 c 128,-1,18
 565 207 565 207 565 97 c 0,19,20
 565 29 565 29 593 14 c 0,21,22
 603 8 603 8 622.5 8 c 128,-1,23
 642 8 642 8 676 24 c 1,24,-1
 677 0 l 1,25,26
 623 -23 623 -23 567 -23 c 0,27,28
 455 -23 455 -23 432 61 c 1,29,30
 424 96 424 96 424 148.5 c 128,-1,31
 424 201 424 201 417.5 229.5 c 128,-1,32
 411 258 411 258 398 276 c 0,33,34
 369 320 369 320 289 320 c 2,35,-1
 249 320 l 1,36,-1
 249 33 l 1,37,-1
 325 24 l 1,38,-1
 325 0 l 1,39,-1
 43 0 l 1,40,-1
 43 24 l 1,41,-1
 117 32 l 1,42,-1
 117 637 l 1,43,-1
 31 649 l 1,44,-1
 31 674 l 1,45,46
 115 670 115 670 182 670 c 2,47,-1
 232 670 l 1,9,-1
EndSplineSet
EndChar

StartChar: S
Encoding: 83 83 54
Width: 574
GlyphClass: 2
Flags: W
LayerCount: 2
Fore
SplineSet
76 34 m 0,0,1
 34 61 34 61 34 103 c 0,2,3
 34 161 34 161 126 175 c 1,4,5
 142 82 142 82 194 46 c 0,6,7
 240 14 240 14 291.5 14 c 128,-1,8
 343 14 343 14 380.5 45.5 c 128,-1,9
 418 77 418 77 418 149 c 0,10,11
 418 203 418 203 379.5 234.5 c 128,-1,12
 341 266 341 266 282 290 c 128,-1,13
 223 314 223 314 202 323.5 c 128,-1,14
 181 333 181 333 148.5 352 c 128,-1,15
 116 371 116 371 100 388 c 0,16,17
 60 434 60 434 60 494 c 0,18,19
 60 588 60 588 130 636 c 128,-1,20
 200 684 200 684 325 684 c 0,21,22
 396 684 396 684 490 668 c 1,23,-1
 490 520 l 1,24,-1
 457 520 l 1,25,-1
 417 638 l 1,26,27
 367 654 367 654 315.5 654 c 128,-1,28
 264 654 264 654 226 621.5 c 128,-1,29
 188 589 188 589 188 525 c 0,30,31
 188 452 188 452 254 416 c 0,32,33
 287 399 287 399 332 382 c 128,-1,34
 377 365 377 365 397 356.5 c 128,-1,35
 417 348 417 348 450 329.5 c 128,-1,36
 483 311 483 311 499 293 c 128,-1,37
 515 275 515 275 528 245.5 c 128,-1,38
 541 216 541 216 541 181 c 0,39,40
 541 96 541 96 469 42 c 128,-1,41
 397 -12 397 -12 272.5 -12 c 128,-1,42
 148 -12 148 -12 76 34 c 0,0,1
EndSplineSet
EndChar

StartChar: T
Encoding: 84 84 55
Width: 638
GlyphClass: 2
Flags: W
LayerCount: 2
Fore
SplineSet
623 517 m 1,0,-1
 593 517 l 1,1,-1
 546 632 l 1,2,-1
 385 634 l 1,3,-1
 385 33 l 1,4,-1
 478 24 l 1,5,-1
 478 0 l 1,6,-1
 159 0 l 1,7,-1
 159 24 l 1,8,-1
 252 33 l 1,9,-1
 252 634 l 1,10,-1
 91 632 l 1,11,-1
 44 517 l 1,12,-1
 15 517 l 1,13,-1
 15 668 l 1,14,-1
 319 670 l 1,15,-1
 623 668 l 1,16,-1
 623 517 l 1,0,-1
EndSplineSet
EndChar

StartChar: U
Encoding: 85 85 56
Width: 731
GlyphClass: 2
Flags: W
LayerCount: 2
Fore
SplineSet
628 234 m 2,0,1
 628 159 628 159 607 113.5 c 128,-1,2
 586 68 586 68 560.5 44 c 128,-1,3
 535 20 535 20 491 4 c 128,-1,4
 447 -12 447 -12 388 -12 c 0,5,6
 244 -12 244 -12 173.5 43.5 c 128,-1,7
 103 99 103 99 103 220 c 2,8,-1
 103 635 l 1,9,-1
 19 644 l 1,10,-1
 19 668 l 1,11,-1
 323 668 l 1,12,-1
 323 644 l 1,13,-1
 236 635 l 1,14,-1
 236 240 l 2,15,16
 236 128 236 128 275 75.5 c 128,-1,17
 314 23 314 23 404 23 c 128,-1,18
 494 23 494 23 537 72.5 c 128,-1,19
 580 122 580 122 580 243 c 2,20,-1
 580 629 l 1,21,-1
 506 639 l 1,22,-1
 506 668 l 1,23,-1
 709 668 l 1,24,-1
 709 637 l 1,25,-1
 628 629 l 1,26,-1
 628 234 l 2,0,1
EndSplineSet
EndChar

StartChar: V
Encoding: 86 86 57
Width: 678
GlyphClass: 2
Flags: W
LayerCount: 2
Fore
SplineSet
-29 668 m 1,0,-1
 265 668 l 1,1,-1
 265 644 l 1,2,-1
 186 635 l 1,3,-1
 384 137 l 1,4,-1
 574 618 l 1,5,-1
 486 644 l 1,6,-1
 486 668 l 1,7,-1
 695 668 l 1,8,-1
 695 644 l 1,9,-1
 619 617 l 1,10,-1
 371 -6 l 1,11,-1
 311 -6 l 1,12,-1
 48 635 l 1,13,-1
 -29 644 l 1,14,-1
 -29 668 l 1,0,-1
EndSplineSet
EndChar

StartChar: W
Encoding: 87 87 58
Width: 1050
GlyphClass: 2
Flags: W
LayerCount: 2
Fore
SplineSet
-32 668 m 1,0,-1
 258 668 l 1,1,-1
 258 644 l 1,2,-1
 183 635 l 1,3,-1
 381 137 l 1,4,-1
 506 451 l 1,5,-1
 431 635 l 1,6,-1
 357 644 l 1,7,-1
 357 668 l 1,8,-1
 647 668 l 1,9,-1
 647 644 l 1,10,-1
 568 635 l 1,11,-1
 766 137 l 1,12,-1
 942 618 l 1,13,-1
 854 644 l 1,14,-1
 854 668 l 1,15,-1
 1063 668 l 1,16,-1
 1063 644 l 1,17,-1
 987 617 l 1,18,-1
 753 -6 l 1,19,-1
 693 -6 l 1,20,-1
 528 396 l 1,21,-1
 368 -6 l 1,22,-1
 308 -6 l 1,23,-1
 45 635 l 1,24,-1
 -32 644 l 1,25,-1
 -32 668 l 1,0,-1
EndSplineSet
EndChar

StartChar: X
Encoding: 88 88 59
Width: 724
GlyphClass: 2
Flags: W
LayerCount: 2
Fore
SplineSet
483 668 m 1,0,-1
 705 668 l 1,1,-1
 705 638 l 1,2,-1
 626 616 l 1,3,-1
 421 358 l 1,4,-1
 650 33 l 1,5,-1
 731 24 l 1,6,-1
 731 0 l 1,7,-1
 410 0 l 1,8,-1
 410 24 l 1,9,-1
 491 33 l 1,10,-1
 328 276 l 1,11,-1
 155 51 l 1,12,-1
 241 30 l 1,13,-1
 241 0 l 1,14,-1
 16 0 l 1,15,-1
 16 30 l 1,16,-1
 91 50 l 1,17,-1
 303 316 l 1,18,-1
 63 635 l 1,19,-1
 -9 644 l 1,20,-1
 -9 668 l 1,21,-1
 285 668 l 1,22,-1
 285 645 l 1,23,-1
 215 636 l 1,24,-1
 394 395 l 1,25,-1
 567 616 l 1,26,-1
 483 638 l 1,27,-1
 483 668 l 1,0,-1
EndSplineSet
EndChar

StartChar: Y
Encoding: 89 89 60
Width: 657
GlyphClass: 2
Flags: W
LayerCount: 2
Fore
SplineSet
487 0 m 1,0,-1
 180 0 l 1,1,-1
 180 24 l 1,2,-1
 267 33 l 1,3,-1
 267 287 l 1,4,-1
 39 635 l 1,5,-1
 -37 644 l 1,6,-1
 -37 668 l 1,7,-1
 263 668 l 1,8,-1
 263 644 l 1,9,-1
 186 635 l 1,10,-1
 376 339 l 1,11,-1
 539 621 l 1,12,-1
 464 644 l 1,13,-1
 464 668 l 1,14,-1
 667 668 l 1,15,-1
 667 644 l 1,16,-1
 591 620 l 1,17,-1
 400 295 l 1,18,-1
 400 33 l 1,19,-1
 487 24 l 1,20,-1
 487 0 l 1,0,-1
EndSplineSet
EndChar

StartChar: Z
Encoding: 90 90 61
Width: 672
GlyphClass: 2
Flags: W
LayerCount: 2
Fore
SplineSet
49 521 m 1,0,-1
 49 668 l 1,1,-1
 631 670 l 1,2,-1
 631 639 l 1,3,-1
 199 51 l 1,4,-1
 560 49 l 1,5,-1
 595 159 l 1,6,-1
 628 159 l 1,7,-1
 628 13 l 1,8,-1
 35 11 l 1,9,-1
 35 39 l 1,10,-1
 471 630 l 1,11,-1
 117 632 l 1,12,-1
 82 521 l 1,13,-1
 49 521 l 1,0,-1
EndSplineSet
EndChar

StartChar: bracketleft
Encoding: 91 91 62
Width: 351
GlyphClass: 2
Flags: W
LayerCount: 2
Fore
SplineSet
84 801 m 1,0,-1
 339 801 l 1,1,-1
 339 727 l 1,2,-1
 181 727 l 1,3,-1
 181 -216 l 1,4,-1
 340 -216 l 1,5,-1
 340 -290 l 1,6,-1
 84 -290 l 1,7,-1
 84 801 l 1,0,-1
EndSplineSet
EndChar

StartChar: backslash
Encoding: 92 92 63
Width: 368
GlyphClass: 2
Flags: W
LayerCount: 2
Fore
SplineSet
326 0 m 1,0,-1
 243 0 l 1,1,-1
 42 668 l 1,2,-1
 125 668 l 1,3,-1
 326 0 l 1,0,-1
EndSplineSet
EndChar

StartChar: bracketright
Encoding: 93 93 64
Width: 351
GlyphClass: 2
Flags: W
LayerCount: 2
Fore
SplineSet
12 801 m 1,0,-1
 267 801 l 1,1,-1
 267 -290 l 1,2,-1
 11 -290 l 1,3,-1
 11 -216 l 1,4,-1
 170 -216 l 1,5,-1
 170 727 l 1,6,-1
 12 727 l 1,7,-1
 12 801 l 1,0,-1
EndSplineSet
EndChar

StartChar: asciicircum
Encoding: 94 94 65
Width: 428
GlyphClass: 2
Flags: W
LayerCount: 2
Fore
SplineSet
52 555 m 1,0,-1
 183 741 l 1,1,-1
 245 741 l 1,2,-1
 375 555 l 1,3,-1
 344 536 l 1,4,-1
 214 652 l 1,5,-1
 83 536 l 1,6,-1
 52 555 l 1,0,-1
EndSplineSet
EndChar

StartChar: underscore
Encoding: 95 95 66
Width: 622
GlyphClass: 2
Flags: W
LayerCount: 2
Fore
SplineSet
561 -159 m 1,0,-1
 61 -159 l 1,1,-1
 61 -100 l 1,2,-1
 561 -100 l 1,3,-1
 561 -159 l 1,0,-1
EndSplineSet
EndChar

StartChar: grave
Encoding: 96 96 67
Width: 399
GlyphClass: 2
Flags: W
LayerCount: 2
Fore
SplineSet
95 696 m 0,0,1
 95 720 95 720 150 763 c 1,2,3
 256 621 256 621 286 578 c 1,4,5
 278 567 278 567 262 551 c 1,6,7
 202 592 202 592 112 666 c 0,8,9
 95 680 95 680 95 696 c 0,0,1
EndSplineSet
EndChar

StartChar: a
Encoding: 97 97 68
Width: 520
GlyphClass: 2
Flags: W
LayerCount: 2
Fore
SplineSet
320 234 m 1,0,1
 204 234 204 234 174 173 c 0,2,3
 161 147 161 147 161 108 c 0,4,5
 161 41 161 41 207 30 c 0,6,7
 214 28 214 28 222 28 c 0,8,9
 254 28 254 28 286 61.5 c 128,-1,10
 318 95 318 95 320 148 c 1,11,-1
 320 234 l 1,0,1
160 332 m 1,12,13
 138 317 138 317 114 317 c 128,-1,14
 90 317 90 317 73 333 c 128,-1,15
 56 349 56 349 56 380.5 c 128,-1,16
 56 412 56 412 75 437 c 128,-1,17
 94 462 94 462 124 474 c 0,18,19
 183 499 183 499 236 499 c 0,20,21
 354 499 354 499 397 457.5 c 128,-1,22
 440 416 440 416 440 330 c 2,23,-1
 440 29 l 1,24,-1
 524 23 l 1,25,-1
 524 1 l 1,26,-1
 333 -11 l 1,27,-1
 324 73 l 1,28,29
 277 -12 277 -12 162 -12 c 0,30,31
 110 -12 110 -12 72.5 19.5 c 128,-1,32
 35 51 35 51 35 108 c 0,33,34
 36 184 36 184 111 222.5 c 128,-1,35
 186 261 186 261 320 261 c 1,36,-1
 320 347 l 2,37,38
 320 408 320 408 303 441 c 128,-1,39
 286 474 286 474 240 474 c 128,-1,40
 194 474 194 474 171 436 c 0,41,42
 156 411 156 411 156 383 c 128,-1,43
 156 355 156 355 160 332 c 1,12,13
EndSplineSet
EndChar

StartChar: b
Encoding: 98 98 69
Width: 609
GlyphClass: 2
Flags: W
LayerCount: 2
Fore
SplineSet
200 602 m 2,0,1
 200 456 200 456 198 419 c 1,2,3
 252 499 252 499 362 499 c 0,4,5
 450 499 450 499 509.5 441.5 c 128,-1,6
 569 384 569 384 569 259.5 c 128,-1,7
 569 135 569 135 499.5 61.5 c 128,-1,8
 430 -12 430 -12 301 -12 c 0,9,10
 273 -12 273 -12 236.5 -1.5 c 128,-1,11
 200 9 200 9 177 27 c 1,12,-1
 73 -19 l 1,13,-1
 73 713 l 1,14,-1
 -13 718 l 1,15,-1
 -13 743 l 1,16,-1
 200 768 l 1,17,-1
 200 602 l 2,0,1
303 18 m 0,18,19
 336 18 336 18 360 34 c 128,-1,20
 384 50 384 50 397 74 c 128,-1,21
 410 98 410 98 418 135 c 0,22,23
 429 192 429 192 429 278 c 0,24,25
 429 468 429 468 332 468 c 0,26,27
 281 468 281 468 241.5 429 c 128,-1,28
 202 390 202 390 200 351 c 1,29,-1
 202 55 l 1,30,31
 240 18 240 18 303 18 c 0,18,19
EndSplineSet
EndChar

StartChar: c
Encoding: 99 99 70
Width: 509
GlyphClass: 2
Flags: W
LayerCount: 2
Fore
SplineSet
374 326 m 1,0,1
 379 346 379 346 379 371.5 c 128,-1,2
 379 397 379 397 364 424 c 1,3,4
 342 468 342 468 297 468 c 0,5,6
 177 468 177 468 177 242.5 c 128,-1,7
 177 17 177 17 300 17 c 0,8,9
 393 17 393 17 449 107 c 1,10,11
 471 100 471 100 471 85.5 c 128,-1,12
 471 71 471 71 452.5 49.5 c 128,-1,13
 434 28 434 28 388.5 8.5 c 128,-1,14
 343 -11 343 -11 284 -11 c 0,15,16
 171 -11 171 -11 105.5 58.5 c 128,-1,17
 40 128 40 128 40 244.5 c 128,-1,18
 40 361 40 361 108 430 c 128,-1,19
 176 499 176 499 299 499 c 0,20,21
 337 499 337 499 374 489.5 c 128,-1,22
 411 480 411 480 444 449 c 128,-1,23
 477 418 477 418 477 374.5 c 128,-1,24
 477 331 477 331 438 318 c 0,25,26
 424 313 424 313 407 313 c 128,-1,27
 390 313 390 313 374 326 c 1,0,1
EndSplineSet
EndChar

StartChar: d
Encoding: 100 100 71
Width: 633
GlyphClass: 2
Flags: W
LayerCount: 2
Fore
SplineSet
251 -15 m 0,0,1
 160 -15 160 -15 100 46 c 128,-1,2
 40 107 40 107 40 230 c 128,-1,3
 40 353 40 353 111.5 424 c 128,-1,4
 183 495 183 495 302 495 c 0,5,6
 364 495 364 495 419 466 c 1,7,-1
 419 720 l 1,8,-1
 333 726 l 1,9,-1
 333 751 l 1,10,-1
 547 768 l 1,11,-1
 547 23 l 1,12,-1
 632 19 l 1,13,-1
 633 -4 l 1,14,-1
 424 -16 l 1,15,-1
 426 74 l 1,16,-1
 420 74 l 1,17,18
 395 32 395 32 349 8.5 c 128,-1,19
 303 -15 303 -15 251 -15 c 0,0,1
418 154 m 2,20,-1
 418 429 l 1,21,22
 378 466 378 466 316 466 c 0,23,24
 237 466 237 466 208 393 c 1,25,26
 184 329 184 329 184 230 c 0,27,28
 184 17 184 17 279 17 c 0,29,30
 335 17 335 17 376.5 65 c 128,-1,31
 418 113 418 113 418 154 c 2,20,-1
EndSplineSet
EndChar

StartChar: e
Encoding: 101 101 72
Width: 536
GlyphClass: 2
Flags: W
LayerCount: 2
Fore
SplineSet
373 349 m 0,0,1
 373 471 373 471 288 471 c 0,2,3
 199 471 199 471 180 315 c 1,4,-1
 371 315 l 1,5,6
 373 335 373 335 373 349 c 0,0,1
279 -11 m 0,7,8
 172 -11 172 -11 105.5 59 c 128,-1,9
 39 129 39 129 39 244 c 128,-1,10
 39 359 39 359 108.5 429 c 128,-1,11
 178 499 178 499 285 499 c 128,-1,12
 392 499 392 499 445 453.5 c 128,-1,13
 498 408 498 408 498 327 c 0,14,15
 498 304 498 304 494 279 c 1,16,-1
 177 279 l 1,17,-1
 177 244 l 2,18,19
 177 132 177 132 205 74.5 c 128,-1,20
 233 17 233 17 289.5 17 c 128,-1,21
 346 17 346 17 392.5 40.5 c 128,-1,22
 439 64 439 64 465 107 c 1,23,24
 487 100 487 100 487 86 c 0,25,26
 487 61 487 61 440 28 c 0,27,28
 417 12 417 12 374.5 0.5 c 128,-1,29
 332 -11 332 -11 279 -11 c 0,7,8
EndSplineSet
EndChar

StartChar: f
Encoding: 102 102 73
Width: 381
GlyphClass: 2
Flags: W
LayerCount: 2
Fore
SplineSet
371 617 m 1,0,1
 377 643 377 643 377 670.5 c 128,-1,2
 377 698 377 698 361.5 720 c 128,-1,3
 346 742 346 742 322.5 742 c 128,-1,4
 299 742 299 742 285 736 c 128,-1,5
 271 730 271 730 261 716 c 128,-1,6
 251 702 251 702 244 689 c 128,-1,7
 237 676 237 676 232.5 652.5 c 128,-1,8
 228 629 228 629 225.5 613.5 c 128,-1,9
 223 598 223 598 222 570 c 128,-1,10
 221 542 221 542 221 528 c 2,11,-1
 221 488 l 1,12,-1
 371 488 l 1,13,-1
 371 462 l 1,14,-1
 221 462 l 1,15,-1
 221 29 l 1,16,-1
 333 23 l 1,17,-1
 333 0 l 1,18,-1
 27 0 l 1,19,-1
 27 23 l 1,20,-1
 93 29 l 1,21,-1
 93 462 l 1,22,-1
 24 462 l 1,23,-1
 24 488 l 1,24,-1
 93 488 l 1,25,-1
 93 503 l 2,26,27
 93 636 93 636 152.5 702.5 c 128,-1,28
 212 769 212 769 323 769 c 0,29,30
 392 769 392 769 434.5 746.5 c 128,-1,31
 477 724 477 724 477 675 c 0,32,33
 477 639 477 639 441 620 c 0,34,35
 422 609 422 609 404.5 609 c 128,-1,36
 387 609 387 609 371 617 c 1,0,1
EndSplineSet
EndChar

StartChar: g
Encoding: 103 103 74
Width: 530
GlyphClass: 2
Flags: W
LayerCount: 2
Fore
SplineSet
336 494 m 1,0,1
 381 511 381 511 381 586 c 0,2,3
 381 606 381 606 376 623 c 1,4,5
 393 635 393 635 410 635 c 128,-1,6
 427 635 427 635 442 629 c 0,7,8
 478 614 478 614 478 578.5 c 128,-1,9
 478 543 478 543 447.5 517 c 128,-1,10
 417 491 417 491 364 484 c 1,11,12
 424 464 424 464 456 421.5 c 128,-1,13
 488 379 488 379 488 316.5 c 128,-1,14
 488 254 488 254 426 200.5 c 128,-1,15
 364 147 364 147 277 147 c 128,-1,16
 190 147 190 147 190 100 c 0,17,18
 190 77 190 77 222.5 68.5 c 128,-1,19
 255 60 255 60 351 51.5 c 128,-1,20
 447 43 447 43 496 15.5 c 128,-1,21
 545 -12 545 -12 545 -72 c 0,22,23
 545 -150 545 -150 468.5 -205 c 128,-1,24
 392 -260 392 -260 269.5 -260 c 128,-1,25
 147 -260 147 -260 89 -222.5 c 128,-1,26
 31 -185 31 -185 31 -123 c 0,27,28
 31 -83 31 -83 60 -46 c 128,-1,29
 89 -9 89 -9 145 6 c 1,30,31
 75 32 75 32 75 79 c 0,32,33
 75 112 75 112 109 133 c 128,-1,34
 143 154 143 154 185 155 c 1,35,36
 118 173 118 173 81.5 217.5 c 128,-1,37
 45 262 45 262 45 322 c 0,38,39
 45 399 45 399 106 449 c 128,-1,40
 167 499 167 499 270 499 c 0,41,42
 306 499 306 499 336 494 c 1,0,1
138 -112 m 0,43,44
 138 -167 138 -167 171 -197.5 c 128,-1,45
 204 -228 204 -228 270.5 -228 c 128,-1,46
 337 -228 337 -228 386.5 -193 c 128,-1,47
 436 -158 436 -158 436.5 -110 c 128,-1,48
 437 -62 437 -62 409.5 -48 c 128,-1,49
 382 -34 382 -34 311 -25 c 1,50,-1
 299 -24 l 1,51,52
 220 -14 220 -14 189 -9 c 1,53,54
 167 -21 167 -21 152.5 -50 c 128,-1,55
 138 -79 138 -79 138 -112 c 0,43,44
263 167 m 0,56,57
 310 167 310 167 333 210 c 128,-1,58
 356 253 356 253 356 322 c 0,59,60
 356 477 356 477 270 477 c 0,61,62
 223 477 223 477 200 435.5 c 128,-1,63
 177 394 177 394 177 322 c 0,64,65
 177 167 177 167 263 167 c 0,56,57
EndSplineSet
EndChar

StartChar: h
Encoding: 104 104 75
Width: 624
GlyphClass: 2
Flags: W
LayerCount: 2
Fore
SplineSet
412 29 m 1,0,-1
 418 346 l 1,1,2
 418 405 418 405 403 432 c 128,-1,3
 388 459 388 459 343 459 c 128,-1,4
 298 459 298 459 254.5 404 c 128,-1,5
 211 349 211 349 211 309 c 2,6,-1
 211 29 l 1,7,-1
 286 23 l 1,8,-1
 286 0 l 1,9,-1
 18 0 l 1,10,-1
 18 23 l 1,11,-1
 84 29 l 1,12,-1
 84 718 l 1,13,-1
 -2 721 l 1,14,-1
 -2 745 l 1,15,-1
 212 768 l 1,16,-1
 212 544 l 2,17,18
 212 431 212 431 206 391 c 1,19,-1
 212 391 l 1,20,21
 239 441 239 441 285 468 c 128,-1,22
 331 495 331 495 384 495 c 0,23,24
 544 495 544 495 544 341 c 0,25,26
 544 230 544 230 537 29 c 1,27,-1
 606 23 l 1,28,-1
 606 0 l 1,29,-1
 364 0 l 1,30,-1
 364 23 l 1,31,-1
 412 29 l 1,0,-1
EndSplineSet
EndChar

StartChar: i
Encoding: 105 105 76
Width: 309
GlyphClass: 2
Flags: W
LayerCount: 2
Fore
SplineSet
291 0 m 1,0,-1
 33 0 l 1,1,-1
 33 23 l 1,2,-1
 98 29 l 1,3,-1
 98 455 l 1,4,-1
 12 460 l 1,5,-1
 12 481 l 1,6,-1
 226 494 l 1,7,-1
 226 29 l 1,8,-1
 291 23 l 1,9,-1
 291 0 l 1,0,-1
211.5 610 m 128,-1,11
 190 588 190 588 158 588 c 128,-1,12
 126 588 126 588 104.5 609.5 c 128,-1,13
 83 631 83 631 83 662.5 c 128,-1,14
 83 694 83 694 105 716.5 c 128,-1,15
 127 739 127 739 158 739 c 128,-1,16
 189 739 189 739 211 716 c 128,-1,17
 233 693 233 693 233 662.5 c 128,-1,10
 233 632 233 632 211.5 610 c 128,-1,11
EndSplineSet
EndChar

StartChar: j
Encoding: 106 106 77
Width: 292
GlyphClass: 2
Flags: W
LayerCount: 2
Fore
SplineSet
219 4 m 2,0,1
 219 -129 219 -129 159.5 -195.5 c 128,-1,2
 100 -262 100 -262 -11 -262 c 0,3,4
 -80 -262 -80 -262 -122.5 -239.5 c 128,-1,5
 -165 -217 -165 -217 -165 -168 c 0,6,7
 -165 -132 -165 -132 -129 -112 c 0,8,9
 -110 -102 -110 -102 -92.5 -102 c 128,-1,10
 -75 -102 -75 -102 -59 -110 c 1,11,12
 -65 -136 -65 -136 -65 -163.5 c 128,-1,13
 -65 -191 -65 -191 -49.5 -213 c 128,-1,14
 -34 -235 -34 -235 -8 -235 c 128,-1,15
 18 -235 18 -235 35 -224.5 c 128,-1,16
 52 -214 52 -214 62 -192.5 c 128,-1,17
 72 -171 72 -171 78.5 -150 c 128,-1,18
 85 -129 85 -129 88 -96 c 0,19,20
 91 -49 91 -49 91 13 c 2,21,-1
 91 455 l 1,22,-1
 5 460 l 1,23,-1
 5 481 l 1,24,-1
 219 494 l 1,25,-1
 219 4 l 2,0,1
205.5 610 m 128,-1,27
 184 588 184 588 152 588 c 128,-1,28
 120 588 120 588 98.5 609.5 c 128,-1,29
 77 631 77 631 77 662.5 c 128,-1,30
 77 694 77 694 99 716.5 c 128,-1,31
 121 739 121 739 152 739 c 128,-1,32
 183 739 183 739 205 716 c 128,-1,33
 227 693 227 693 227 662.5 c 128,-1,26
 227 632 227 632 205.5 610 c 128,-1,27
EndSplineSet
EndChar

StartChar: k
Encoding: 107 107 78
Width: 584
GlyphClass: 2
Flags: W
LayerCount: 2
Fore
SplineSet
359 488 m 1,0,-1
 555 488 l 1,1,-1
 555 462 l 1,2,-1
 481 443 l 1,3,-1
 297 289 l 1,4,-1
 519 30 l 1,5,-1
 586 23 l 1,6,-1
 586 0 l 1,7,-1
 331 0 l 1,8,-1
 331 23 l 1,9,-1
 387 29 l 1,10,-1
 211 231 l 1,11,-1
 211 30 l 1,12,-1
 266 23 l 1,13,-1
 266 0 l 1,14,-1
 18 0 l 1,15,-1
 18 23 l 1,16,-1
 83 29 l 1,17,-1
 83 720 l 1,18,-1
 -3 726 l 1,19,-1
 -3 751 l 1,20,-1
 211 768 l 1,21,-1
 211 259 l 1,22,-1
 424 443 l 1,23,-1
 359 462 l 1,24,-1
 359 488 l 1,0,-1
EndSplineSet
EndChar

StartChar: l
Encoding: 108 108 79
Width: 298
GlyphClass: 2
Flags: W
LayerCount: 2
Fore
SplineSet
278 0 m 1,0,-1
 20 0 l 1,1,-1
 20 23 l 1,2,-1
 85 29 l 1,3,-1
 85 718 l 1,4,-1
 -1 721 l 1,5,-1
 -1 745 l 1,6,-1
 213 768 l 1,7,-1
 213 29 l 1,8,-1
 278 23 l 1,9,-1
 278 0 l 1,0,-1
EndSplineSet
EndChar

StartChar: m
Encoding: 109 109 80
Width: 958
GlyphClass: 2
Flags: W
LayerCount: 2
Fore
SplineSet
421 29 m 1,0,-1
 427 346 l 1,1,2
 427 405 427 405 412.5 432 c 128,-1,3
 398 459 398 459 354.5 459 c 128,-1,4
 311 459 311 459 269 406.5 c 128,-1,5
 227 354 227 354 224 312 c 1,6,-1
 224 29 l 1,7,-1
 299 23 l 1,8,-1
 299 0 l 1,9,-1
 31 0 l 1,10,-1
 31 23 l 1,11,-1
 97 29 l 1,12,-1
 97 455 l 1,13,-1
 15 459 l 1,14,-1
 15 480 l 1,15,-1
 220 492 l 1,16,-1
 215 390 l 1,17,-1
 225 390 l 1,18,19
 282 495 282 495 393 495 c 0,20,21
 526 495 526 495 548 390 c 1,22,23
 575 440 575 440 620 467.5 c 128,-1,24
 665 495 665 495 718 495 c 0,25,26
 878 495 878 495 878 341 c 0,27,28
 878 297 878 297 871 29 c 1,29,-1
 940 23 l 1,30,-1
 940 0 l 1,31,-1
 698 0 l 1,32,-1
 698 23 l 1,33,-1
 746 29 l 1,34,-1
 752 346 l 1,35,36
 752 405 752 405 737 432 c 128,-1,37
 722 459 722 459 681.5 459 c 128,-1,38
 641 459 641 459 605 421 c 128,-1,39
 569 383 569 383 553 339 c 1,40,41
 553 295 553 295 546 29 c 1,42,-1
 615 23 l 1,43,-1
 615 0 l 1,44,-1
 373 0 l 1,45,-1
 373 23 l 1,46,-1
 421 29 l 1,0,-1
EndSplineSet
EndChar

StartChar: n
Encoding: 110 110 81
Width: 637
GlyphClass: 2
Flags: W
LayerCount: 2
Fore
SplineSet
425 29 m 1,0,-1
 431 346 l 1,1,2
 431 405 431 405 416 432 c 128,-1,3
 401 459 401 459 356 459 c 128,-1,4
 311 459 311 459 268.5 405.5 c 128,-1,5
 226 352 226 352 224 313 c 1,6,-1
 224 29 l 1,7,-1
 299 23 l 1,8,-1
 299 0 l 1,9,-1
 31 0 l 1,10,-1
 31 23 l 1,11,-1
 97 29 l 1,12,-1
 97 455 l 1,13,-1
 15 459 l 1,14,-1
 15 480 l 1,15,-1
 220 492 l 1,16,-1
 215 390 l 1,17,-1
 225 390 l 1,18,19
 252 440 252 440 298 467.5 c 128,-1,20
 344 495 344 495 397 495 c 0,21,22
 557 495 557 495 557 341 c 0,23,24
 557 230 557 230 550 29 c 1,25,-1
 619 23 l 1,26,-1
 619 0 l 1,27,-1
 377 0 l 1,28,-1
 377 23 l 1,29,-1
 425 29 l 1,0,-1
EndSplineSet
EndChar

StartChar: o
Encoding: 111 111 82
Width: 600
GlyphClass: 2
Flags: W
LayerCount: 2
Fore
SplineSet
300 -11 m 128,-1,1
 179 -11 179 -11 109 61 c 128,-1,2
 39 133 39 133 39 244 c 128,-1,3
 39 355 39 355 109 427 c 128,-1,4
 179 499 179 499 300 499 c 128,-1,5
 421 499 421 499 491 427 c 128,-1,6
 561 355 561 355 561 244 c 128,-1,7
 561 133 561 133 491 61 c 128,-1,0
 421 -11 421 -11 300 -11 c 128,-1,1
300 13 m 128,-1,9
 422 13 422 13 422 244 c 0,10,11
 422 357 422 357 395 415.5 c 128,-1,12
 368 474 368 474 300 474 c 128,-1,13
 232 474 232 474 205 415.5 c 128,-1,14
 178 357 178 357 178 244 c 0,15,8
 178 13 178 13 300 13 c 128,-1,9
EndSplineSet
EndChar

StartChar: p
Encoding: 112 112 83
Width: 626
GlyphClass: 2
Flags: W
LayerCount: 2
Fore
SplineSet
379 499 m 0,0,1
 467 499 467 499 526.5 441.5 c 128,-1,2
 586 384 586 384 586 259.5 c 128,-1,3
 586 135 586 135 516.5 61.5 c 128,-1,4
 447 -12 447 -12 317 -12 c 0,5,6
 259 -12 259 -12 218 15 c 1,7,-1
 218 -221 l 1,8,-1
 287 -227 l 1,9,-1
 287 -250 l 1,10,-1
 29 -250 l 1,11,-1
 29 -227 l 1,12,-1
 90 -221 l 1,13,-1
 90 453 l 1,14,-1
 3 458 l 1,15,-1
 3 481 l 1,16,-1
 215 494 l 1,17,-1
 212 410 l 1,18,19
 267 499 267 499 379 499 c 0,0,1
218 345 m 2,20,-1
 218 51 l 1,21,22
 258 18 258 18 309 18 c 128,-1,23
 360 18 360 18 387 40.5 c 128,-1,24
 414 63 414 63 426 104 c 0,25,26
 447 171 447 171 447 278 c 0,27,28
 447 468 447 468 349 468 c 0,29,30
 297 468 297 468 257.5 426 c 128,-1,31
 218 384 218 384 218 345 c 2,20,-1
EndSplineSet
EndChar

StartChar: q
Encoding: 113 113 84
Width: 614
GlyphClass: 2
Flags: W
LayerCount: 2
Fore
SplineSet
244 -15 m 0,0,1
 158 -15 158 -15 99 46.5 c 128,-1,2
 40 108 40 108 40 230.5 c 128,-1,3
 40 353 40 353 111.5 424 c 128,-1,4
 183 495 183 495 302 495 c 0,5,6
 367 495 367 495 419 462 c 1,7,-1
 541 499 l 1,8,-1
 541 -221 l 1,9,-1
 616 -226 l 1,10,-1
 616 -250 l 1,11,-1
 358 -250 l 1,12,-1
 358 -226 l 1,13,-1
 414 -222 l 1,14,15
 418 43 418 43 420 72 c 1,16,-1
 412 72 l 1,17,18
 387 30 387 30 342 7.5 c 128,-1,19
 297 -15 297 -15 244 -15 c 0,0,1
412 150 m 2,20,-1
 412 428 l 1,21,22
 374 465 374 465 311 465 c 0,23,24
 234 465 234 465 206 392 c 0,25,26
 181 328 181 328 181 229 c 0,27,28
 181 16 181 16 275 16 c 0,29,30
 331 16 331 16 371.5 62.5 c 128,-1,31
 412 109 412 109 412 150 c 2,20,-1
EndSplineSet
EndChar

StartChar: r
Encoding: 114 114 85
Width: 433
GlyphClass: 2
Flags: W
LayerCount: 2
Fore
SplineSet
280.5 462 m 128,-1,1
 326 500 326 500 363.5 500 c 128,-1,2
 401 500 401 500 414 481.5 c 128,-1,3
 427 463 427 463 427 451 c 0,4,5
 427 410 427 410 397 392 c 1,6,7
 377 408 377 408 337.5 408 c 128,-1,8
 298 408 298 408 259 383.5 c 128,-1,9
 220 359 220 359 220 330 c 2,10,-1
 220 29 l 1,11,-1
 310 23 l 1,12,-1
 310 0 l 1,13,-1
 31 0 l 1,14,-1
 31 23 l 1,15,-1
 97 28 l 1,16,-1
 97 455 l 1,17,-1
 16 459 l 1,18,-1
 16 482 l 1,19,-1
 220 493 l 1,20,-1
 214 370 l 1,21,-1
 218 370 l 1,22,0
 235 424 235 424 280.5 462 c 128,-1,1
EndSplineSet
EndChar

StartChar: s
Encoding: 115 115 86
Width: 452
GlyphClass: 2
Flags: W
LayerCount: 2
Fore
SplineSet
225 14 m 0,0,1
 260 14 260 14 283 36.5 c 128,-1,2
 306 59 306 59 306 110 c 0,3,4
 306 151 306 151 272 172 c 0,5,6
 246 188 246 188 205.5 203.5 c 128,-1,7
 165 219 165 219 143.5 230 c 128,-1,8
 122 241 122 241 96 259 c 0,9,10
 45 295 45 295 45 357 c 128,-1,11
 45 419 45 419 96.5 459 c 128,-1,12
 148 499 148 499 247 499 c 0,13,14
 309 499 309 499 352 472.5 c 128,-1,15
 395 446 395 446 395 406 c 128,-1,16
 395 366 395 366 361 348 c 0,17,18
 345 340 345 340 329 340 c 1,19,-1
 293 351 l 1,20,21
 299 382 299 382 299 407.5 c 128,-1,22
 299 433 299 433 283 453.5 c 128,-1,23
 267 474 267 474 235 474 c 0,24,25
 157 474 157 474 157 380 c 0,26,27
 157 337 157 337 190 316 c 0,28,29
 215 299 215 299 254 285.5 c 128,-1,30
 293 272 293 272 315.5 262 c 128,-1,31
 338 252 338 252 364 234 c 0,32,33
 416 200 416 200 416 133.5 c 128,-1,34
 416 67 416 67 361 28 c 128,-1,35
 306 -11 306 -11 216 -11 c 0,36,37
 116 -11 116 -11 68 22 c 0,38,39
 40 42 40 42 40 71 c 128,-1,40
 40 100 40 100 59.5 118 c 128,-1,41
 79 136 79 136 114 137 c 1,42,43
 121 14 121 14 225 14 c 0,0,1
EndSplineSet
EndChar

StartChar: t
Encoding: 116 116 87
Width: 371
GlyphClass: 2
Flags: W
LayerCount: 2
Fore
SplineSet
214 -11 m 0,0,1
 118 -11 118 -11 92 56 c 0,2,3
 81 85 81 85 81 129 c 0,4,5
 81 295 81 295 86 462 c 1,6,-1
 18 462 l 1,7,-1
 18 488 l 1,8,-1
 87 488 l 1,9,-1
 88 635 l 1,10,-1
 216 635 l 1,11,-1
 213 488 l 1,12,-1
 353 488 l 1,13,-1
 353 462 l 1,14,-1
 213 462 l 1,15,-1
 211 381 l 2,16,17
 208 219 208 219 208 84 c 0,18,19
 208 45 208 45 216.5 31 c 128,-1,20
 225 17 225 17 247.5 17 c 128,-1,21
 270 17 270 17 297.5 48.5 c 128,-1,22
 325 80 325 80 337 124 c 1,23,24
 357 124 357 124 357 110 c 0,25,26
 357 107 357 107 356 103 c 0,27,28
 340 51 340 51 301.5 20 c 128,-1,29
 263 -11 263 -11 214 -11 c 0,0,1
EndSplineSet
EndChar

StartChar: u
Encoding: 117 117 88
Width: 625
GlyphClass: 2
Flags: W
LayerCount: 2
Fore
SplineSet
204 139 m 0,0,1
 204 80 204 80 218.5 53 c 128,-1,2
 233 26 233 26 277 26 c 128,-1,3
 321 26 321 26 364 81 c 128,-1,4
 407 136 407 136 407 176 c 2,5,-1
 407 456 l 1,6,-1
 328 460 l 1,7,-1
 328 483 l 1,8,-1
 535 496 l 1,9,-1
 535 32 l 1,10,-1
 616 28 l 1,11,-1
 616 5 l 1,12,-1
 411 -7 l 1,13,-1
 416 93 l 1,14,-1
 406 93 l 1,15,16
 348 -10 348 -10 238 -10 c 0,17,18
 78 -10 78 -10 78 144 c 128,-1,19
 78 298 78 298 89 456 c 1,20,-1
 15 460 l 1,21,-1
 15 483 l 1,22,-1
 214 494 l 1,23,24
 204 268 204 268 204 139 c 0,0,1
EndSplineSet
EndChar

StartChar: v
Encoding: 118 118 89
Width: 512
GlyphClass: 2
Flags: W
LayerCount: 2
Fore
SplineSet
324 488 m 1,0,-1
 516 488 l 1,1,-1
 516 464 l 1,2,-1
 445 443 l 1,3,-1
 283 0 l 1,4,-1
 229 0 l 1,5,-1
 42 457 l 1,6,-1
 -3 464 l 1,7,-1
 -3 488 l 1,8,-1
 223 488 l 1,9,-1
 223 464 l 1,10,-1
 164 457 l 1,11,-1
 292 132 l 1,12,-1
 403 443 l 1,13,-1
 324 463 l 1,14,-1
 324 488 l 1,0,-1
EndSplineSet
EndChar

StartChar: w
Encoding: 119 119 90
Width: 799
GlyphClass: 2
Flags: W
LayerCount: 2
Fore
SplineSet
635 488 m 1,0,-1
 803 488 l 1,1,-1
 803 462 l 1,2,-1
 742 443 l 1,3,-1
 572 0 l 1,4,-1
 532 0 l 1,5,-1
 410 289 l 1,6,-1
 296 0 l 1,7,-1
 231 0 l 1,8,-1
 38 457 l 1,9,-1
 -4 462 l 1,10,-1
 -4 488 l 1,11,-1
 224 488 l 1,12,-1
 224 462 l 1,13,-1
 158 454 l 1,14,-1
 300 107 l 1,15,-1
 388 340 l 1,16,-1
 339 457 l 1,17,-1
 298 462 l 1,18,-1
 298 488 l 1,19,-1
 524 488 l 1,20,-1
 524 462 l 1,21,-1
 458 454 l 1,22,-1
 587 136 l 1,23,-1
 700 443 l 1,24,-1
 635 462 l 1,25,-1
 635 488 l 1,0,-1
EndSplineSet
EndChar

StartChar: x
Encoding: 120 120 91
Width: 583
GlyphClass: 2
Flags: W
LayerCount: 2
Fore
SplineSet
207 0 m 1,0,-1
 15 0 l 1,1,-1
 15 25 l 1,2,-1
 85 44 l 1,3,-1
 239 226 l 1,4,-1
 57 458 l 1,5,-1
 9 463 l 1,6,-1
 9 488 l 1,7,-1
 251 488 l 1,8,-1
 250 464 l 1,9,-1
 192 456 l 1,10,-1
 322 287 l 1,11,-1
 452 444 l 1,12,-1
 375 463 l 1,13,-1
 375 488 l 1,14,-1
 567 488 l 1,15,-1
 567 463 l 1,16,-1
 497 444 l 1,17,-1
 342 258 l 1,18,-1
 517 30 l 1,19,-1
 574 25 l 1,20,-1
 574 0 l 1,21,-1
 323 0 l 1,22,-1
 323 23 l 1,23,-1
 381 31 l 1,24,-1
 258 195 l 1,25,-1
 133 44 l 1,26,-1
 207 25 l 1,27,-1
 207 0 l 1,0,-1
EndSplineSet
EndChar

StartChar: y
Encoding: 121 121 92
Width: 512
GlyphClass: 2
Flags: W
LayerCount: 2
Fore
SplineSet
325 488 m 1,0,-1
 516 488 l 1,1,-1
 516 463 l 1,2,-1
 446 443 l 1,3,-1
 284 0 l 1,4,5
 242 -110 242 -110 195 -180 c 0,6,7
 138 -265 138 -265 57 -265 c 0,8,9
 51 -265 51 -265 44 -264 c 1,10,11
 11 -264 11 -264 -9 -244.5 c 128,-1,12
 -29 -225 -29 -225 -29 -193.5 c 128,-1,13
 -29 -162 -29 -162 -1 -130 c 1,14,15
 32 -167 32 -167 71 -167 c 0,16,17
 126 -167 126 -167 164 -126.5 c 128,-1,18
 202 -86 202 -86 235 0 c 1,19,-1
 43 457 l 1,20,-1
 -7 467 l 1,21,-1
 -7 488 l 1,22,-1
 224 488 l 1,23,-1
 224 467 l 1,24,-1
 165 458 l 1,25,-1
 293 132 l 1,26,-1
 404 443 l 1,27,-1
 325 463 l 1,28,-1
 325 488 l 1,0,-1
EndSplineSet
EndChar

StartChar: z
Encoding: 122 122 93
Width: 529
GlyphClass: 2
Flags: W
LayerCount: 2
Fore
SplineSet
45 348 m 1,0,-1
 45 489 l 1,1,-1
 493 491 l 1,2,-1
 493 467 l 1,3,-1
 180 34 l 1,4,-1
 416 37 l 1,5,-1
 456 142 l 1,6,-1
 487 142 l 1,7,-1
 480 1 l 1,8,-1
 37 -1 l 1,9,-1
 37 23 l 1,10,-1
 353 456 l 1,11,-1
 109 453 l 1,12,-1
 75 348 l 1,13,-1
 45 348 l 1,0,-1
EndSplineSet
EndChar

StartChar: braceleft
Encoding: 123 123 94
Width: 311
GlyphClass: 2
Flags: W
LayerCount: 2
Fore
SplineSet
16 268 m 1,0,1
 102 268 102 268 102 370 c 0,2,3
 102 410 102 410 88 490 c 128,-1,4
 74 570 74 570 74 612 c 0,5,6
 74 783 74 783 292 783 c 1,7,-1
 292 746 l 1,8,9
 232 746 232 746 207.5 717 c 128,-1,10
 183 688 183 688 183 643 c 128,-1,11
 183 598 183 598 199 510.5 c 128,-1,12
 215 423 215 423 215 382.5 c 128,-1,13
 215 342 215 342 191 305 c 128,-1,14
 167 268 167 268 123 254 c 1,15,16
 167 242 167 242 191 205 c 128,-1,17
 215 168 215 168 215 127 c 128,-1,18
 215 86 215 86 199 -1.5 c 128,-1,19
 183 -89 183 -89 183 -128 c 0,20,21
 183 -238 183 -238 292 -238 c 1,22,-1
 292 -274 l 1,23,24
 74 -274 74 -274 74 -103 c 0,25,26
 74 -66 74 -66 88 17.5 c 128,-1,27
 102 101 102 101 102 139 c 0,28,29
 102 241 102 241 16 241 c 1,30,-1
 16 268 l 1,0,1
EndSplineSet
EndChar

StartChar: bar
Encoding: 124 124 95
Width: 249
GlyphClass: 2
Flags: W
LayerCount: 2
Fore
SplineSet
84 800 m 1,0,-1
 165 800 l 1,1,-1
 165 -290 l 1,2,-1
 84 -290 l 1,3,-1
 84 800 l 1,0,-1
EndSplineSet
EndChar

StartChar: braceright
Encoding: 125 125 96
Width: 311
GlyphClass: 2
Flags: W
LayerCount: 2
Fore
SplineSet
295 268 m 1,0,-1
 295 241 l 1,1,2
 209 241 209 241 209 139 c 0,3,4
 209 101 209 101 223 17.5 c 128,-1,5
 237 -66 237 -66 237 -103 c 0,6,7
 237 -274 237 -274 19 -274 c 1,8,-1
 19 -238 l 1,9,10
 128 -238 128 -238 128 -128 c 0,11,12
 128 -89 128 -89 112 -1.5 c 128,-1,13
 96 86 96 86 96 127 c 128,-1,14
 96 168 96 168 120 205 c 128,-1,15
 144 242 144 242 188 254 c 1,16,17
 144 268 144 268 120 305 c 128,-1,18
 96 342 96 342 96 382.5 c 128,-1,19
 96 423 96 423 112 510.5 c 128,-1,20
 128 598 128 598 128 643 c 128,-1,21
 128 688 128 688 103.5 717 c 128,-1,22
 79 746 79 746 19 746 c 1,23,-1
 19 783 l 1,24,25
 237 783 237 783 237 612 c 0,26,27
 237 570 237 570 223 490 c 128,-1,28
 209 410 209 410 209 370 c 0,29,30
 209 268 209 268 295 268 c 1,0,-1
EndSplineSet
EndChar

StartChar: asciitilde
Encoding: 126 126 97
Width: 576
GlyphClass: 2
Flags: W
LayerCount: 2
Fore
SplineSet
453 174.5 m 128,-1,1
 428 159 428 159 407.5 159 c 128,-1,2
 387 159 387 159 368.5 164 c 128,-1,3
 350 169 350 169 336 174 c 128,-1,4
 322 179 322 179 299 188 c 128,-1,5
 276 197 276 197 239.5 211 c 128,-1,6
 203 225 203 225 176 225 c 0,7,8
 129 225 129 225 88 158 c 1,9,-1
 48 201 l 1,10,11
 78 251 78 251 108.5 277.5 c 128,-1,12
 139 304 139 304 182.5 304 c 128,-1,13
 226 304 226 304 298.5 271 c 128,-1,14
 371 238 371 238 397 238 c 0,15,16
 450 238 450 238 485 297 c 1,17,-1
 526 256 l 1,18,19
 506 225 506 225 492 207.5 c 128,-1,0
 478 190 478 190 453 174.5 c 128,-1,1
EndSplineSet
EndChar

StartChar: exclamdown
Encoding: 161 161 98
Width: 255
GlyphClass: 2
Flags: W
LayerCount: 2
Fore
SplineSet
69 -137 m 0,0,1
 69 41 69 41 93 197 c 1,2,3
 97 213 97 213 111 219 c 128,-1,4
 125 225 125 225 137 224 c 128,-1,5
 149 223 149 223 153 220 c 1,6,-1
 167 -18 l 1,7,8
 181 -177 181 -177 198 -258 c 1,9,10
 166 -264 166 -264 143 -264 c 0,11,12
 95 -264 95 -264 80 -230 c 1,13,14
 69 -202 69 -202 69 -137 c 0,0,1
178.5 302.5 m 128,-1,16
 158 281 158 281 128 281 c 128,-1,17
 98 281 98 281 77.5 302 c 128,-1,18
 57 323 57 323 57 352.5 c 128,-1,19
 57 382 57 382 78 403 c 128,-1,20
 99 424 99 424 128 424 c 128,-1,21
 157 424 157 424 178 402.5 c 128,-1,22
 199 381 199 381 199 352.5 c 128,-1,15
 199 324 199 324 178.5 302.5 c 128,-1,16
EndSplineSet
EndChar

StartChar: cent
Encoding: 162 162 99
Width: 539
GlyphClass: 2
Flags: W
LayerCount: 2
Fore
SplineSet
324 0 m 1,0,-1
 279 0 l 1,1,-1
 279 85 l 1,2,3
 173 90 173 90 112 158.5 c 128,-1,4
 51 227 51 227 51 338 c 128,-1,5
 51 449 51 449 110.5 517 c 128,-1,6
 170 585 170 585 279 594 c 1,7,-1
 279 679 l 1,8,-1
 324 679 l 1,9,-1
 324 594 l 1,10,11
 361 592 361 592 395.5 581.5 c 128,-1,12
 430 571 430 571 459 541 c 128,-1,13
 488 511 488 511 488 469 c 128,-1,14
 488 427 488 427 450 414 c 0,15,16
 435 409 435 409 418 409 c 128,-1,17
 401 409 401 409 385 422 c 1,18,19
 390 442 390 442 390 467.5 c 128,-1,20
 390 493 390 493 376 520 c 0,21,22
 353 564 353 564 308 564 c 0,23,24
 188 564 188 564 188 338.5 c 128,-1,25
 188 113 188 113 311 113 c 0,26,27
 404 113 404 113 460 203 c 1,28,29
 482 196 482 196 482 182 c 0,30,31
 482 158 482 158 439.5 125 c 128,-1,32
 397 92 397 92 324 86 c 1,33,-1
 324 0 l 1,0,-1
EndSplineSet
EndChar

StartChar: sterling
Encoding: 163 163 100
Width: 616
GlyphClass: 2
Flags: W
LayerCount: 2
Fore
SplineSet
441 588 m 0,0,1
 441 663 441 663 383 663 c 0,2,3
 330 663 330 663 306 612 c 0,4,5
 281 559 281 559 277 510 c 0,6,7
 270 440 270 440 270 382 c 1,8,-1
 445 382 l 1,9,-1
 445 351 l 1,10,-1
 271 351 l 1,11,-1
 271 234 l 2,12,13
 271 202 271 202 260 174.5 c 128,-1,14
 249 147 249 147 234 130 c 1,15,16
 202 98 202 98 175 85 c 2,17,-1
 164 80 l 1,18,19
 212 86 212 86 259 86 c 128,-1,20
 306 86 306 86 363 80.5 c 128,-1,21
 420 75 420 75 456.5 75 c 128,-1,22
 493 75 493 75 511.5 86 c 128,-1,23
 530 97 530 97 540 140 c 1,24,-1
 574 133 l 1,25,26
 569 97 569 97 564 78.5 c 128,-1,27
 559 60 559 60 546 38 c 0,28,29
 523 -4 523 -4 448 -4 c 0,30,31
 424 -4 424 -4 356 5.5 c 128,-1,32
 288 15 288 15 238 14.5 c 128,-1,33
 188 14 188 14 140 6.5 c 128,-1,34
 92 -1 92 -1 76 -8 c 2,35,-1
 60 -16 l 1,36,-1
 46 20 l 1,37,38
 109 59 109 59 128 113.5 c 128,-1,39
 147 168 147 168 151 290 c 1,40,-1
 152 349 l 1,41,-1
 42 349 l 1,42,-1
 42 382 l 1,43,-1
 151 382 l 1,44,-1
 151 411 l 2,45,46
 151 692 151 692 390 692 c 0,47,48
 455 692 455 692 497.5 669 c 128,-1,49
 540 646 540 646 540 605.5 c 128,-1,50
 540 565 540 565 504 546 c 0,51,52
 486 536 486 536 468.5 536 c 128,-1,53
 451 536 451 536 433 545 c 1,54,55
 441 566 441 566 441 588 c 0,0,1
EndSplineSet
EndChar

StartChar: currency
Encoding: 164 164 101
Width: 605
GlyphClass: 2
Flags: W
LayerCount: 2
Fore
SplineSet
429 163 m 1,0,1
 374 123 374 123 302.5 123 c 128,-1,2
 231 123 231 123 176 164 c 1,3,-1
 113 96 l 1,4,-1
 65 144 l 1,5,-1
 133 210 l 1,6,7
 99 263 99 263 99 333.5 c 128,-1,8
 99 404 99 404 135 457 c 1,9,-1
 65 525 l 1,10,-1
 113 573 l 1,11,-1
 178 503 l 1,12,13
 230 541 230 541 301 541 c 128,-1,14
 372 541 372 541 426 501 c 1,15,-1
 491 571 l 1,16,-1
 539 523 l 1,17,-1
 470 456 l 1,18,19
 506 402 506 402 506 332 c 128,-1,20
 506 262 506 262 472 209 c 1,21,-1
 541 142 l 1,22,-1
 493 94 l 1,23,-1
 429 163 l 1,0,1
394.5 228.5 m 128,-1,25
 431 266 431 266 431 327 c 128,-1,26
 431 388 431 388 394.5 429.5 c 128,-1,27
 358 471 358 471 299.5 471 c 128,-1,28
 241 471 241 471 206 434.5 c 128,-1,29
 171 398 171 398 171 334.5 c 128,-1,30
 171 271 171 271 208.5 231 c 128,-1,31
 246 191 246 191 302 191 c 128,-1,24
 358 191 358 191 394.5 228.5 c 128,-1,25
EndSplineSet
EndChar

StartChar: yen
Encoding: 165 165 102
Width: 766
GlyphClass: 2
Flags: W
LayerCount: 2
Fore
SplineSet
468 287 m 1,0,-1
 608 287 l 1,1,-1
 608 250 l 1,2,-1
 468 250 l 1,3,-1
 468 214 l 1,4,-1
 608 214 l 1,5,-1
 608 178 l 1,6,-1
 468 178 l 1,7,-1
 468 33 l 1,8,-1
 555 24 l 1,9,-1
 555 0 l 1,10,-1
 248 0 l 1,11,-1
 248 24 l 1,12,-1
 335 33 l 1,13,-1
 335 178 l 1,14,-1
 195 178 l 1,15,-1
 195 214 l 1,16,-1
 335 214 l 1,17,-1
 335 250 l 1,18,-1
 195 250 l 1,19,-1
 195 286 l 1,20,-1
 335 286 l 1,21,-1
 107 637 l 1,22,-1
 31 644 l 1,23,-1
 31 668 l 1,24,-1
 331 668 l 1,25,-1
 331 647 l 1,26,-1
 254 638 l 1,27,-1
 444 339 l 1,28,-1
 607 621 l 1,29,-1
 532 644 l 1,30,-1
 532 668 l 1,31,-1
 735 668 l 1,32,-1
 735 644 l 1,33,-1
 659 620 l 1,34,-1
 468 295 l 1,35,-1
 468 287 l 1,0,-1
EndSplineSet
EndChar

StartChar: brokenbar
Encoding: 166 166 103
Width: 257
GlyphClass: 2
Flags: W
LayerCount: 2
Fore
SplineSet
88 690 m 1,0,-1
 169 690 l 1,1,-1
 169 333 l 1,2,-1
 88 333 l 1,3,-1
 88 690 l 1,0,-1
88 136 m 1,4,-1
 169 136 l 1,5,-1
 169 -221 l 1,6,-1
 88 -221 l 1,7,-1
 88 136 l 1,4,-1
EndSplineSet
EndChar

StartChar: section
Encoding: 167 167 104
Width: 503
GlyphClass: 2
Flags: W
LayerCount: 2
Fore
SplineSet
436.5 184 m 128,-1,1
 450 144 450 144 450 90 c 128,-1,2
 450 36 450 36 430.5 -17 c 128,-1,3
 411 -70 411 -70 360.5 -106 c 128,-1,4
 310 -142 310 -142 235 -142 c 128,-1,5
 160 -142 160 -142 107.5 -111.5 c 128,-1,6
 55 -81 55 -81 55 -34 c 0,7,8
 55 30 55 30 123 30 c 0,9,10
 144 30 144 30 164 19 c 1,11,12
 163 7 163 7 163 -4 c 0,13,14
 163 -48 163 -48 184 -81 c 128,-1,15
 205 -114 205 -114 243 -114 c 128,-1,16
 281 -114 281 -114 305 -90 c 128,-1,17
 329 -66 329 -66 329 -30 c 128,-1,18
 329 6 329 6 311 41 c 128,-1,19
 293 76 293 76 275.5 97.5 c 128,-1,20
 258 119 258 119 219 162.5 c 128,-1,21
 180 206 180 206 158.5 232 c 128,-1,22
 137 258 137 258 108 300 c 0,23,24
 52 383 52 383 52 479 c 128,-1,25
 52 575 52 575 110.5 636.5 c 128,-1,26
 169 698 169 698 269 698 c 0,27,28
 341 698 341 698 394.5 668 c 128,-1,29
 448 638 448 638 448 590.5 c 128,-1,30
 448 543 448 543 412 530 c 0,31,32
 398 525 398 525 379.5 525 c 128,-1,33
 361 525 361 525 339 535 c 1,34,35
 342 552 342 552 342 575 c 128,-1,36
 342 598 342 598 330 626 c 0,37,38
 311 669 311 669 264 669 c 128,-1,39
 217 669 217 669 192.5 647 c 128,-1,40
 168 625 168 625 168 582.5 c 128,-1,41
 168 540 168 540 198 496.5 c 128,-1,42
 228 453 228 453 275.5 403.5 c 128,-1,43
 323 354 323 354 344.5 328.5 c 128,-1,44
 366 303 366 303 394.5 263.5 c 128,-1,0
 423 224 423 224 436.5 184 c 128,-1,1
382 27 m 1,45,46
 387 51 387 51 387 85 c 128,-1,47
 387 119 387 119 377.5 151.5 c 128,-1,48
 368 184 368 184 345 217 c 128,-1,49
 322 250 322 250 306 268.5 c 128,-1,50
 290 287 290 287 253 326 c 128,-1,51
 216 365 216 365 196.5 387 c 128,-1,52
 177 409 177 409 152 449 c 128,-1,53
 127 489 127 489 117 527 c 1,54,55
 113 507 113 507 113 473.5 c 128,-1,56
 113 440 113 440 134 394.5 c 128,-1,57
 155 349 155 349 175.5 323 c 128,-1,58
 196 297 196 297 246.5 241.5 c 128,-1,59
 297 186 297 186 333 134.5 c 128,-1,60
 369 83 369 83 382 27 c 1,45,46
EndSplineSet
EndChar

StartChar: dieresis
Encoding: 168 168 105
Width: 498
GlyphClass: 2
Flags: W
LayerCount: 2
Fore
SplineSet
196.5 582 m 128,-1,1
 176 562 176 562 146.5 562 c 128,-1,2
 117 562 117 562 98 581 c 128,-1,3
 79 600 79 600 79 629 c 128,-1,4
 79 658 79 658 98.5 679 c 128,-1,5
 118 700 118 700 147 700 c 128,-1,6
 176 700 176 700 196.5 679 c 128,-1,7
 217 658 217 658 217 630 c 128,-1,0
 217 602 217 602 196.5 582 c 128,-1,1
382 582 m 128,-1,9
 362 562 362 562 332 562 c 128,-1,10
 302 562 302 562 283 581 c 128,-1,11
 264 600 264 600 264 629.5 c 128,-1,12
 264 659 264 659 283.5 679.5 c 128,-1,13
 303 700 303 700 332.5 700 c 128,-1,14
 362 700 362 700 382 679 c 128,-1,15
 402 658 402 658 402 630 c 128,-1,8
 402 602 402 602 382 582 c 128,-1,9
EndSplineSet
EndChar

StartChar: copyright
Encoding: 169 169 106
Width: 778
GlyphClass: 2
Flags: W
LayerCount: 2
Fore
SplineSet
463 389 m 1,0,1
 467 406 467 406 467 426.5 c 128,-1,2
 467 447 467 447 456 468 c 0,3,4
 439 502 439 502 403 502 c 0,5,6
 308 502 308 502 308 340 c 0,7,8
 308 332 308 332 308 323 c 0,9,10
 308 146 308 146 405 146 c 0,11,12
 477 146 477 146 524 217 c 1,13,14
 536 210 536 210 538.5 207.5 c 128,-1,15
 541 205 541 205 541 196.5 c 128,-1,16
 541 188 541 188 526 171 c 128,-1,17
 511 154 511 154 474.5 138.5 c 128,-1,18
 438 123 438 123 391 123 c 0,19,20
 302 123 302 123 250.5 177.5 c 128,-1,21
 199 232 199 232 199 325 c 128,-1,22
 199 418 199 418 253 472.5 c 128,-1,23
 307 527 307 527 404 527 c 0,24,25
 448 527 448 527 494 506 c 0,26,27
 517 496 517 496 531.5 475 c 128,-1,28
 546 454 546 454 546 424 c 128,-1,29
 546 394 546 394 515 384 c 1,30,31
 503 379 503 379 489.5 379 c 128,-1,32
 476 379 476 379 463 389 c 1,0,1
631 578.5 m 128,-1,34
 727 478 727 478 727 330 c 128,-1,35
 727 182 727 182 632 83.5 c 128,-1,36
 537 -15 537 -15 390 -15 c 128,-1,37
 243 -15 243 -15 147 84 c 128,-1,38
 51 183 51 183 51 331 c 128,-1,39
 51 479 51 479 146.5 579 c 128,-1,40
 242 679 242 679 388.5 679 c 128,-1,33
 535 679 535 679 631 578.5 c 128,-1,34
596 112.5 m 128,-1,42
 674 198 674 198 674 326 c 128,-1,43
 674 454 674 454 593.5 543.5 c 128,-1,44
 513 633 513 633 386.5 633 c 128,-1,45
 260 633 260 633 182 546 c 128,-1,46
 104 459 104 459 104 331.5 c 128,-1,47
 104 204 104 204 184.5 115.5 c 128,-1,48
 265 27 265 27 391.5 27 c 128,-1,41
 518 27 518 27 596 112.5 c 128,-1,42
EndSplineSet
EndChar

StartChar: ordfeminine
Encoding: 170 170 107
Width: 379
GlyphClass: 2
Flags: W
LayerCount: 2
Fore
SplineSet
115 449 m 0,0,1
 115 393 115 393 156 393 c 0,2,3
 183 393 183 393 204.5 413.5 c 128,-1,4
 226 434 226 434 227 468 c 1,5,-1
 227 529 l 1,6,7
 115 527 115 527 115 449 c 0,0,1
137 374 m 0,8,9
 48 374 48 374 48 449 c 0,10,11
 48 493 48 493 95 517 c 128,-1,12
 142 541 142 541 227 542 c 1,13,-1
 227 598 l 2,14,15
 227 674 227 674 176 674 c 0,16,17
 149 674 149 674 136.5 654 c 128,-1,18
 124 634 124 634 124 615 c 128,-1,19
 124 596 124 596 126 582 c 1,20,21
 116 575 116 575 105.5 575 c 128,-1,22
 95 575 95 575 85 579 c 0,23,24
 62 588 62 588 62 610 c 0,25,26
 62 652 62 652 98 671 c 128,-1,27
 134 690 134 690 173 690 c 0,28,29
 237 690 237 690 263.5 664.5 c 128,-1,30
 290 639 290 639 290 584 c 2,31,-1
 290 394 l 1,32,-1
 336 392 l 1,33,-1
 336 379 l 1,34,-1
 231 373 l 1,35,-1
 227 423 l 1,36,37
 196 374 196 374 137 374 c 0,8,9
EndSplineSet
EndChar

StartChar: guillemotleft
Encoding: 171 171 108
Width: 517
GlyphClass: 2
Flags: W
LayerCount: 2
Fore
SplineSet
453 377 m 0,0,1
 453 325 453 325 341 234 c 1,2,3
 395 193 395 193 422 155 c 128,-1,4
 449 117 449 117 449 94 c 0,5,6
 449 62 449 62 409 43 c 1,7,8
 369 122 369 122 246 220 c 1,9,-1
 229 233 l 1,10,11
 316 305 316 305 343 334 c 0,12,13
 381 374 381 374 413 414 c 1,14,-1
 422 426 l 1,15,16
 453 405 453 405 453 377 c 0,0,1
256 377 m 0,17,18
 256 325 256 325 144 234 c 1,19,20
 198 193 198 193 225 155 c 128,-1,21
 252 117 252 117 252 94 c 0,22,23
 252 62 252 62 212 43 c 1,24,25
 172 122 172 122 49 220 c 1,26,-1
 32 233 l 1,27,28
 119 305 119 305 146 334 c 0,29,30
 184 374 184 374 216 414 c 1,31,-1
 225 426 l 1,32,33
 256 405 256 405 256 377 c 0,17,18
EndSplineSet
EndChar

StartChar: logicalnot
Encoding: 172 172 109
Width: 592
GlyphClass: 2
Flags: W
LayerCount: 2
Fore
SplineSet
451 136 m 1,0,-1
 451 265 l 1,1,-1
 71 265 l 1,2,-1
 71 330 l 1,3,-1
 521 330 l 1,4,-1
 522 136 l 1,5,-1
 451 136 l 1,0,-1
EndSplineSet
EndChar

StartChar: registered
Encoding: 174 174 110
Width: 778
GlyphClass: 2
Flags: W
LayerCount: 2
Fore
SplineSet
631 578.5 m 128,-1,1
 727 478 727 478 727 330 c 128,-1,2
 727 182 727 182 632 83.5 c 128,-1,3
 537 -15 537 -15 390 -15 c 128,-1,4
 243 -15 243 -15 147 84 c 128,-1,5
 51 183 51 183 51 331 c 128,-1,6
 51 479 51 479 146.5 579 c 128,-1,7
 242 679 242 679 388.5 679 c 128,-1,0
 535 679 535 679 631 578.5 c 128,-1,1
601 111 m 128,-1,9
 680 198 680 198 680 329 c 128,-1,10
 680 460 680 460 598 551 c 128,-1,11
 516 642 516 642 387 642 c 128,-1,12
 258 642 258 642 178.5 553.5 c 128,-1,13
 99 465 99 465 99 334.5 c 128,-1,14
 99 204 99 204 181 114 c 128,-1,15
 263 24 263 24 392.5 24 c 128,-1,8
 522 24 522 24 601 111 c 128,-1,9
334 338 m 1,16,-1
 356 338 l 2,17,18
 452 338 452 338 452 431 c 0,19,20
 452 476 452 476 433.5 496.5 c 128,-1,21
 415 517 415 517 374 517 c 0,22,23
 355 517 355 517 334 514 c 1,24,-1
 334 338 l 1,16,-1
500.5 285.5 m 128,-1,26
 526 253 526 253 526 192.5 c 128,-1,27
 526 132 526 132 557 132 c 0,28,29
 572 132 572 132 593 142 c 1,30,-1
 594 127 l 1,31,32
 563 113 563 113 527 113 c 0,33,34
 460 113 460 113 446 164 c 0,35,36
 442 180 442 180 441 214 c 128,-1,37
 440 248 440 248 437 267.5 c 128,-1,38
 434 287 434 287 415 304 c 128,-1,39
 396 321 396 321 359 321 c 2,40,-1
 334 321 l 1,41,-1
 334 145 l 1,42,-1
 380 140 l 1,43,-1
 380 125 l 1,44,-1
 346 125 l 1,45,46
 316 127 316 127 301.5 127 c 128,-1,47
 287 127 287 127 209 124 c 1,48,-1
 209 139 l 1,49,-1
 254 145 l 1,50,-1
 254 513 l 1,51,-1
 202 520 l 1,52,-1
 202 536 l 1,53,54
 254 534 254 534 294 534 c 2,55,-1
 324 534 l 1,56,-1
 392 535 l 1,57,58
 537 535 537 535 537 431 c 0,59,60
 537 385 537 385 504 356 c 128,-1,61
 471 327 471 327 419 327 c 2,62,-1
 406 327 l 1,63,25
 475 318 475 318 500.5 285.5 c 128,-1,26
EndSplineSet
EndChar

StartChar: macron
Encoding: 175 175 111
Width: 538
GlyphClass: 2
Flags: W
LayerCount: 2
Fore
SplineSet
448 666 m 1,0,-1
 448 601 l 1,1,-1
 109 601 l 1,2,-1
 109 666 l 1,3,-1
 448 666 l 1,0,-1
EndSplineSet
EndChar

StartChar: degree
Encoding: 176 176 112
Width: 319
GlyphClass: 2
Flags: W
LayerCount: 2
Fore
SplineSet
245.5 663.5 m 128,-1,1
 278 632 278 632 278 583.5 c 128,-1,2
 278 535 278 535 244 503 c 128,-1,3
 210 471 210 471 156.5 471 c 128,-1,4
 103 471 103 471 72.5 502 c 128,-1,5
 42 533 42 533 42 581 c 128,-1,6
 42 629 42 629 77 662 c 128,-1,7
 112 695 112 695 162.5 695 c 128,-1,0
 213 695 213 695 245.5 663.5 c 128,-1,1
219 581 m 128,-1,9
 219 607 219 607 202.5 624 c 128,-1,10
 186 641 186 641 160.5 641 c 128,-1,11
 135 641 135 641 118 623.5 c 128,-1,12
 101 606 101 606 101 580 c 128,-1,13
 101 554 101 554 117.5 537.5 c 128,-1,14
 134 521 134 521 160.5 521 c 128,-1,15
 187 521 187 521 203 538 c 128,-1,8
 219 555 219 555 219 581 c 128,-1,9
EndSplineSet
EndChar

StartChar: plusminus
Encoding: 177 177 113
Width: 534
GlyphClass: 2
Flags: W
LayerCount: 2
Fore
SplineSet
468 262 m 1,0,-1
 303 262 l 1,1,-1
 303 116 l 1,2,-1
 228 116 l 1,3,-1
 228 262 l 1,4,-1
 65 262 l 1,5,-1
 65 337 l 1,6,-1
 228 337 l 1,7,-1
 228 484 l 1,8,-1
 303 484 l 1,9,-1
 303 337 l 1,10,-1
 468 337 l 1,11,-1
 468 262 l 1,0,-1
471 0 m 1,12,-1
 64 0 l 1,13,-1
 64 75 l 1,14,-1
 471 75 l 1,15,-1
 471 0 l 1,12,-1
EndSplineSet
EndChar

StartChar: twosuperior
Encoding: 178 178 114
Width: 403
GlyphClass: 2
Flags: W
LayerCount: 2
Fore
SplineSet
57 295 m 1,0,-1
 57 334 l 1,1,2
 126 374 126 374 184 442 c 128,-1,3
 242 510 242 510 242 591.5 c 128,-1,4
 242 673 242 673 190 673 c 0,5,6
 162 673 162 673 147 647.5 c 128,-1,7
 132 622 132 622 132 598 c 128,-1,8
 132 574 132 574 134 556 c 1,9,10
 116 547 116 547 103 547 c 128,-1,11
 90 547 90 547 82 552 c 0,12,13
 61 563 61 563 61 593 c 0,14,15
 61 638 61 638 99 665.5 c 128,-1,16
 137 693 137 693 191.5 693 c 128,-1,17
 246 693 246 693 286.5 664.5 c 128,-1,18
 327 636 327 636 327 582 c 128,-1,19
 327 528 327 528 291 478.5 c 128,-1,20
 255 429 255 429 216.5 400 c 128,-1,21
 178 371 178 371 139 350 c 1,22,-1
 336 350 l 1,23,-1
 336 295 l 1,24,-1
 57 295 l 1,0,-1
302 295 m 1,25,-1
 343 295 l 1,26,-1
 349 405 l 1,27,-1
 331 405 l 1,28,-1
 302 323 l 1,29,-1
 302 295 l 1,25,-1
EndSplineSet
EndChar

StartChar: threesuperior
Encoding: 179 179 115
Width: 368
GlyphClass: 2
Flags: W
LayerCount: 2
Fore
SplineSet
108 404 m 1,0,1
 106 393 106 393 106 374 c 128,-1,2
 106 355 106 355 121 331 c 128,-1,3
 136 307 136 307 171 307 c 128,-1,4
 206 307 206 307 224.5 331.5 c 128,-1,5
 243 356 243 356 243 398 c 128,-1,6
 243 440 243 440 218 462.5 c 128,-1,7
 193 485 193 485 152 485 c 2,8,-1
 119 485 l 1,9,-1
 119 500 l 1,10,11
 167 502 167 502 199.5 528 c 128,-1,12
 232 554 232 554 232 596 c 128,-1,13
 232 638 232 638 217 655.5 c 128,-1,14
 202 673 202 673 178.5 673 c 128,-1,15
 155 673 155 673 141 654.5 c 128,-1,16
 127 636 127 636 127 618 c 128,-1,17
 127 600 127 600 130 586 c 1,18,19
 114 579 114 579 103 579 c 0,20,21
 66 579 66 579 66 617 c 0,22,23
 66 651 66 651 100 672 c 128,-1,24
 134 693 134 693 182.5 693 c 128,-1,25
 231 693 231 693 270 669.5 c 128,-1,26
 309 646 309 646 309 597 c 0,27,28
 309 568 309 568 289.5 542 c 128,-1,29
 270 516 270 516 230 503 c 1,30,31
 320 482 320 482 320 404 c 0,32,33
 320 352 320 352 279.5 319 c 128,-1,34
 239 286 239 286 173.5 286 c 128,-1,35
 108 286 108 286 75.5 308.5 c 128,-1,36
 43 331 43 331 42.5 361 c 128,-1,37
 42 391 42 391 60 402 c 1,38,39
 69 409 69 409 81.5 409 c 128,-1,40
 94 409 94 409 108 404 c 1,0,1
EndSplineSet
EndChar

StartChar: acute
Encoding: 180 180 116
Width: 399
GlyphClass: 2
Flags: W
LayerCount: 2
Fore
SplineSet
303 696 m 0,0,1
 303 680 303 680 286 666 c 0,2,3
 196 592 196 592 136 551 c 1,4,5
 119 567 119 567 112 578 c 1,6,7
 142 621 142 621 248 763 c 1,8,9
 303 720 303 720 303 696 c 0,0,1
EndSplineSet
EndChar

StartChar: mu
Encoding: 181 181 117
AltUni2: 0003bc.ffffffff.0
Width: 682
GlyphClass: 2
Flags: W
LayerCount: 2
Fore
SplineSet
152 -13 m 2,0,1
 152 -47 152 -47 172.5 -100 c 128,-1,2
 193 -153 193 -153 193 -170 c 0,3,4
 193 -208 193 -208 175 -225.5 c 128,-1,5
 157 -243 157 -243 130 -243 c 0,6,7
 72 -243 72 -243 72 -170 c 0,8,9
 72 -152 72 -152 92 -99.5 c 128,-1,10
 112 -47 112 -47 112 -13 c 0,11,12
 112 298 112 298 123 456 c 1,13,-1
 49 460 l 1,14,-1
 49 483 l 1,15,-1
 248 494 l 1,16,17
 238 268 238 268 238 139 c 0,18,19
 238 80 238 80 252.5 53 c 128,-1,20
 267 26 267 26 311 26 c 128,-1,21
 355 26 355 26 398 81 c 128,-1,22
 441 136 441 136 441 176 c 2,23,-1
 441 456 l 1,24,-1
 362 460 l 1,25,-1
 362 483 l 1,26,-1
 569 496 l 1,27,-1
 569 32 l 1,28,-1
 650 28 l 1,29,-1
 650 5 l 1,30,-1
 445 -7 l 1,31,-1
 450 93 l 1,32,-1
 440 93 l 1,33,34
 382 -10 382 -10 272 -10 c 0,35,36
 195 -10 195 -10 152 30 c 1,37,-1
 152 -13 l 2,0,1
EndSplineSet
EndChar

StartChar: paragraph
Encoding: 182 182 118
Width: 522
GlyphClass: 2
Flags: W
LayerCount: 2
Fore
SplineSet
302 635 m 1,0,-1
 302 -112 l 1,1,-1
 243 -112 l 1,2,-1
 243 328 l 1,3,4
 222 325 222 325 202 325 c 0,5,6
 111 325 111 325 72 374.5 c 128,-1,7
 33 424 33 424 33 497 c 128,-1,8
 33 570 33 570 80.5 619.5 c 128,-1,9
 128 669 128 669 222 669 c 0,10,11
 369 669 369 669 473 668 c 1,12,-1
 473 644 l 1,13,-1
 404 637 l 1,14,-1
 404 -112 l 1,15,-1
 348 -112 l 1,16,-1
 348 635 l 1,17,-1
 302 635 l 1,0,-1
EndSplineSet
EndChar

StartChar: periodcentered
Encoding: 183 183 119
Width: 231
GlyphClass: 2
Flags: W
LayerCount: 2
Fore
SplineSet
155 305.5 m 128,-1,1
 139 289 139 289 116 289 c 128,-1,2
 93 289 93 289 77 305 c 128,-1,3
 61 321 61 321 61 343.5 c 128,-1,4
 61 366 61 366 77.5 382 c 128,-1,5
 94 398 94 398 116.5 398 c 128,-1,6
 139 398 139 398 155 381.5 c 128,-1,7
 171 365 171 365 171 343.5 c 128,-1,0
 171 322 171 322 155 305.5 c 128,-1,1
EndSplineSet
EndChar

StartChar: cedilla
Encoding: 184 184 120
Width: 347
GlyphClass: 2
Flags: W
LayerCount: 2
Fore
SplineSet
146 -68 m 1,0,1
 168 -54 168 -54 204.5 -54 c 128,-1,2
 241 -54 241 -54 270.5 -73.5 c 128,-1,3
 300 -93 300 -93 300 -133.5 c 128,-1,4
 300 -174 300 -174 263.5 -195.5 c 128,-1,5
 227 -217 227 -217 166.5 -217 c 128,-1,6
 106 -217 106 -217 63 -192 c 1,7,-1
 71 -175 l 1,8,9
 104 -188 104 -188 140 -188 c 0,10,11
 205 -188 205 -188 205 -131 c 0,12,13
 205 -86 205 -86 163 -86 c 0,14,15
 150 -86 150 -86 128 -91 c 1,16,-1
 107 -82 l 1,17,-1
 158 8 l 1,18,-1
 186 8 l 1,19,-1
 144 -65 l 1,20,-1
 146 -68 l 1,0,1
EndSplineSet
EndChar

StartChar: onesuperior
Encoding: 185 185 121
Width: 297
GlyphClass: 2
Flags: W
LayerCount: 2
Fore
SplineSet
199 687 m 1,0,-1
 160 687 l 1,1,-1
 38 611 l 1,2,-1
 51 583 l 1,3,-1
 126 617 l 1,4,-1
 126 302 l 1,5,-1
 199 302 l 1,6,-1
 199 687 l 1,0,-1
256 301 m 1,7,-1
 70 301 l 1,8,-1
 70 320 l 1,9,-1
 132 327 l 1,10,-1
 193 327 l 1,11,-1
 256 320 l 1,12,-1
 256 301 l 1,7,-1
EndSplineSet
EndChar

StartChar: ordmasculine
Encoding: 186 186 122
Width: 386
GlyphClass: 2
Flags: W
LayerCount: 2
Fore
SplineSet
302.5 418.5 m 128,-1,1
 262 374 262 374 192.5 374 c 128,-1,2
 123 374 123 374 83 418.5 c 128,-1,3
 43 463 43 463 43 532 c 128,-1,4
 43 601 43 601 83 645.5 c 128,-1,5
 123 690 123 690 192.5 690 c 128,-1,6
 262 690 262 690 302.5 645.5 c 128,-1,7
 343 601 343 601 343 532 c 128,-1,0
 343 463 343 463 302.5 418.5 c 128,-1,1
192 391 m 0,8,9
 235 391 235 391 253 427 c 128,-1,10
 271 463 271 463 271 533.5 c 128,-1,11
 271 604 271 604 253.5 638.5 c 128,-1,12
 236 673 236 673 193 673 c 128,-1,13
 150 673 150 673 132.5 638 c 128,-1,14
 115 603 115 603 115 532 c 0,15,16
 115 391 115 391 192 391 c 0,8,9
EndSplineSet
EndChar

StartChar: guillemotright
Encoding: 187 187 123
Width: 517
GlyphClass: 2
Flags: W
LayerCount: 2
Fore
SplineSet
108 43 m 1,0,1
 68 62 68 62 68 94.5 c 128,-1,2
 68 127 68 127 104 166.5 c 128,-1,3
 140 206 140 206 176 234 c 1,4,5
 64 325 64 325 64 377 c 0,6,7
 64 405 64 405 95 426 c 1,8,9
 158 340 158 340 265 252 c 2,10,-1
 288 233 l 1,11,12
 192 158 192 158 142 95 c 0,13,14
 123 70 123 70 116 56 c 1,15,-1
 108 43 l 1,0,1
305 43 m 1,16,17
 265 62 265 62 265 94.5 c 128,-1,18
 265 127 265 127 301 166.5 c 128,-1,19
 337 206 337 206 373 234 c 1,20,21
 261 325 261 325 261 377 c 0,22,23
 261 405 261 405 292 426 c 1,24,25
 355 340 355 340 462 252 c 2,26,-1
 485 233 l 1,27,28
 389 158 389 158 340 95 c 0,29,30
 320 70 320 70 312 56 c 2,31,-1
 305 43 l 1,16,17
EndSplineSet
EndChar

StartChar: onequarter
Encoding: 188 188 124
Width: 739
GlyphClass: 2
Flags: W
LayerCount: 2
Fore
SplineSet
549 128 m 1,0,-1
 386 128 l 1,1,-1
 381 147 l 1,2,-1
 571 387 l 1,3,-1
 622 387 l 1,4,-1
 622 165 l 1,5,-1
 704 165 l 1,6,-1
 704 128 l 1,7,-1
 622 128 l 1,8,-1
 622 25 l 1,9,-1
 679 19 l 1,10,-1
 679 0 l 1,11,-1
 493 0 l 1,12,-1
 493 19 l 1,13,-1
 549 25 l 1,14,-1
 549 128 l 1,0,-1
196 687 m 1,15,-1
 196 326 l 1,16,-1
 253 320 l 1,17,-1
 253 301 l 1,18,-1
 67 301 l 1,19,-1
 67 320 l 1,20,-1
 123 326 l 1,21,-1
 123 617 l 1,22,-1
 48 583 l 1,23,-1
 35 611 l 1,24,-1
 157 687 l 1,25,-1
 196 687 l 1,15,-1
549 164 m 1,26,-1
 549 306 l 1,27,-1
 437 164 l 1,28,-1
 549 164 l 1,26,-1
612 668 m 1,29,-1
 206 -9 l 1,30,-1
 136 -9 l 1,31,-1
 543 668 l 1,32,-1
 612 668 l 1,29,-1
EndSplineSet
EndChar

StartChar: onehalf
Encoding: 189 189 125
Width: 785
GlyphClass: 2
Flags: W
LayerCount: 2
Fore
SplineSet
455 0 m 1,0,-1
 455 39 l 1,1,2
 524 79 524 79 582 147 c 128,-1,3
 640 215 640 215 640 296.5 c 128,-1,4
 640 378 640 378 588 378 c 0,5,6
 560 378 560 378 545 352.5 c 128,-1,7
 530 327 530 327 530 303 c 128,-1,8
 530 279 530 279 532 261 c 1,9,10
 514 252 514 252 501 252 c 128,-1,11
 488 252 488 252 480 257 c 0,12,13
 459 268 459 268 459 298 c 0,14,15
 459 343 459 343 497 370.5 c 128,-1,16
 535 398 535 398 589.5 398 c 128,-1,17
 644 398 644 398 684.5 369.5 c 128,-1,18
 725 341 725 341 725 287 c 128,-1,19
 725 233 725 233 689 183.5 c 128,-1,20
 653 134 653 134 614.5 105 c 128,-1,21
 576 76 576 76 537 55 c 1,22,-1
 709 55 l 1,23,-1
 729 110 l 1,24,-1
 747 110 l 1,25,-1
 741 0 l 1,26,-1
 455 0 l 1,0,-1
196 687 m 1,27,-1
 196 326 l 1,28,-1
 253 320 l 1,29,-1
 253 301 l 1,30,-1
 67 301 l 1,31,-1
 67 320 l 1,32,-1
 123 326 l 1,33,-1
 123 617 l 1,34,-1
 48 583 l 1,35,-1
 35 611 l 1,36,-1
 157 687 l 1,37,-1
 196 687 l 1,27,-1
589 668 m 1,38,-1
 183 -9 l 1,39,-1
 113 -9 l 1,40,-1
 520 668 l 1,41,-1
 589 668 l 1,38,-1
EndSplineSet
EndChar

StartChar: threequarters
Encoding: 190 190 126
Width: 767
GlyphClass: 2
Flags: W
LayerCount: 2
Fore
SplineSet
577 128 m 1,0,-1
 414 128 l 1,1,-1
 409 147 l 1,2,-1
 599 387 l 1,3,-1
 650 387 l 1,4,-1
 650 165 l 1,5,-1
 732 165 l 1,6,-1
 732 128 l 1,7,-1
 650 128 l 1,8,-1
 650 25 l 1,9,-1
 707 19 l 1,10,-1
 707 0 l 1,11,-1
 521 0 l 1,12,-1
 521 19 l 1,13,-1
 577 25 l 1,14,-1
 577 128 l 1,0,-1
104 404 m 1,15,16
 102 393 102 393 102 374 c 128,-1,17
 102 355 102 355 117 331 c 128,-1,18
 132 307 132 307 167 307 c 128,-1,19
 202 307 202 307 220.5 331.5 c 128,-1,20
 239 356 239 356 239 398 c 128,-1,21
 239 440 239 440 214 462.5 c 128,-1,22
 189 485 189 485 148 485 c 2,23,-1
 115 485 l 1,24,-1
 115 500 l 1,25,26
 163 502 163 502 195.5 528 c 128,-1,27
 228 554 228 554 228 596 c 128,-1,28
 228 638 228 638 213 655.5 c 128,-1,29
 198 673 198 673 174.5 673 c 128,-1,30
 151 673 151 673 137 654.5 c 128,-1,31
 123 636 123 636 123 618 c 128,-1,32
 123 600 123 600 126 586 c 1,33,34
 110 579 110 579 99 579 c 0,35,36
 62 579 62 579 62 617 c 0,37,38
 62 651 62 651 96 672 c 128,-1,39
 130 693 130 693 178.5 693 c 128,-1,40
 227 693 227 693 266 669.5 c 128,-1,41
 305 646 305 646 305 597 c 0,42,43
 305 568 305 568 285.5 542 c 128,-1,44
 266 516 266 516 226 503 c 1,45,46
 316 482 316 482 316 404 c 0,47,48
 316 352 316 352 275.5 319 c 128,-1,49
 235 286 235 286 169.5 286 c 128,-1,50
 104 286 104 286 71.5 308.5 c 128,-1,51
 39 331 39 331 38.5 361 c 128,-1,52
 38 391 38 391 56 402 c 1,53,54
 65 409 65 409 77.5 409 c 128,-1,55
 90 409 90 409 104 404 c 1,15,16
577 164 m 1,56,-1
 577 306 l 1,57,-1
 465 164 l 1,58,-1
 577 164 l 1,56,-1
639 668 m 1,59,-1
 233 -9 l 1,60,-1
 163 -9 l 1,61,-1
 570 668 l 1,62,-1
 639 668 l 1,59,-1
EndSplineSet
EndChar

StartChar: questiondown
Encoding: 191 191 127
Width: 452
GlyphClass: 2
Flags: W
LayerCount: 2
Fore
SplineSet
230 418 m 2,0,-1
 230 423 l 2,1,2
 230 440 230 440 223 459 c 1,3,4
 248 467 248 467 269 467 c 0,5,6
 322 467 322 467 322 420 c 0,7,8
 322 392 322 392 307 364 c 128,-1,9
 292 336 292 336 278 320 c 128,-1,10
 264 304 264 304 235.5 275.5 c 128,-1,11
 207 247 207 247 192.5 230 c 128,-1,12
 178 213 178 213 164 183 c 128,-1,13
 150 153 150 153 150 121 c 0,14,15
 150 18 150 18 222 18 c 0,16,17
 264 18 264 18 291 62 c 0,18,19
 310 94 310 94 310 134 c 0,20,21
 310 150 310 150 307 167 c 1,22,23
 326 176 326 176 344 176 c 128,-1,24
 362 176 362 176 378 170 c 0,25,26
 414 156 414 156 414 119 c 0,27,28
 414 60 414 60 358 24 c 128,-1,29
 302 -12 302 -12 221 -12 c 0,30,31
 35 -12 35 -12 35 131 c 0,32,33
 35 164 35 164 56 200.5 c 128,-1,34
 77 237 77 237 98 258.5 c 128,-1,35
 119 280 119 280 149.5 308 c 128,-1,36
 180 336 180 336 193 350 c 0,37,38
 230 388 230 388 230 418 c 2,0,-1
220 672.5 m 128,-1,40
 239 692 239 692 267 692 c 128,-1,41
 295 692 295 692 313.5 673 c 128,-1,42
 332 654 332 654 332 626.5 c 128,-1,43
 332 599 332 599 313.5 579.5 c 128,-1,44
 295 560 295 560 267 560 c 128,-1,45
 239 560 239 560 220 579.5 c 128,-1,46
 201 599 201 599 201 626 c 128,-1,39
 201 653 201 653 220 672.5 c 128,-1,40
EndSplineSet
EndChar

StartChar: Agrave
Encoding: 192 192 128
Width: 686
GlyphClass: 2
Flags: W
LayerCount: 2
Fore
SplineSet
716 0 m 1,0,-1
 422 0 l 1,1,-1
 422 24 l 1,2,-1
 503 33 l 1,3,-1
 411 263 l 1,4,-1
 186 263 l 1,5,-1
 106 50 l 1,6,-1
 195 24 l 1,7,-1
 195 0 l 1,8,-1
 -14 0 l 1,9,-1
 -14 24 l 1,10,-1
 62 50 l 1,11,-1
 304 668 l 1,12,-1
 374 668 l 1,13,-1
 639 33 l 1,14,-1
 716 24 l 1,15,-1
 716 0 l 1,0,-1
396 300 m 1,16,-1
 298 543 l 1,17,-1
 200 300 l 1,18,-1
 396 300 l 1,16,-1
427 741 m 1,19,20
 421 732 421 732 405 712 c 1,21,22
 340 749 340 749 247 815 c 0,23,24
 229 828 229 828 227 843 c 1,25,26
 226 868 226 868 277 914 c 1,27,28
 401 773 401 773 427 741 c 1,19,20
EndSplineSet
EndChar

StartChar: Aacute
Encoding: 193 193 129
Width: 686
GlyphClass: 2
Flags: W
LayerCount: 2
Fore
SplineSet
716 0 m 1,0,-1
 422 0 l 1,1,-1
 422 24 l 1,2,-1
 503 33 l 1,3,-1
 411 263 l 1,4,-1
 186 263 l 1,5,-1
 106 50 l 1,6,-1
 195 24 l 1,7,-1
 195 0 l 1,8,-1
 -14 0 l 1,9,-1
 -14 24 l 1,10,-1
 62 50 l 1,11,-1
 304 668 l 1,12,-1
 374 668 l 1,13,-1
 639 33 l 1,14,-1
 716 24 l 1,15,-1
 716 0 l 1,0,-1
396 300 m 1,16,-1
 298 543 l 1,17,-1
 200 300 l 1,18,-1
 396 300 l 1,16,-1
254 741 m 1,19,20
 280 773 280 773 404 914 c 1,21,22
 455 868 455 868 454 843 c 1,23,24
 452 828 452 828 434 815 c 0,25,26
 341 749 341 749 276 712 c 1,27,28
 260 732 260 732 254 741 c 1,19,20
EndSplineSet
EndChar

StartChar: Acircumflex
Encoding: 194 194 130
Width: 686
GlyphClass: 2
Flags: W
LayerCount: 2
Fore
SplineSet
716 0 m 1,0,-1
 422 0 l 1,1,-1
 422 24 l 1,2,-1
 503 33 l 1,3,-1
 411 263 l 1,4,-1
 186 263 l 1,5,-1
 106 50 l 1,6,-1
 195 24 l 1,7,-1
 195 0 l 1,8,-1
 -14 0 l 1,9,-1
 -14 24 l 1,10,-1
 62 50 l 1,11,-1
 304 668 l 1,12,-1
 374 668 l 1,13,-1
 639 33 l 1,14,-1
 716 24 l 1,15,-1
 716 0 l 1,0,-1
396 300 m 1,16,-1
 298 543 l 1,17,-1
 200 300 l 1,18,-1
 396 300 l 1,16,-1
178 735 m 1,19,-1
 309 921 l 1,20,-1
 371 921 l 1,21,-1
 501 735 l 1,22,-1
 470 716 l 1,23,-1
 340 832 l 1,24,-1
 209 716 l 1,25,-1
 178 735 l 1,19,-1
EndSplineSet
EndChar

StartChar: Atilde
Encoding: 195 195 131
Width: 686
GlyphClass: 2
Flags: W
LayerCount: 2
Fore
SplineSet
716 0 m 1,0,-1
 422 0 l 1,1,-1
 422 24 l 1,2,-1
 503 33 l 1,3,-1
 411 263 l 1,4,-1
 186 263 l 1,5,-1
 106 50 l 1,6,-1
 195 24 l 1,7,-1
 195 0 l 1,8,-1
 -14 0 l 1,9,-1
 -14 24 l 1,10,-1
 62 50 l 1,11,-1
 304 668 l 1,12,-1
 374 668 l 1,13,-1
 639 33 l 1,14,-1
 716 24 l 1,15,-1
 716 0 l 1,0,-1
396 300 m 1,16,-1
 298 543 l 1,17,-1
 200 300 l 1,18,-1
 396 300 l 1,16,-1
479.5 763.5 m 128,-1,20
 451 732 451 732 413.5 732 c 128,-1,21
 376 732 376 732 328 761 c 1,22,23
 283 793 283 793 259 793 c 128,-1,24
 235 793 235 793 218.5 781 c 128,-1,25
 202 769 202 769 198 754 c 1,26,-1
 171 754 l 1,27,28
 177 804 177 804 205 835 c 128,-1,29
 233 866 233 866 273.5 866 c 128,-1,30
 314 866 314 866 361 836 c 1,31,32
 406 805 406 805 428 805 c 128,-1,33
 450 805 450 805 467 817.5 c 128,-1,34
 484 830 484 830 487 845 c 1,35,-1
 514 845 l 1,36,19
 508 795 508 795 479.5 763.5 c 128,-1,20
EndSplineSet
EndChar

StartChar: Adieresis
Encoding: 196 196 132
Width: 686
GlyphClass: 2
Flags: W
LayerCount: 2
Fore
SplineSet
716 0 m 1,0,-1
 422 0 l 1,1,-1
 422 24 l 1,2,-1
 503 33 l 1,3,-1
 411 263 l 1,4,-1
 186 263 l 1,5,-1
 106 50 l 1,6,-1
 195 24 l 1,7,-1
 195 0 l 1,8,-1
 -14 0 l 1,9,-1
 -14 24 l 1,10,-1
 62 50 l 1,11,-1
 304 668 l 1,12,-1
 374 668 l 1,13,-1
 639 33 l 1,14,-1
 716 24 l 1,15,-1
 716 0 l 1,0,-1
396 300 m 1,16,-1
 298 543 l 1,17,-1
 200 300 l 1,18,-1
 396 300 l 1,16,-1
296.5 762 m 128,-1,20
 276 742 276 742 246.5 742 c 128,-1,21
 217 742 217 742 198 761 c 128,-1,22
 179 780 179 780 179 809 c 128,-1,23
 179 838 179 838 198.5 859 c 128,-1,24
 218 880 218 880 247 880 c 128,-1,25
 276 880 276 880 296.5 859 c 128,-1,26
 317 838 317 838 317 810 c 128,-1,19
 317 782 317 782 296.5 762 c 128,-1,20
482 762 m 128,-1,28
 462 742 462 742 432 742 c 128,-1,29
 402 742 402 742 383 761 c 128,-1,30
 364 780 364 780 364 809.5 c 128,-1,31
 364 839 364 839 383.5 859.5 c 128,-1,32
 403 880 403 880 432.5 880 c 128,-1,33
 462 880 462 880 482 859 c 128,-1,34
 502 838 502 838 502 810 c 128,-1,27
 502 782 502 782 482 762 c 128,-1,28
EndSplineSet
EndChar

StartChar: Aring
Encoding: 197 197 133
Width: 686
GlyphClass: 2
Flags: W
LayerCount: 2
Fore
SplineSet
716 0 m 1,0,-1
 422 0 l 1,1,-1
 422 24 l 1,2,-1
 503 33 l 1,3,-1
 411 263 l 1,4,-1
 186 263 l 1,5,-1
 106 50 l 1,6,-1
 195 24 l 1,7,-1
 195 0 l 1,8,-1
 -14 0 l 1,9,-1
 -14 24 l 1,10,-1
 62 50 l 1,11,-1
 304 668 l 1,12,-1
 374 668 l 1,13,-1
 639 33 l 1,14,-1
 716 24 l 1,15,-1
 716 0 l 1,0,-1
396 300 m 1,16,-1
 298 543 l 1,17,-1
 200 300 l 1,18,-1
 396 300 l 1,16,-1
423 913 m 128,-1,20
 456 881 456 881 456 831.5 c 128,-1,21
 456 782 456 782 421.5 748.5 c 128,-1,22
 387 715 387 715 337.5 715 c 128,-1,23
 288 715 288 715 254.5 747 c 128,-1,24
 221 779 221 779 221 828.5 c 128,-1,25
 221 878 221 878 255.5 911.5 c 128,-1,26
 290 945 290 945 340 945 c 128,-1,19
 390 945 390 945 423 913 c 128,-1,20
379.5 785 m 128,-1,28
 396 802 396 802 396 828 c 128,-1,29
 396 854 396 854 379 872 c 128,-1,30
 362 890 362 890 338.5 890 c 128,-1,31
 315 890 315 890 298.5 873 c 128,-1,32
 282 856 282 856 282 829 c 128,-1,33
 282 802 282 802 298.5 785 c 128,-1,34
 315 768 315 768 339 768 c 128,-1,27
 363 768 363 768 379.5 785 c 128,-1,28
EndSplineSet
EndChar

StartChar: AE
Encoding: 198 198 134
Width: 934
GlyphClass: 2
Flags: W
LayerCount: 2
Fore
SplineSet
439 263 m 1,0,-1
 224 263 l 1,1,-1
 82 50 l 1,2,-1
 159 24 l 1,3,-1
 159 0 l 1,4,-1
 -46 0 l 1,5,-1
 -46 24 l 1,6,-1
 38 50 l 1,7,-1
 439 627 l 1,8,-1
 439 635 l 1,9,-1
 352 644 l 1,10,-1
 352 670 l 1,11,-1
 862 668 l 1,12,-1
 862 526 l 1,13,-1
 830 526 l 1,14,-1
 791 632 l 1,15,-1
 572 635 l 1,16,-1
 572 366 l 1,17,-1
 766 366 l 1,18,-1
 797 440 l 1,19,-1
 825 440 l 1,20,-1
 825 254 l 1,21,-1
 796 254 l 1,22,-1
 766 330 l 1,23,-1
 572 330 l 1,24,-1
 572 32 l 1,25,-1
 821 35 l 1,26,-1
 873 149 l 1,27,-1
 905 149 l 1,28,-1
 893 0 l 1,29,-1
 352 0 l 1,30,-1
 352 24 l 1,31,-1
 439 33 l 1,32,-1
 439 263 l 1,0,-1
439 300 m 1,33,-1
 439 576 l 1,34,-1
 248 300 l 1,35,-1
 439 300 l 1,33,-1
EndSplineSet
EndChar

StartChar: Ccedilla
Encoding: 199 199 135
Width: 719
GlyphClass: 2
Flags: W
LayerCount: 2
Fore
SplineSet
439 675 m 1,0,-1
 659 666 l 1,1,-1
 665 484 l 1,2,-1
 629 484 l 1,3,-1
 595 615 l 1,4,5
 526 638 526 638 462 638 c 0,6,7
 343 638 343 638 269 559.5 c 128,-1,8
 195 481 195 481 195 327.5 c 128,-1,9
 195 174 195 174 267 102 c 128,-1,10
 339 30 339 30 448.5 30 c 128,-1,11
 558 30 558 30 607 54 c 1,12,-1
 644 168 l 1,13,-1
 676 168 l 1,14,-1
 670 21 l 1,15,16
 545 -6 545 -6 451.5 -6 c 128,-1,17
 358 -6 358 -6 292 9.5 c 128,-1,18
 226 25 226 25 168 60 c 128,-1,19
 110 95 110 95 77.5 161 c 128,-1,20
 45 227 45 227 45 319 c 128,-1,21
 45 411 45 411 78.5 481.5 c 128,-1,22
 112 552 112 552 169 593 c 0,23,24
 283 675 283 675 439 675 c 1,0,-1
368 -68 m 1,25,26
 390 -54 390 -54 426.5 -54 c 128,-1,27
 463 -54 463 -54 492.5 -73.5 c 128,-1,28
 522 -93 522 -93 522 -133.5 c 128,-1,29
 522 -174 522 -174 485.5 -195.5 c 128,-1,30
 449 -217 449 -217 388.5 -217 c 128,-1,31
 328 -217 328 -217 285 -192 c 1,32,-1
 293 -175 l 1,33,34
 326 -188 326 -188 362 -188 c 0,35,36
 427 -188 427 -188 427 -131 c 0,37,38
 427 -86 427 -86 385 -86 c 0,39,40
 372 -86 372 -86 350 -91 c 1,41,-1
 329 -82 l 1,42,-1
 380 8 l 1,43,-1
 408 8 l 1,44,-1
 366 -65 l 1,45,-1
 368 -68 l 1,25,26
EndSplineSet
EndChar

StartChar: Egrave
Encoding: 200 200 136
Width: 615
GlyphClass: 2
Flags: W
LayerCount: 2
Fore
SplineSet
33 0 m 1,0,-1
 33 24 l 1,1,-1
 120 33 l 1,2,-1
 120 635 l 1,3,-1
 33 644 l 1,4,-1
 33 668 l 1,5,-1
 543 668 l 1,6,-1
 543 526 l 1,7,-1
 511 526 l 1,8,-1
 472 632 l 1,9,-1
 253 635 l 1,10,-1
 253 366 l 1,11,-1
 447 366 l 1,12,-1
 478 440 l 1,13,-1
 506 440 l 1,14,-1
 506 254 l 1,15,-1
 477 254 l 1,16,-1
 447 330 l 1,17,-1
 253 330 l 1,18,-1
 253 32 l 1,19,-1
 502 35 l 1,20,-1
 554 149 l 1,21,-1
 586 149 l 1,22,-1
 574 0 l 1,23,-1
 33 0 l 1,0,-1
425 741 m 1,24,25
 419 732 419 732 403 712 c 1,26,27
 338 749 338 749 245 815 c 0,28,29
 227 828 227 828 225 843 c 1,30,31
 224 868 224 868 275 914 c 1,32,33
 399 773 399 773 425 741 c 1,24,25
EndSplineSet
EndChar

StartChar: Eacute
Encoding: 201 201 137
Width: 615
GlyphClass: 2
Flags: W
LayerCount: 2
Fore
SplineSet
33 0 m 1,0,-1
 33 24 l 1,1,-1
 120 33 l 1,2,-1
 120 635 l 1,3,-1
 33 644 l 1,4,-1
 33 668 l 1,5,-1
 543 668 l 1,6,-1
 543 526 l 1,7,-1
 511 526 l 1,8,-1
 472 632 l 1,9,-1
 253 635 l 1,10,-1
 253 366 l 1,11,-1
 447 366 l 1,12,-1
 478 440 l 1,13,-1
 506 440 l 1,14,-1
 506 254 l 1,15,-1
 477 254 l 1,16,-1
 447 330 l 1,17,-1
 253 330 l 1,18,-1
 253 32 l 1,19,-1
 502 35 l 1,20,-1
 554 149 l 1,21,-1
 586 149 l 1,22,-1
 574 0 l 1,23,-1
 33 0 l 1,0,-1
266 741 m 1,24,25
 292 773 292 773 416 914 c 1,26,27
 467 868 467 868 466 843 c 1,28,29
 464 828 464 828 446 815 c 0,30,31
 353 749 353 749 288 712 c 1,32,33
 272 732 272 732 266 741 c 1,24,25
EndSplineSet
EndChar

StartChar: Ecircumflex
Encoding: 202 202 138
Width: 615
GlyphClass: 2
Flags: W
LayerCount: 2
Fore
SplineSet
33 0 m 1,0,-1
 33 24 l 1,1,-1
 120 33 l 1,2,-1
 120 635 l 1,3,-1
 33 644 l 1,4,-1
 33 668 l 1,5,-1
 543 668 l 1,6,-1
 543 526 l 1,7,-1
 511 526 l 1,8,-1
 472 632 l 1,9,-1
 253 635 l 1,10,-1
 253 366 l 1,11,-1
 447 366 l 1,12,-1
 478 440 l 1,13,-1
 506 440 l 1,14,-1
 506 254 l 1,15,-1
 477 254 l 1,16,-1
 447 330 l 1,17,-1
 253 330 l 1,18,-1
 253 32 l 1,19,-1
 502 35 l 1,20,-1
 554 149 l 1,21,-1
 586 149 l 1,22,-1
 574 0 l 1,23,-1
 33 0 l 1,0,-1
157 735 m 1,24,-1
 288 921 l 1,25,-1
 350 921 l 1,26,-1
 480 735 l 1,27,-1
 449 716 l 1,28,-1
 319 832 l 1,29,-1
 188 716 l 1,30,-1
 157 735 l 1,24,-1
EndSplineSet
EndChar

StartChar: Edieresis
Encoding: 203 203 139
Width: 615
GlyphClass: 2
Flags: W
LayerCount: 2
Fore
SplineSet
33 0 m 1,0,-1
 33 24 l 1,1,-1
 120 33 l 1,2,-1
 120 635 l 1,3,-1
 33 644 l 1,4,-1
 33 668 l 1,5,-1
 543 668 l 1,6,-1
 543 526 l 1,7,-1
 511 526 l 1,8,-1
 472 632 l 1,9,-1
 253 635 l 1,10,-1
 253 366 l 1,11,-1
 447 366 l 1,12,-1
 478 440 l 1,13,-1
 506 440 l 1,14,-1
 506 254 l 1,15,-1
 477 254 l 1,16,-1
 447 330 l 1,17,-1
 253 330 l 1,18,-1
 253 32 l 1,19,-1
 502 35 l 1,20,-1
 554 149 l 1,21,-1
 586 149 l 1,22,-1
 574 0 l 1,23,-1
 33 0 l 1,0,-1
281.5 762 m 128,-1,25
 261 742 261 742 231.5 742 c 128,-1,26
 202 742 202 742 183 761 c 128,-1,27
 164 780 164 780 164 809 c 128,-1,28
 164 838 164 838 183.5 859 c 128,-1,29
 203 880 203 880 232 880 c 128,-1,30
 261 880 261 880 281.5 859 c 128,-1,31
 302 838 302 838 302 810 c 128,-1,24
 302 782 302 782 281.5 762 c 128,-1,25
467 762 m 128,-1,33
 447 742 447 742 417 742 c 128,-1,34
 387 742 387 742 368 761 c 128,-1,35
 349 780 349 780 349 809.5 c 128,-1,36
 349 839 349 839 368.5 859.5 c 128,-1,37
 388 880 388 880 417.5 880 c 128,-1,38
 447 880 447 880 467 859 c 128,-1,39
 487 838 487 838 487 810 c 128,-1,32
 487 782 487 782 467 762 c 128,-1,33
EndSplineSet
EndChar

StartChar: Igrave
Encoding: 204 204 140
Width: 373
GlyphClass: 2
Flags: W
LayerCount: 2
Fore
SplineSet
340 0 m 1,0,-1
 33 0 l 1,1,-1
 33 24 l 1,2,-1
 120 33 l 1,3,-1
 120 635 l 1,4,-1
 33 644 l 1,5,-1
 33 668 l 1,6,-1
 340 668 l 1,7,-1
 340 644 l 1,8,-1
 253 635 l 1,9,-1
 253 33 l 1,10,-1
 340 24 l 1,11,-1
 340 0 l 1,0,-1
290 741 m 1,12,13
 284 732 284 732 268 712 c 1,14,15
 203 749 203 749 110 815 c 0,16,17
 92 828 92 828 90 843 c 1,18,19
 89 868 89 868 140 914 c 1,20,21
 264 773 264 773 290 741 c 1,12,13
EndSplineSet
EndChar

StartChar: Iacute
Encoding: 205 205 141
Width: 373
GlyphClass: 2
Flags: W
LayerCount: 2
Fore
SplineSet
340 0 m 1,0,-1
 33 0 l 1,1,-1
 33 24 l 1,2,-1
 120 33 l 1,3,-1
 120 635 l 1,4,-1
 33 644 l 1,5,-1
 33 668 l 1,6,-1
 340 668 l 1,7,-1
 340 644 l 1,8,-1
 253 635 l 1,9,-1
 253 33 l 1,10,-1
 340 24 l 1,11,-1
 340 0 l 1,0,-1
110 741 m 1,12,13
 136 773 136 773 260 914 c 1,14,15
 311 868 311 868 310 843 c 1,16,17
 308 828 308 828 290 815 c 0,18,19
 197 749 197 749 132 712 c 1,20,21
 116 732 116 732 110 741 c 1,12,13
EndSplineSet
EndChar

StartChar: Icircumflex
Encoding: 206 206 142
Width: 373
GlyphClass: 2
Flags: W
LayerCount: 2
Fore
SplineSet
340 0 m 1,0,-1
 33 0 l 1,1,-1
 33 24 l 1,2,-1
 120 33 l 1,3,-1
 120 635 l 1,4,-1
 33 644 l 1,5,-1
 33 668 l 1,6,-1
 340 668 l 1,7,-1
 340 644 l 1,8,-1
 253 635 l 1,9,-1
 253 33 l 1,10,-1
 340 24 l 1,11,-1
 340 0 l 1,0,-1
26 735 m 1,12,-1
 157 921 l 1,13,-1
 219 921 l 1,14,-1
 349 735 l 1,15,-1
 318 716 l 1,16,-1
 188 832 l 1,17,-1
 57 716 l 1,18,-1
 26 735 l 1,12,-1
EndSplineSet
EndChar

StartChar: Idieresis
Encoding: 207 207 143
Width: 373
GlyphClass: 2
Flags: W
LayerCount: 2
Fore
SplineSet
340 0 m 1,0,-1
 33 0 l 1,1,-1
 33 24 l 1,2,-1
 120 33 l 1,3,-1
 120 635 l 1,4,-1
 33 644 l 1,5,-1
 33 668 l 1,6,-1
 340 668 l 1,7,-1
 340 644 l 1,8,-1
 253 635 l 1,9,-1
 253 33 l 1,10,-1
 340 24 l 1,11,-1
 340 0 l 1,0,-1
142.5 762 m 128,-1,13
 122 742 122 742 92.5 742 c 128,-1,14
 63 742 63 742 44 761 c 128,-1,15
 25 780 25 780 25 809 c 128,-1,16
 25 838 25 838 44.5 859 c 128,-1,17
 64 880 64 880 93 880 c 128,-1,18
 122 880 122 880 142.5 859 c 128,-1,19
 163 838 163 838 163 810 c 128,-1,12
 163 782 163 782 142.5 762 c 128,-1,13
328 762 m 128,-1,21
 308 742 308 742 278 742 c 128,-1,22
 248 742 248 742 229 761 c 128,-1,23
 210 780 210 780 210 809.5 c 128,-1,24
 210 839 210 839 229.5 859.5 c 128,-1,25
 249 880 249 880 278.5 880 c 128,-1,26
 308 880 308 880 328 859 c 128,-1,27
 348 838 348 838 348 810 c 128,-1,20
 348 782 348 782 328 762 c 128,-1,21
EndSplineSet
EndChar

StartChar: Eth
Encoding: 208 208 144
Width: 810
GlyphClass: 2
Flags: W
LayerCount: 2
Fore
SplineSet
764 335 m 0,0,1
 764 0 764 0 348 0 c 2,2,-1
 35 0 l 1,3,-1
 35 24 l 1,4,-1
 121 34 l 1,5,-1
 121 316 l 1,6,-1
 35 316 l 1,7,-1
 35 360 l 1,8,-1
 121 360 l 1,9,-1
 121 633 l 1,10,-1
 35 645 l 1,11,-1
 35 671 l 1,12,13
 81 668 81 668 142 668 c 2,14,-1
 238 668 l 1,15,-1
 362 672 l 1,16,17
 453 672 453 672 521.5 657 c 128,-1,18
 590 642 590 642 647 606 c 0,19,20
 764 532 764 532 764 335 c 0,0,1
383 360 m 1,21,-1
 383 316 l 1,22,-1
 255 316 l 1,23,-1
 255 35 l 1,24,-1
 348 32 l 1,25,26
 443 36 443 36 489 58 c 0,27,28
 613 117 613 117 613 334 c 0,29,30
 613 507 613 507 548 574 c 0,31,32
 527 597 527 597 509 608.5 c 128,-1,33
 491 620 491 620 464 626 c 0,34,35
 427 635 427 635 377 637 c 1,36,-1
 362 637 l 2,37,38
 289 637 289 637 255 632 c 1,39,-1
 255 360 l 1,40,-1
 383 360 l 1,21,-1
EndSplineSet
EndChar

StartChar: Ntilde
Encoding: 209 209 145
Width: 785
GlyphClass: 2
Flags: W
LayerCount: 2
Fore
SplineSet
542 668 m 1,0,-1
 744 668 l 1,1,-1
 744 644 l 1,2,-1
 674 620 l 1,3,-1
 674 0 l 1,4,-1
 606 0 l 1,5,-1
 161 548 l 1,6,-1
 161 49 l 1,7,-1
 245 24 l 1,8,-1
 245 0 l 1,9,-1
 45 0 l 1,10,-1
 45 24 l 1,11,-1
 118 49 l 1,12,-1
 118 635 l 1,13,-1
 31 644 l 1,14,-1
 31 668 l 1,15,-1
 219 668 l 1,16,-1
 619 170 l 1,17,-1
 619 621 l 1,18,-1
 542 644 l 1,19,-1
 542 668 l 1,0,-1
549 763.5 m 128,-1,21
 519 732 519 732 479.5 732 c 128,-1,22
 440 732 440 732 390 761 c 1,23,24
 341 793 341 793 317 793 c 128,-1,25
 293 793 293 793 275 781 c 128,-1,26
 257 769 257 769 253 754 c 1,27,-1
 225 754 l 1,28,29
 231 804 231 804 260.5 835 c 128,-1,30
 290 866 290 866 332.5 866 c 128,-1,31
 375 866 375 866 424 836 c 1,32,33
 470 805 470 805 494 805 c 128,-1,34
 518 805 518 805 535.5 817.5 c 128,-1,35
 553 830 553 830 557 845 c 1,36,-1
 585 845 l 1,37,20
 579 795 579 795 549 763.5 c 128,-1,21
EndSplineSet
EndChar

StartChar: Ograve
Encoding: 210 210 146
Width: 778
GlyphClass: 2
Flags: W
LayerCount: 2
Fore
SplineSet
641.5 87.5 m 128,-1,1
 548 -11 548 -11 389.5 -11 c 128,-1,2
 231 -11 231 -11 137.5 87.5 c 128,-1,3
 44 186 44 186 44 336 c 128,-1,4
 44 486 44 486 137.5 584.5 c 128,-1,5
 231 683 231 683 389.5 683 c 128,-1,6
 548 683 548 683 641.5 584.5 c 128,-1,7
 735 486 735 486 735 336 c 128,-1,0
 735 186 735 186 641.5 87.5 c 128,-1,1
391 20 m 0,8,9
 583 20 583 20 583 336 c 0,10,11
 583 488 583 488 539.5 570 c 128,-1,12
 496 652 496 652 390 652 c 128,-1,13
 284 652 284 652 239.5 570 c 128,-1,14
 195 488 195 488 195 336 c 0,15,16
 195 20 195 20 391 20 c 0,8,9
490 741 m 1,17,18
 484 732 484 732 468 712 c 1,19,20
 403 749 403 749 310 815 c 0,21,22
 292 828 292 828 290 843 c 1,23,24
 289 868 289 868 340 914 c 1,25,26
 464 773 464 773 490 741 c 1,17,18
EndSplineSet
EndChar

StartChar: Oacute
Encoding: 211 211 147
Width: 778
GlyphClass: 2
Flags: W
LayerCount: 2
Fore
SplineSet
641.5 87.5 m 128,-1,1
 548 -11 548 -11 389.5 -11 c 128,-1,2
 231 -11 231 -11 137.5 87.5 c 128,-1,3
 44 186 44 186 44 336 c 128,-1,4
 44 486 44 486 137.5 584.5 c 128,-1,5
 231 683 231 683 389.5 683 c 128,-1,6
 548 683 548 683 641.5 584.5 c 128,-1,7
 735 486 735 486 735 336 c 128,-1,0
 735 186 735 186 641.5 87.5 c 128,-1,1
391 20 m 0,8,9
 583 20 583 20 583 336 c 0,10,11
 583 488 583 488 539.5 570 c 128,-1,12
 496 652 496 652 390 652 c 128,-1,13
 284 652 284 652 239.5 570 c 128,-1,14
 195 488 195 488 195 336 c 0,15,16
 195 20 195 20 391 20 c 0,8,9
301 741 m 1,17,18
 327 773 327 773 451 914 c 1,19,20
 502 868 502 868 501 843 c 1,21,22
 499 828 499 828 481 815 c 0,23,24
 388 749 388 749 323 712 c 1,25,26
 307 732 307 732 301 741 c 1,17,18
EndSplineSet
EndChar

StartChar: Ocircumflex
Encoding: 212 212 148
Width: 778
GlyphClass: 2
Flags: W
LayerCount: 2
Fore
SplineSet
641.5 87.5 m 128,-1,1
 548 -11 548 -11 389.5 -11 c 128,-1,2
 231 -11 231 -11 137.5 87.5 c 128,-1,3
 44 186 44 186 44 336 c 128,-1,4
 44 486 44 486 137.5 584.5 c 128,-1,5
 231 683 231 683 389.5 683 c 128,-1,6
 548 683 548 683 641.5 584.5 c 128,-1,7
 735 486 735 486 735 336 c 128,-1,0
 735 186 735 186 641.5 87.5 c 128,-1,1
391 20 m 0,8,9
 583 20 583 20 583 336 c 0,10,11
 583 488 583 488 539.5 570 c 128,-1,12
 496 652 496 652 390 652 c 128,-1,13
 284 652 284 652 239.5 570 c 128,-1,14
 195 488 195 488 195 336 c 0,15,16
 195 20 195 20 391 20 c 0,8,9
231 735 m 1,17,-1
 362 921 l 1,18,-1
 424 921 l 1,19,-1
 554 735 l 1,20,-1
 523 716 l 1,21,-1
 393 832 l 1,22,-1
 262 716 l 1,23,-1
 231 735 l 1,17,-1
EndSplineSet
EndChar

StartChar: Otilde
Encoding: 213 213 149
Width: 778
GlyphClass: 2
Flags: W
LayerCount: 2
Fore
SplineSet
641.5 87.5 m 128,-1,1
 548 -11 548 -11 389.5 -11 c 128,-1,2
 231 -11 231 -11 137.5 87.5 c 128,-1,3
 44 186 44 186 44 336 c 128,-1,4
 44 486 44 486 137.5 584.5 c 128,-1,5
 231 683 231 683 389.5 683 c 128,-1,6
 548 683 548 683 641.5 584.5 c 128,-1,7
 735 486 735 486 735 336 c 128,-1,0
 735 186 735 186 641.5 87.5 c 128,-1,1
391 20 m 0,8,9
 583 20 583 20 583 336 c 0,10,11
 583 488 583 488 539.5 570 c 128,-1,12
 496 652 496 652 390 652 c 128,-1,13
 284 652 284 652 239.5 570 c 128,-1,14
 195 488 195 488 195 336 c 0,15,16
 195 20 195 20 391 20 c 0,8,9
534.5 763.5 m 128,-1,18
 505 732 505 732 465.5 732 c 128,-1,19
 426 732 426 732 376 761 c 1,20,21
 327 793 327 793 303 793 c 128,-1,22
 279 793 279 793 261 781 c 128,-1,23
 243 769 243 769 239 754 c 1,24,-1
 211 754 l 1,25,26
 217 804 217 804 246.5 835 c 128,-1,27
 276 866 276 866 318.5 866 c 128,-1,28
 361 866 361 866 410 836 c 1,29,30
 456 805 456 805 480 805 c 128,-1,31
 504 805 504 805 521.5 817.5 c 128,-1,32
 539 830 539 830 542 845 c 1,33,-1
 571 845 l 1,34,17
 564 795 564 795 534.5 763.5 c 128,-1,18
EndSplineSet
EndChar

StartChar: Odieresis
Encoding: 214 214 150
Width: 778
GlyphClass: 2
Flags: W
LayerCount: 2
Fore
SplineSet
641.5 87.5 m 128,-1,1
 548 -11 548 -11 389.5 -11 c 128,-1,2
 231 -11 231 -11 137.5 87.5 c 128,-1,3
 44 186 44 186 44 336 c 128,-1,4
 44 486 44 486 137.5 584.5 c 128,-1,5
 231 683 231 683 389.5 683 c 128,-1,6
 548 683 548 683 641.5 584.5 c 128,-1,7
 735 486 735 486 735 336 c 128,-1,0
 735 186 735 186 641.5 87.5 c 128,-1,1
391 20 m 0,8,9
 583 20 583 20 583 336 c 0,10,11
 583 488 583 488 539.5 570 c 128,-1,12
 496 652 496 652 390 652 c 128,-1,13
 284 652 284 652 239.5 570 c 128,-1,14
 195 488 195 488 195 336 c 0,15,16
 195 20 195 20 391 20 c 0,8,9
352.5 762 m 128,-1,18
 332 742 332 742 302.5 742 c 128,-1,19
 273 742 273 742 254 761 c 128,-1,20
 235 780 235 780 235 809 c 128,-1,21
 235 838 235 838 254.5 859 c 128,-1,22
 274 880 274 880 303 880 c 128,-1,23
 332 880 332 880 352.5 859 c 128,-1,24
 373 838 373 838 373 810 c 128,-1,17
 373 782 373 782 352.5 762 c 128,-1,18
538 762 m 128,-1,26
 518 742 518 742 488 742 c 128,-1,27
 458 742 458 742 439 761 c 128,-1,28
 420 780 420 780 420 809.5 c 128,-1,29
 420 839 420 839 439.5 859.5 c 128,-1,30
 459 880 459 880 488.5 880 c 128,-1,31
 518 880 518 880 538 859 c 128,-1,32
 558 838 558 838 558 810 c 128,-1,25
 558 782 558 782 538 762 c 128,-1,26
EndSplineSet
EndChar

StartChar: multiply
Encoding: 215 215 151
Width: 571
GlyphClass: 2
Flags: W
LayerCount: 2
Fore
SplineSet
463 470 m 1,0,-1
 515 419 l 1,1,-1
 342 250 l 1,2,-1
 523 75 l 1,3,-1
 467 21 l 1,4,-1
 286 195 l 1,5,-1
 104 23 l 1,6,-1
 51 74 l 1,7,-1
 232 246 l 1,8,-1
 55 417 l 1,9,-1
 111 471 l 1,10,-1
 289 300 l 1,11,-1
 463 470 l 1,0,-1
EndSplineSet
EndChar

StartChar: Oslash
Encoding: 216 216 152
Width: 779
GlyphClass: 2
Flags: W
LayerCount: 2
Fore
SplineSet
739 647 m 1,0,-1
 113 0 l 1,1,-1
 45 0 l 1,2,-1
 703 682 l 1,3,-1
 739 647 l 1,0,-1
641.5 87.5 m 128,-1,5
 548 -11 548 -11 389.5 -11 c 128,-1,6
 231 -11 231 -11 137.5 87.5 c 128,-1,7
 44 186 44 186 44 336 c 128,-1,8
 44 486 44 486 137.5 584.5 c 128,-1,9
 231 683 231 683 389.5 683 c 128,-1,10
 548 683 548 683 641.5 584.5 c 128,-1,11
 735 486 735 486 735 336 c 128,-1,4
 735 186 735 186 641.5 87.5 c 128,-1,5
391 20 m 0,12,13
 583 20 583 20 583 336 c 0,14,15
 583 488 583 488 539.5 570 c 128,-1,16
 496 652 496 652 390 652 c 128,-1,17
 284 652 284 652 239.5 570 c 128,-1,18
 195 488 195 488 195 336 c 0,19,20
 195 20 195 20 391 20 c 0,12,13
EndSplineSet
EndChar

StartChar: Ugrave
Encoding: 217 217 153
Width: 731
GlyphClass: 2
Flags: W
LayerCount: 2
Fore
SplineSet
628 234 m 2,0,1
 628 159 628 159 607 113.5 c 128,-1,2
 586 68 586 68 560.5 44 c 128,-1,3
 535 20 535 20 491 4 c 128,-1,4
 447 -12 447 -12 388 -12 c 0,5,6
 244 -12 244 -12 173.5 43.5 c 128,-1,7
 103 99 103 99 103 220 c 2,8,-1
 103 635 l 1,9,-1
 19 644 l 1,10,-1
 19 668 l 1,11,-1
 323 668 l 1,12,-1
 323 644 l 1,13,-1
 236 635 l 1,14,-1
 236 240 l 2,15,16
 236 128 236 128 275 75.5 c 128,-1,17
 314 23 314 23 404 23 c 128,-1,18
 494 23 494 23 537 72.5 c 128,-1,19
 580 122 580 122 580 243 c 2,20,-1
 580 629 l 1,21,-1
 506 639 l 1,22,-1
 506 668 l 1,23,-1
 709 668 l 1,24,-1
 709 637 l 1,25,-1
 628 629 l 1,26,-1
 628 234 l 2,0,1
465 741 m 1,27,28
 459 732 459 732 443 712 c 1,29,30
 378 749 378 749 285 815 c 0,31,32
 267 828 267 828 265 843 c 1,33,34
 264 868 264 868 315 914 c 1,35,36
 439 773 439 773 465 741 c 1,27,28
EndSplineSet
EndChar

StartChar: Uacute
Encoding: 218 218 154
Width: 731
GlyphClass: 2
Flags: W
LayerCount: 2
Fore
SplineSet
628 234 m 2,0,1
 628 159 628 159 607 113.5 c 128,-1,2
 586 68 586 68 560.5 44 c 128,-1,3
 535 20 535 20 491 4 c 128,-1,4
 447 -12 447 -12 388 -12 c 0,5,6
 244 -12 244 -12 173.5 43.5 c 128,-1,7
 103 99 103 99 103 220 c 2,8,-1
 103 635 l 1,9,-1
 19 644 l 1,10,-1
 19 668 l 1,11,-1
 323 668 l 1,12,-1
 323 644 l 1,13,-1
 236 635 l 1,14,-1
 236 240 l 2,15,16
 236 128 236 128 275 75.5 c 128,-1,17
 314 23 314 23 404 23 c 128,-1,18
 494 23 494 23 537 72.5 c 128,-1,19
 580 122 580 122 580 243 c 2,20,-1
 580 629 l 1,21,-1
 506 639 l 1,22,-1
 506 668 l 1,23,-1
 709 668 l 1,24,-1
 709 637 l 1,25,-1
 628 629 l 1,26,-1
 628 234 l 2,0,1
301 741 m 1,27,28
 327 773 327 773 451 914 c 1,29,30
 502 868 502 868 501 843 c 1,31,32
 499 828 499 828 481 815 c 0,33,34
 388 749 388 749 323 712 c 1,35,36
 307 732 307 732 301 741 c 1,27,28
EndSplineSet
EndChar

StartChar: Ucircumflex
Encoding: 219 219 155
Width: 731
GlyphClass: 2
Flags: W
LayerCount: 2
Fore
SplineSet
628 234 m 2,0,1
 628 159 628 159 607 113.5 c 128,-1,2
 586 68 586 68 560.5 44 c 128,-1,3
 535 20 535 20 491 4 c 128,-1,4
 447 -12 447 -12 388 -12 c 0,5,6
 244 -12 244 -12 173.5 43.5 c 128,-1,7
 103 99 103 99 103 220 c 2,8,-1
 103 635 l 1,9,-1
 19 644 l 1,10,-1
 19 668 l 1,11,-1
 323 668 l 1,12,-1
 323 644 l 1,13,-1
 236 635 l 1,14,-1
 236 240 l 2,15,16
 236 128 236 128 275 75.5 c 128,-1,17
 314 23 314 23 404 23 c 128,-1,18
 494 23 494 23 537 72.5 c 128,-1,19
 580 122 580 122 580 243 c 2,20,-1
 580 629 l 1,21,-1
 506 639 l 1,22,-1
 506 668 l 1,23,-1
 709 668 l 1,24,-1
 709 637 l 1,25,-1
 628 629 l 1,26,-1
 628 234 l 2,0,1
221 735 m 1,27,-1
 352 921 l 1,28,-1
 414 921 l 1,29,-1
 544 735 l 1,30,-1
 513 716 l 1,31,-1
 383 832 l 1,32,-1
 252 716 l 1,33,-1
 221 735 l 1,27,-1
EndSplineSet
EndChar

StartChar: Udieresis
Encoding: 220 220 156
Width: 731
GlyphClass: 2
Flags: W
LayerCount: 2
Fore
SplineSet
628 234 m 2,0,1
 628 159 628 159 607 113.5 c 128,-1,2
 586 68 586 68 560.5 44 c 128,-1,3
 535 20 535 20 491 4 c 128,-1,4
 447 -12 447 -12 388 -12 c 0,5,6
 244 -12 244 -12 173.5 43.5 c 128,-1,7
 103 99 103 99 103 220 c 2,8,-1
 103 635 l 1,9,-1
 19 644 l 1,10,-1
 19 668 l 1,11,-1
 323 668 l 1,12,-1
 323 644 l 1,13,-1
 236 635 l 1,14,-1
 236 240 l 2,15,16
 236 128 236 128 275 75.5 c 128,-1,17
 314 23 314 23 404 23 c 128,-1,18
 494 23 494 23 537 72.5 c 128,-1,19
 580 122 580 122 580 243 c 2,20,-1
 580 629 l 1,21,-1
 506 639 l 1,22,-1
 506 668 l 1,23,-1
 709 668 l 1,24,-1
 709 637 l 1,25,-1
 628 629 l 1,26,-1
 628 234 l 2,0,1
341.5 762 m 128,-1,28
 321 742 321 742 291.5 742 c 128,-1,29
 262 742 262 742 243 761 c 128,-1,30
 224 780 224 780 224 809 c 128,-1,31
 224 838 224 838 243.5 859 c 128,-1,32
 263 880 263 880 292 880 c 128,-1,33
 321 880 321 880 341.5 859 c 128,-1,34
 362 838 362 838 362 810 c 128,-1,27
 362 782 362 782 341.5 762 c 128,-1,28
527 762 m 128,-1,36
 507 742 507 742 477 742 c 128,-1,37
 447 742 447 742 428 761 c 128,-1,38
 409 780 409 780 409 809.5 c 128,-1,39
 409 839 409 839 428.5 859.5 c 128,-1,40
 448 880 448 880 477.5 880 c 128,-1,41
 507 880 507 880 527 859 c 128,-1,42
 547 838 547 838 547 810 c 128,-1,35
 547 782 547 782 527 762 c 128,-1,36
EndSplineSet
EndChar

StartChar: Yacute
Encoding: 221 221 157
Width: 657
GlyphClass: 2
Flags: W
LayerCount: 2
Fore
SplineSet
487 0 m 1,0,-1
 180 0 l 1,1,-1
 180 24 l 1,2,-1
 267 33 l 1,3,-1
 267 287 l 1,4,-1
 39 635 l 1,5,-1
 -37 644 l 1,6,-1
 -37 668 l 1,7,-1
 263 668 l 1,8,-1
 263 644 l 1,9,-1
 186 635 l 1,10,-1
 376 339 l 1,11,-1
 539 621 l 1,12,-1
 464 644 l 1,13,-1
 464 668 l 1,14,-1
 667 668 l 1,15,-1
 667 644 l 1,16,-1
 591 620 l 1,17,-1
 400 295 l 1,18,-1
 400 33 l 1,19,-1
 487 24 l 1,20,-1
 487 0 l 1,0,-1
507 876 m 0,21,22
 507 860 507 860 490 846 c 0,23,24
 400 772 400 772 340 731 c 1,25,26
 324 748 324 748 316 758 c 1,27,28
 346 801 346 801 452 943 c 1,29,30
 507 900 507 900 507 876 c 0,21,22
EndSplineSet
EndChar

StartChar: Thorn
Encoding: 222 222 158
Width: 572
GlyphClass: 2
Flags: W
LayerCount: 2
Fore
SplineSet
253 525 m 1,0,-1
 311 525 l 2,1,2
 419 525 419 525 483 481 c 128,-1,3
 547 437 547 437 547 350.5 c 128,-1,4
 547 264 547 264 479 212.5 c 128,-1,5
 411 161 411 161 291 161 c 1,6,-1
 253 163 l 1,7,-1
 253 33 l 1,8,-1
 340 24 l 1,9,-1
 340 0 l 1,10,-1
 33 0 l 1,11,-1
 33 24 l 1,12,-1
 120 33 l 1,13,-1
 120 635 l 1,14,-1
 33 644 l 1,15,-1
 33 668 l 1,16,-1
 340 668 l 1,17,-1
 340 644 l 1,18,-1
 253 635 l 1,19,-1
 253 525 l 1,0,-1
283 487 m 2,20,-1
 253 487 l 1,21,-1
 253 199 l 1,22,-1
 280 199 l 2,23,24
 340 199 340 199 375.5 237.5 c 128,-1,25
 411 276 411 276 411 346 c 128,-1,26
 411 416 411 416 375 451.5 c 128,-1,27
 339 487 339 487 283 487 c 2,20,-1
EndSplineSet
EndChar

StartChar: germandbls
Encoding: 223 223 159
Width: 643
GlyphClass: 2
Flags: W
LayerCount: 2
Fore
SplineSet
573.5 30.5 m 128,-1,1
 523 -10 523 -10 445.5 -10 c 128,-1,2
 368 -10 368 -10 316.5 9.5 c 128,-1,3
 265 29 265 29 265 72 c 0,4,5
 265 100 265 100 284.5 118 c 128,-1,6
 304 136 304 136 339 137 c 1,7,8
 346 15 346 15 446 15 c 0,9,10
 476 15 476 15 498.5 37.5 c 128,-1,11
 521 60 521 60 521 104 c 128,-1,12
 521 148 521 148 494.5 171.5 c 128,-1,13
 468 195 468 195 428 212 c 128,-1,14
 388 229 388 229 369.5 239 c 128,-1,15
 351 249 351 249 326 267 c 0,16,17
 279 302 279 302 279 365 c 0,18,19
 279 423 279 423 337 469 c 0,20,21
 361 488 361 488 386 508 c 0,22,23
 444 556 444 556 444 632 c 0,24,25
 444 751 444 751 341 751 c 0,26,27
 224 751 224 751 224 470 c 2,28,-1
 224 0 l 1,29,-1
 28 0 l 1,30,-1
 28 23 l 1,31,-1
 96 29 l 1,32,-1
 96 456 l 1,33,-1
 24 456 l 1,34,-1
 24 488 l 1,35,-1
 96 488 l 1,36,-1
 96 499 l 2,37,38
 96 780 96 780 347 780 c 0,39,40
 461 780 461 780 517 739.5 c 128,-1,41
 573 699 573 699 573 630 c 0,42,43
 573 588 573 588 542 558 c 1,44,45
 521 540 521 540 483.5 515 c 128,-1,46
 446 490 446 490 430 477.5 c 128,-1,47
 414 465 414 465 399 440 c 128,-1,48
 384 415 384 415 384 386 c 1,49,50
 387 343 387 343 409.5 321.5 c 128,-1,51
 432 300 432 300 472.5 285 c 128,-1,52
 513 270 513 270 531.5 261.5 c 128,-1,53
 550 253 550 253 576 236 c 1,54,55
 624 202 624 202 624 136.5 c 128,-1,0
 624 71 624 71 573.5 30.5 c 128,-1,1
EndSplineSet
EndChar

StartChar: agrave
Encoding: 224 224 160
Width: 520
GlyphClass: 2
Flags: W
LayerCount: 2
Fore
SplineSet
320 234 m 1,0,1
 204 234 204 234 174 173 c 0,2,3
 161 147 161 147 161 108 c 0,4,5
 161 41 161 41 207 30 c 0,6,7
 214 28 214 28 222 28 c 0,8,9
 254 28 254 28 286 61.5 c 128,-1,10
 318 95 318 95 320 148 c 1,11,-1
 320 234 l 1,0,1
160 332 m 1,12,13
 138 317 138 317 114 317 c 128,-1,14
 90 317 90 317 73 333 c 128,-1,15
 56 349 56 349 56 380.5 c 128,-1,16
 56 412 56 412 75 437 c 128,-1,17
 94 462 94 462 124 474 c 0,18,19
 183 499 183 499 236 499 c 0,20,21
 354 499 354 499 397 457.5 c 128,-1,22
 440 416 440 416 440 330 c 2,23,-1
 440 29 l 1,24,-1
 524 23 l 1,25,-1
 524 1 l 1,26,-1
 333 -11 l 1,27,-1
 324 73 l 1,28,29
 277 -12 277 -12 162 -12 c 0,30,31
 110 -12 110 -12 72.5 19.5 c 128,-1,32
 35 51 35 51 35 108 c 0,33,34
 36 184 36 184 111 222.5 c 128,-1,35
 186 261 186 261 320 261 c 1,36,-1
 320 347 l 2,37,38
 320 408 320 408 303 441 c 128,-1,39
 286 474 286 474 240 474 c 128,-1,40
 194 474 194 474 171 436 c 0,41,42
 156 411 156 411 156 383 c 128,-1,43
 156 355 156 355 160 332 c 1,12,13
142 696 m 0,44,45
 142 720 142 720 197 763 c 1,46,47
 303 621 303 621 333 578 c 1,48,49
 326 567 326 567 309 551 c 1,50,51
 249 592 249 592 159 666 c 0,52,53
 142 680 142 680 142 696 c 0,44,45
EndSplineSet
EndChar

StartChar: aacute
Encoding: 225 225 161
Width: 520
GlyphClass: 2
Flags: W
LayerCount: 2
Fore
SplineSet
320 234 m 1,0,1
 204 234 204 234 174 173 c 0,2,3
 161 147 161 147 161 108 c 0,4,5
 161 41 161 41 207 30 c 0,6,7
 214 28 214 28 222 28 c 0,8,9
 254 28 254 28 286 61.5 c 128,-1,10
 318 95 318 95 320 148 c 1,11,-1
 320 234 l 1,0,1
160 332 m 1,12,13
 138 317 138 317 114 317 c 128,-1,14
 90 317 90 317 73 333 c 128,-1,15
 56 349 56 349 56 380.5 c 128,-1,16
 56 412 56 412 75 437 c 128,-1,17
 94 462 94 462 124 474 c 0,18,19
 183 499 183 499 236 499 c 0,20,21
 354 499 354 499 397 457.5 c 128,-1,22
 440 416 440 416 440 330 c 2,23,-1
 440 29 l 1,24,-1
 524 23 l 1,25,-1
 524 1 l 1,26,-1
 333 -11 l 1,27,-1
 324 73 l 1,28,29
 277 -12 277 -12 162 -12 c 0,30,31
 110 -12 110 -12 72.5 19.5 c 128,-1,32
 35 51 35 51 35 108 c 0,33,34
 36 184 36 184 111 222.5 c 128,-1,35
 186 261 186 261 320 261 c 1,36,-1
 320 347 l 2,37,38
 320 408 320 408 303 441 c 128,-1,39
 286 474 286 474 240 474 c 128,-1,40
 194 474 194 474 171 436 c 0,41,42
 156 411 156 411 156 383 c 128,-1,43
 156 355 156 355 160 332 c 1,12,13
365 696 m 0,44,45
 365 680 365 680 348 666 c 0,46,47
 258 592 258 592 198 551 c 1,48,49
 182 567 182 567 174 578 c 1,50,51
 204 621 204 621 310 763 c 1,52,53
 365 720 365 720 365 696 c 0,44,45
EndSplineSet
EndChar

StartChar: acircumflex
Encoding: 226 226 162
Width: 520
GlyphClass: 2
Flags: W
LayerCount: 2
Fore
SplineSet
320 234 m 1,0,1
 204 234 204 234 174 173 c 0,2,3
 161 147 161 147 161 108 c 0,4,5
 161 41 161 41 207 30 c 0,6,7
 214 28 214 28 222 28 c 0,8,9
 254 28 254 28 286 61.5 c 128,-1,10
 318 95 318 95 320 148 c 1,11,-1
 320 234 l 1,0,1
160 332 m 1,12,13
 138 317 138 317 114 317 c 128,-1,14
 90 317 90 317 73 333 c 128,-1,15
 56 349 56 349 56 380.5 c 128,-1,16
 56 412 56 412 75 437 c 128,-1,17
 94 462 94 462 124 474 c 0,18,19
 183 499 183 499 236 499 c 0,20,21
 354 499 354 499 397 457.5 c 128,-1,22
 440 416 440 416 440 330 c 2,23,-1
 440 29 l 1,24,-1
 524 23 l 1,25,-1
 524 1 l 1,26,-1
 333 -11 l 1,27,-1
 324 73 l 1,28,29
 277 -12 277 -12 162 -12 c 0,30,31
 110 -12 110 -12 72.5 19.5 c 128,-1,32
 35 51 35 51 35 108 c 0,33,34
 36 184 36 184 111 222.5 c 128,-1,35
 186 261 186 261 320 261 c 1,36,-1
 320 347 l 2,37,38
 320 408 320 408 303 441 c 128,-1,39
 286 474 286 474 240 474 c 128,-1,40
 194 474 194 474 171 436 c 0,41,42
 156 411 156 411 156 383 c 128,-1,43
 156 355 156 355 160 332 c 1,12,13
95 555 m 1,44,-1
 226 741 l 1,45,-1
 288 741 l 1,46,-1
 418 555 l 1,47,-1
 387 536 l 1,48,-1
 257 652 l 1,49,-1
 126 536 l 1,50,-1
 95 555 l 1,44,-1
EndSplineSet
EndChar

StartChar: atilde
Encoding: 227 227 163
Width: 520
GlyphClass: 2
Flags: W
LayerCount: 2
Fore
SplineSet
320 234 m 1,0,1
 204 234 204 234 174 173 c 0,2,3
 161 147 161 147 161 108 c 0,4,5
 161 41 161 41 207 30 c 0,6,7
 214 28 214 28 222 28 c 0,8,9
 254 28 254 28 286 61.5 c 128,-1,10
 318 95 318 95 320 148 c 1,11,-1
 320 234 l 1,0,1
160 332 m 1,12,13
 138 317 138 317 114 317 c 128,-1,14
 90 317 90 317 73 333 c 128,-1,15
 56 349 56 349 56 380.5 c 128,-1,16
 56 412 56 412 75 437 c 128,-1,17
 94 462 94 462 124 474 c 0,18,19
 183 499 183 499 236 499 c 0,20,21
 354 499 354 499 397 457.5 c 128,-1,22
 440 416 440 416 440 330 c 2,23,-1
 440 29 l 1,24,-1
 524 23 l 1,25,-1
 524 1 l 1,26,-1
 333 -11 l 1,27,-1
 324 73 l 1,28,29
 277 -12 277 -12 162 -12 c 0,30,31
 110 -12 110 -12 72.5 19.5 c 128,-1,32
 35 51 35 51 35 108 c 0,33,34
 36 184 36 184 111 222.5 c 128,-1,35
 186 261 186 261 320 261 c 1,36,-1
 320 347 l 2,37,38
 320 408 320 408 303 441 c 128,-1,39
 286 474 286 474 240 474 c 128,-1,40
 194 474 194 474 171 436 c 0,41,42
 156 411 156 411 156 383 c 128,-1,43
 156 355 156 355 160 332 c 1,12,13
393.5 583.5 m 128,-1,45
 365 552 365 552 327.5 552 c 128,-1,46
 290 552 290 552 242 581 c 1,47,48
 197 613 197 613 173 613 c 128,-1,49
 149 613 149 613 132.5 601 c 128,-1,50
 116 589 116 589 112 574 c 1,51,-1
 85 574 l 1,52,53
 91 624 91 624 119 655 c 128,-1,54
 147 686 147 686 187.5 686 c 128,-1,55
 228 686 228 686 275 656 c 1,56,57
 320 625 320 625 342 625 c 128,-1,58
 364 625 364 625 381 637.5 c 128,-1,59
 398 650 398 650 401 665 c 1,60,-1
 428 665 l 1,61,44
 422 615 422 615 393.5 583.5 c 128,-1,45
EndSplineSet
EndChar

StartChar: adieresis
Encoding: 228 228 164
Width: 520
GlyphClass: 2
Flags: W
LayerCount: 2
Fore
SplineSet
320 234 m 1,0,1
 204 234 204 234 174 173 c 0,2,3
 161 147 161 147 161 108 c 0,4,5
 161 41 161 41 207 30 c 0,6,7
 214 28 214 28 222 28 c 0,8,9
 254 28 254 28 286 61.5 c 128,-1,10
 318 95 318 95 320 148 c 1,11,-1
 320 234 l 1,0,1
160 332 m 1,12,13
 138 317 138 317 114 317 c 128,-1,14
 90 317 90 317 73 333 c 128,-1,15
 56 349 56 349 56 380.5 c 128,-1,16
 56 412 56 412 75 437 c 128,-1,17
 94 462 94 462 124 474 c 0,18,19
 183 499 183 499 236 499 c 0,20,21
 354 499 354 499 397 457.5 c 128,-1,22
 440 416 440 416 440 330 c 2,23,-1
 440 29 l 1,24,-1
 524 23 l 1,25,-1
 524 1 l 1,26,-1
 333 -11 l 1,27,-1
 324 73 l 1,28,29
 277 -12 277 -12 162 -12 c 0,30,31
 110 -12 110 -12 72.5 19.5 c 128,-1,32
 35 51 35 51 35 108 c 0,33,34
 36 184 36 184 111 222.5 c 128,-1,35
 186 261 186 261 320 261 c 1,36,-1
 320 347 l 2,37,38
 320 408 320 408 303 441 c 128,-1,39
 286 474 286 474 240 474 c 128,-1,40
 194 474 194 474 171 436 c 0,41,42
 156 411 156 411 156 383 c 128,-1,43
 156 355 156 355 160 332 c 1,12,13
211.5 582 m 128,-1,45
 191 562 191 562 161.5 562 c 128,-1,46
 132 562 132 562 113 581 c 128,-1,47
 94 600 94 600 94 629 c 128,-1,48
 94 658 94 658 113.5 679 c 128,-1,49
 133 700 133 700 162 700 c 128,-1,50
 191 700 191 700 211.5 679 c 128,-1,51
 232 658 232 658 232 630 c 128,-1,44
 232 602 232 602 211.5 582 c 128,-1,45
397 582 m 128,-1,53
 377 562 377 562 347 562 c 128,-1,54
 317 562 317 562 298 581 c 128,-1,55
 279 600 279 600 279 629.5 c 128,-1,56
 279 659 279 659 298.5 679.5 c 128,-1,57
 318 700 318 700 347.5 700 c 128,-1,58
 377 700 377 700 397 679 c 128,-1,59
 417 658 417 658 417 630 c 128,-1,52
 417 602 417 602 397 582 c 128,-1,53
EndSplineSet
EndChar

StartChar: aring
Encoding: 229 229 165
Width: 520
GlyphClass: 2
Flags: W
LayerCount: 2
Fore
SplineSet
320 234 m 1,0,1
 204 234 204 234 174 173 c 0,2,3
 161 147 161 147 161 108 c 0,4,5
 161 41 161 41 207 30 c 0,6,7
 214 28 214 28 222 28 c 0,8,9
 254 28 254 28 286 61.5 c 128,-1,10
 318 95 318 95 320 148 c 1,11,-1
 320 234 l 1,0,1
160 332 m 1,12,13
 138 317 138 317 114 317 c 128,-1,14
 90 317 90 317 73 333 c 128,-1,15
 56 349 56 349 56 380.5 c 128,-1,16
 56 412 56 412 75 437 c 128,-1,17
 94 462 94 462 124 474 c 0,18,19
 183 499 183 499 236 499 c 0,20,21
 354 499 354 499 397 457.5 c 128,-1,22
 440 416 440 416 440 330 c 2,23,-1
 440 29 l 1,24,-1
 524 23 l 1,25,-1
 524 1 l 1,26,-1
 333 -11 l 1,27,-1
 324 73 l 1,28,29
 277 -12 277 -12 162 -12 c 0,30,31
 110 -12 110 -12 72.5 19.5 c 128,-1,32
 35 51 35 51 35 108 c 0,33,34
 36 184 36 184 111 222.5 c 128,-1,35
 186 261 186 261 320 261 c 1,36,-1
 320 347 l 2,37,38
 320 408 320 408 303 441 c 128,-1,39
 286 474 286 474 240 474 c 128,-1,40
 194 474 194 474 171 436 c 0,41,42
 156 411 156 411 156 383 c 128,-1,43
 156 355 156 355 160 332 c 1,12,13
345 753 m 128,-1,45
 378 721 378 721 378 671.5 c 128,-1,46
 378 622 378 622 343.5 588.5 c 128,-1,47
 309 555 309 555 259.5 555 c 128,-1,48
 210 555 210 555 176.5 587 c 128,-1,49
 143 619 143 619 143 668.5 c 128,-1,50
 143 718 143 718 177.5 751.5 c 128,-1,51
 212 785 212 785 262 785 c 128,-1,44
 312 785 312 785 345 753 c 128,-1,45
301.5 625 m 128,-1,53
 318 642 318 642 318 668 c 128,-1,54
 318 694 318 694 301 712 c 128,-1,55
 284 730 284 730 260.5 730 c 128,-1,56
 237 730 237 730 220.5 713 c 128,-1,57
 204 696 204 696 204 669 c 128,-1,58
 204 642 204 642 220.5 625 c 128,-1,59
 237 608 237 608 261 608 c 128,-1,52
 285 608 285 608 301.5 625 c 128,-1,53
EndSplineSet
EndChar

StartChar: ae
Encoding: 230 230 166
Width: 812
GlyphClass: 2
Flags: W
LayerCount: 2
Fore
SplineSet
159 332 m 1,0,1
 137 317 137 317 113 317 c 128,-1,2
 89 317 89 317 72 333 c 128,-1,3
 55 349 55 349 55 380.5 c 128,-1,4
 55 412 55 412 74 437 c 128,-1,5
 93 462 93 462 123 474 c 0,6,7
 182 499 182 499 235 499 c 0,8,9
 365 499 365 499 406 434 c 1,10,11
 467 499 467 499 567.5 499 c 128,-1,12
 668 499 668 499 721 453.5 c 128,-1,13
 774 408 774 408 774 327 c 0,14,15
 774 304 774 304 770 279 c 1,16,-1
 453 279 l 1,17,-1
 453 244 l 2,18,19
 453 132 453 132 481 74.5 c 128,-1,20
 509 17 509 17 565.5 17 c 128,-1,21
 622 17 622 17 668.5 40.5 c 128,-1,22
 715 64 715 64 741 107 c 1,23,24
 763 100 763 100 763 86 c 0,25,26
 763 61 763 61 716 28 c 0,27,28
 693 12 693 12 650.5 0.5 c 128,-1,29
 608 -11 608 -11 555 -11 c 0,30,31
 409 -11 409 -11 349 101 c 1,32,33
 297 -12 297 -12 172 -12 c 0,34,35
 115 -12 115 -12 74.5 19.5 c 128,-1,36
 34 51 34 51 34 108 c 0,37,38
 35 184 35 184 110 222.5 c 128,-1,39
 185 261 185 261 318 261 c 1,40,-1
 319 269 l 1,41,-1
 319 347 l 2,42,43
 319 408 319 408 302 441 c 128,-1,44
 285 474 285 474 239 474 c 128,-1,45
 193 474 193 474 170 436 c 0,46,47
 155 411 155 411 155 383 c 128,-1,48
 155 355 155 355 159 332 c 1,0,1
647 315 m 1,49,-1
 649 349 l 1,50,51
 649 471 649 471 564 471 c 0,52,53
 475 471 475 471 456 315 c 1,54,-1
 647 315 l 1,49,-1
202.5 207 m 128,-1,56
 160 181 160 181 160 111.5 c 128,-1,57
 160 42 160 42 207 31 c 0,58,59
 217 28 217 28 226 28 c 0,60,61
 259 28 259 28 294 61 c 128,-1,62
 329 94 329 94 331 148 c 1,63,64
 320 185 320 185 318 234 c 1,65,55
 245 233 245 233 202.5 207 c 128,-1,56
EndSplineSet
EndChar

StartChar: ccedilla
Encoding: 231 231 167
Width: 509
GlyphClass: 2
Flags: W
LayerCount: 2
Fore
SplineSet
374 326 m 1,0,1
 379 346 379 346 379 371.5 c 128,-1,2
 379 397 379 397 364 424 c 1,3,4
 342 468 342 468 297 468 c 0,5,6
 177 468 177 468 177 242.5 c 128,-1,7
 177 17 177 17 300 17 c 0,8,9
 393 17 393 17 449 107 c 1,10,11
 471 100 471 100 471 85.5 c 128,-1,12
 471 71 471 71 452.5 49.5 c 128,-1,13
 434 28 434 28 388.5 8.5 c 128,-1,14
 343 -11 343 -11 284 -11 c 0,15,16
 171 -11 171 -11 105.5 58.5 c 128,-1,17
 40 128 40 128 40 244.5 c 128,-1,18
 40 361 40 361 108 430 c 128,-1,19
 176 499 176 499 299 499 c 0,20,21
 337 499 337 499 374 489.5 c 128,-1,22
 411 480 411 480 444 449 c 128,-1,23
 477 418 477 418 477 374.5 c 128,-1,24
 477 331 477 331 438 318 c 0,25,26
 424 313 424 313 407 313 c 128,-1,27
 390 313 390 313 374 326 c 1,0,1
225 -68 m 1,28,29
 247 -54 247 -54 283.5 -54 c 128,-1,30
 320 -54 320 -54 349.5 -73.5 c 128,-1,31
 379 -93 379 -93 379 -133.5 c 128,-1,32
 379 -174 379 -174 342.5 -195.5 c 128,-1,33
 306 -217 306 -217 245.5 -217 c 128,-1,34
 185 -217 185 -217 142 -192 c 1,35,-1
 150 -175 l 1,36,37
 183 -188 183 -188 219 -188 c 0,38,39
 284 -188 284 -188 284 -131 c 0,40,41
 284 -86 284 -86 242 -86 c 0,42,43
 229 -86 229 -86 207 -91 c 1,44,-1
 186 -82 l 1,45,-1
 237 8 l 1,46,-1
 265 8 l 1,47,-1
 223 -65 l 1,48,-1
 225 -68 l 1,28,29
EndSplineSet
EndChar

StartChar: egrave
Encoding: 232 232 168
Width: 536
GlyphClass: 2
Flags: W
LayerCount: 2
Fore
SplineSet
373 349 m 0,0,1
 373 471 373 471 288 471 c 0,2,3
 199 471 199 471 180 315 c 1,4,-1
 371 315 l 1,5,6
 373 335 373 335 373 349 c 0,0,1
279 -11 m 0,7,8
 172 -11 172 -11 105.5 59 c 128,-1,9
 39 129 39 129 39 244 c 128,-1,10
 39 359 39 359 108.5 429 c 128,-1,11
 178 499 178 499 285 499 c 128,-1,12
 392 499 392 499 445 453.5 c 128,-1,13
 498 408 498 408 498 327 c 0,14,15
 498 304 498 304 494 279 c 1,16,-1
 177 279 l 1,17,-1
 177 244 l 2,18,19
 177 132 177 132 205 74.5 c 128,-1,20
 233 17 233 17 289.5 17 c 128,-1,21
 346 17 346 17 392.5 40.5 c 128,-1,22
 439 64 439 64 465 107 c 1,23,24
 487 100 487 100 487 86 c 0,25,26
 487 61 487 61 440 28 c 0,27,28
 417 12 417 12 374.5 0.5 c 128,-1,29
 332 -11 332 -11 279 -11 c 0,7,8
176 696 m 0,30,31
 176 720 176 720 231 763 c 1,32,33
 337 621 337 621 367 578 c 1,34,35
 359 567 359 567 343 551 c 1,36,37
 283 592 283 592 193 666 c 0,38,39
 176 680 176 680 176 696 c 0,30,31
EndSplineSet
EndChar

StartChar: eacute
Encoding: 233 233 169
Width: 536
GlyphClass: 2
Flags: W
LayerCount: 2
Fore
SplineSet
373 349 m 0,0,1
 373 471 373 471 288 471 c 0,2,3
 199 471 199 471 180 315 c 1,4,-1
 371 315 l 1,5,6
 373 335 373 335 373 349 c 0,0,1
279 -11 m 0,7,8
 172 -11 172 -11 105.5 59 c 128,-1,9
 39 129 39 129 39 244 c 128,-1,10
 39 359 39 359 108.5 429 c 128,-1,11
 178 499 178 499 285 499 c 128,-1,12
 392 499 392 499 445 453.5 c 128,-1,13
 498 408 498 408 498 327 c 0,14,15
 498 304 498 304 494 279 c 1,16,-1
 177 279 l 1,17,-1
 177 244 l 2,18,19
 177 132 177 132 205 74.5 c 128,-1,20
 233 17 233 17 289.5 17 c 128,-1,21
 346 17 346 17 392.5 40.5 c 128,-1,22
 439 64 439 64 465 107 c 1,23,24
 487 100 487 100 487 86 c 0,25,26
 487 61 487 61 440 28 c 0,27,28
 417 12 417 12 374.5 0.5 c 128,-1,29
 332 -11 332 -11 279 -11 c 0,7,8
389 696 m 0,30,31
 389 680 389 680 372 666 c 0,32,33
 282 592 282 592 222 551 c 1,34,35
 206 567 206 567 198 578 c 1,36,37
 228 621 228 621 334 763 c 1,38,39
 389 720 389 720 389 696 c 0,30,31
EndSplineSet
EndChar

StartChar: ecircumflex
Encoding: 234 234 170
Width: 536
GlyphClass: 2
Flags: W
LayerCount: 2
Fore
SplineSet
373 349 m 0,0,1
 373 471 373 471 288 471 c 0,2,3
 199 471 199 471 180 315 c 1,4,-1
 371 315 l 1,5,6
 373 335 373 335 373 349 c 0,0,1
279 -11 m 0,7,8
 172 -11 172 -11 105.5 59 c 128,-1,9
 39 129 39 129 39 244 c 128,-1,10
 39 359 39 359 108.5 429 c 128,-1,11
 178 499 178 499 285 499 c 128,-1,12
 392 499 392 499 445 453.5 c 128,-1,13
 498 408 498 408 498 327 c 0,14,15
 498 304 498 304 494 279 c 1,16,-1
 177 279 l 1,17,-1
 177 244 l 2,18,19
 177 132 177 132 205 74.5 c 128,-1,20
 233 17 233 17 289.5 17 c 128,-1,21
 346 17 346 17 392.5 40.5 c 128,-1,22
 439 64 439 64 465 107 c 1,23,24
 487 100 487 100 487 86 c 0,25,26
 487 61 487 61 440 28 c 0,27,28
 417 12 417 12 374.5 0.5 c 128,-1,29
 332 -11 332 -11 279 -11 c 0,7,8
125 555 m 1,30,-1
 256 741 l 1,31,-1
 318 741 l 1,32,-1
 448 555 l 1,33,-1
 417 536 l 1,34,-1
 287 652 l 1,35,-1
 156 536 l 1,36,-1
 125 555 l 1,30,-1
EndSplineSet
EndChar

StartChar: edieresis
Encoding: 235 235 171
Width: 536
GlyphClass: 2
Flags: W
LayerCount: 2
Fore
SplineSet
373 349 m 0,0,1
 373 471 373 471 288 471 c 0,2,3
 199 471 199 471 180 315 c 1,4,-1
 371 315 l 1,5,6
 373 335 373 335 373 349 c 0,0,1
279 -11 m 0,7,8
 172 -11 172 -11 105.5 59 c 128,-1,9
 39 129 39 129 39 244 c 128,-1,10
 39 359 39 359 108.5 429 c 128,-1,11
 178 499 178 499 285 499 c 128,-1,12
 392 499 392 499 445 453.5 c 128,-1,13
 498 408 498 408 498 327 c 0,14,15
 498 304 498 304 494 279 c 1,16,-1
 177 279 l 1,17,-1
 177 244 l 2,18,19
 177 132 177 132 205 74.5 c 128,-1,20
 233 17 233 17 289.5 17 c 128,-1,21
 346 17 346 17 392.5 40.5 c 128,-1,22
 439 64 439 64 465 107 c 1,23,24
 487 100 487 100 487 86 c 0,25,26
 487 61 487 61 440 28 c 0,27,28
 417 12 417 12 374.5 0.5 c 128,-1,29
 332 -11 332 -11 279 -11 c 0,7,8
250.5 582 m 128,-1,31
 230 562 230 562 200.5 562 c 128,-1,32
 171 562 171 562 152 581 c 128,-1,33
 133 600 133 600 133 629 c 128,-1,34
 133 658 133 658 152.5 679 c 128,-1,35
 172 700 172 700 201 700 c 128,-1,36
 230 700 230 700 250.5 679 c 128,-1,37
 271 658 271 658 271 630 c 128,-1,30
 271 602 271 602 250.5 582 c 128,-1,31
436 582 m 128,-1,39
 416 562 416 562 386 562 c 128,-1,40
 356 562 356 562 337 581 c 128,-1,41
 318 600 318 600 318 629.5 c 128,-1,42
 318 659 318 659 337.5 679.5 c 128,-1,43
 357 700 357 700 386.5 700 c 128,-1,44
 416 700 416 700 436 679 c 128,-1,45
 456 658 456 658 456 630 c 128,-1,38
 456 602 456 602 436 582 c 128,-1,39
EndSplineSet
EndChar

StartChar: igrave
Encoding: 236 236 172
Width: 309
GlyphClass: 2
Flags: W
LayerCount: 2
Fore
SplineSet
17 696 m 0,0,1
 17 720 17 720 72 763 c 1,2,3
 178 621 178 621 208 578 c 1,4,5
 201 567 201 567 184 551 c 1,6,7
 124 592 124 592 34 666 c 0,8,9
 17 680 17 680 17 696 c 0,0,1
291 0 m 1,10,-1
 33 0 l 1,11,-1
 33 23 l 1,12,-1
 98 29 l 1,13,-1
 98 455 l 1,14,-1
 12 460 l 1,15,-1
 12 481 l 1,16,-1
 226 494 l 1,17,-1
 226 29 l 1,18,-1
 291 23 l 1,19,-1
 291 0 l 1,10,-1
EndSplineSet
EndChar

StartChar: iacute
Encoding: 237 237 173
Width: 309
GlyphClass: 2
Flags: W
LayerCount: 2
Fore
SplineSet
279 696 m 0,0,1
 279 680 279 680 262 666 c 0,2,3
 172 592 172 592 112 551 c 1,4,5
 95 567 95 567 88 578 c 1,6,7
 118 621 118 621 224 763 c 1,8,9
 279 720 279 720 279 696 c 0,0,1
291 0 m 1,10,-1
 33 0 l 1,11,-1
 33 23 l 1,12,-1
 98 29 l 1,13,-1
 98 455 l 1,14,-1
 12 460 l 1,15,-1
 12 481 l 1,16,-1
 226 494 l 1,17,-1
 226 29 l 1,18,-1
 291 23 l 1,19,-1
 291 0 l 1,10,-1
EndSplineSet
EndChar

StartChar: icircumflex
Encoding: 238 238 174
Width: 309
GlyphClass: 2
Flags: W
LayerCount: 2
Fore
SplineSet
-5 555 m 1,0,-1
 126 741 l 1,1,-1
 188 741 l 1,2,-1
 318 555 l 1,3,-1
 287 536 l 1,4,-1
 157 652 l 1,5,-1
 26 536 l 1,6,-1
 -5 555 l 1,0,-1
291 0 m 1,7,-1
 33 0 l 1,8,-1
 33 23 l 1,9,-1
 98 29 l 1,10,-1
 98 455 l 1,11,-1
 12 460 l 1,12,-1
 12 481 l 1,13,-1
 226 494 l 1,14,-1
 226 29 l 1,15,-1
 291 23 l 1,16,-1
 291 0 l 1,7,-1
EndSplineSet
EndChar

StartChar: idieresis
Encoding: 239 239 175
Width: 309
GlyphClass: 2
Flags: W
LayerCount: 2
Fore
SplineSet
104.5 582 m 128,-1,1
 84 562 84 562 54.5 562 c 128,-1,2
 25 562 25 562 6 581 c 128,-1,3
 -13 600 -13 600 -13 629 c 128,-1,4
 -13 658 -13 658 6.5 679 c 128,-1,5
 26 700 26 700 55 700 c 128,-1,6
 84 700 84 700 104.5 679 c 128,-1,7
 125 658 125 658 125 630 c 128,-1,0
 125 602 125 602 104.5 582 c 128,-1,1
290 582 m 128,-1,9
 270 562 270 562 240 562 c 128,-1,10
 210 562 210 562 191 581 c 128,-1,11
 172 600 172 600 172 629.5 c 128,-1,12
 172 659 172 659 191.5 679.5 c 128,-1,13
 211 700 211 700 240.5 700 c 128,-1,14
 270 700 270 700 290 679 c 128,-1,15
 310 658 310 658 310 630 c 128,-1,8
 310 602 310 602 290 582 c 128,-1,9
291 0 m 1,16,-1
 33 0 l 1,17,-1
 33 23 l 1,18,-1
 98 29 l 1,19,-1
 98 455 l 1,20,-1
 12 460 l 1,21,-1
 12 481 l 1,22,-1
 226 494 l 1,23,-1
 226 29 l 1,24,-1
 291 23 l 1,25,-1
 291 0 l 1,16,-1
EndSplineSet
EndChar

StartChar: eth
Encoding: 240 240 176
Width: 612
GlyphClass: 2
Flags: W
LayerCount: 2
Fore
SplineSet
302 13 m 0,0,1
 369 13 369 13 399 80.5 c 128,-1,2
 429 148 429 148 429 242.5 c 128,-1,3
 429 337 429 337 410 403 c 1,4,5
 381 474 381 474 299 474 c 0,6,7
 232 474 232 474 205 415.5 c 128,-1,8
 178 357 178 357 178 244 c 0,9,10
 178 13 178 13 302 13 c 0,0,1
526 482.5 m 128,-1,12
 565 386 565 386 565 261.5 c 128,-1,13
 565 137 565 137 494.5 63 c 128,-1,14
 424 -11 424 -11 302.5 -11 c 128,-1,15
 181 -11 181 -11 110 61 c 128,-1,16
 39 133 39 133 39 244 c 128,-1,17
 39 355 39 355 108.5 427 c 128,-1,18
 178 499 178 499 299 499 c 0,19,20
 325 499 325 499 349.5 491.5 c 128,-1,21
 374 484 374 484 386 476 c 2,22,-1
 398 469 l 1,23,24
 389 501 389 501 368 544.5 c 128,-1,25
 347 588 347 588 330 612 c 1,26,-1
 267 566 l 1,27,-1
 240 602 l 1,28,-1
 307 652 l 1,29,-1
 305 652 l 1,30,31
 239 727 239 727 166 769 c 1,32,-1
 185 798 l 1,33,34
 214 790 214 790 278 756.5 c 128,-1,35
 342 723 342 723 369 700 c 1,36,-1
 439 750 l 1,37,-1
 464 715 l 1,38,-1
 401 668 l 1,39,-1
 403 668 l 1,40,11
 487 579 487 579 526 482.5 c 128,-1,12
EndSplineSet
EndChar

StartChar: ntilde
Encoding: 241 241 177
Width: 637
GlyphClass: 2
Flags: W
LayerCount: 2
Fore
SplineSet
431 346 m 1,0,1
 431 405 431 405 416 432 c 128,-1,2
 401 459 401 459 356 459 c 128,-1,3
 311 459 311 459 267.5 404 c 128,-1,4
 224 349 224 349 224 309 c 2,5,-1
 224 29 l 1,6,-1
 299 23 l 1,7,-1
 299 0 l 1,8,-1
 31 0 l 1,9,-1
 31 23 l 1,10,-1
 97 29 l 1,11,-1
 97 455 l 1,12,-1
 15 459 l 1,13,-1
 15 480 l 1,14,-1
 220 492 l 1,15,-1
 215 390 l 1,16,-1
 225 390 l 1,17,18
 252 440 252 440 298 467.5 c 128,-1,19
 344 495 344 495 397 495 c 0,20,21
 557 495 557 495 557 341 c 0,22,23
 557 230 557 230 550 29 c 1,24,-1
 619 23 l 1,25,-1
 619 0 l 1,26,-1
 377 0 l 1,27,-1
 377 23 l 1,28,-1
 425 29 l 1,29,-1
 431 346 l 1,0,1
446.5 583.5 m 128,-1,31
 418 552 418 552 380.5 552 c 128,-1,32
 343 552 343 552 295 581 c 1,33,34
 250 613 250 613 226 613 c 128,-1,35
 202 613 202 613 185.5 601 c 128,-1,36
 169 589 169 589 165 574 c 1,37,-1
 138 574 l 1,38,39
 144 624 144 624 172 655 c 128,-1,40
 200 686 200 686 240.5 686 c 128,-1,41
 281 686 281 686 328 656 c 1,42,43
 373 625 373 625 395 625 c 128,-1,44
 417 625 417 625 434 637.5 c 128,-1,45
 451 650 451 650 454 665 c 1,46,-1
 481 665 l 1,47,30
 475 615 475 615 446.5 583.5 c 128,-1,31
EndSplineSet
EndChar

StartChar: ograve
Encoding: 242 242 178
Width: 600
GlyphClass: 2
Flags: W
LayerCount: 2
Fore
SplineSet
300 -11 m 128,-1,1
 179 -11 179 -11 109 61 c 128,-1,2
 39 133 39 133 39 244 c 128,-1,3
 39 355 39 355 109 427 c 128,-1,4
 179 499 179 499 300 499 c 128,-1,5
 421 499 421 499 491 427 c 128,-1,6
 561 355 561 355 561 244 c 128,-1,7
 561 133 561 133 491 61 c 128,-1,0
 421 -11 421 -11 300 -11 c 128,-1,1
300 13 m 128,-1,9
 422 13 422 13 422 244 c 0,10,11
 422 357 422 357 395 415.5 c 128,-1,12
 368 474 368 474 300 474 c 128,-1,13
 232 474 232 474 205 415.5 c 128,-1,14
 178 357 178 357 178 244 c 0,15,8
 178 13 178 13 300 13 c 128,-1,9
180 696 m 0,16,17
 180 720 180 720 235 763 c 1,18,19
 341 621 341 621 371 578 c 1,20,21
 364 567 364 567 347 551 c 1,22,23
 287 592 287 592 197 666 c 0,24,25
 180 680 180 680 180 696 c 0,16,17
EndSplineSet
EndChar

StartChar: oacute
Encoding: 243 243 179
Width: 600
GlyphClass: 2
Flags: W
LayerCount: 2
Fore
SplineSet
300 -11 m 128,-1,1
 179 -11 179 -11 109 61 c 128,-1,2
 39 133 39 133 39 244 c 128,-1,3
 39 355 39 355 109 427 c 128,-1,4
 179 499 179 499 300 499 c 128,-1,5
 421 499 421 499 491 427 c 128,-1,6
 561 355 561 355 561 244 c 128,-1,7
 561 133 561 133 491 61 c 128,-1,0
 421 -11 421 -11 300 -11 c 128,-1,1
300 13 m 128,-1,9
 422 13 422 13 422 244 c 0,10,11
 422 357 422 357 395 415.5 c 128,-1,12
 368 474 368 474 300 474 c 128,-1,13
 232 474 232 474 205 415.5 c 128,-1,14
 178 357 178 357 178 244 c 0,15,8
 178 13 178 13 300 13 c 128,-1,9
416 696 m 0,16,17
 416 680 416 680 399 666 c 0,18,19
 309 592 309 592 249 551 c 1,20,21
 233 567 233 567 225 578 c 1,22,23
 255 621 255 621 361 763 c 1,24,25
 416 720 416 720 416 696 c 0,16,17
EndSplineSet
EndChar

StartChar: ocircumflex
Encoding: 244 244 180
Width: 600
GlyphClass: 2
Flags: W
LayerCount: 2
Fore
SplineSet
300 -11 m 128,-1,1
 179 -11 179 -11 109 61 c 128,-1,2
 39 133 39 133 39 244 c 128,-1,3
 39 355 39 355 109 427 c 128,-1,4
 179 499 179 499 300 499 c 128,-1,5
 421 499 421 499 491 427 c 128,-1,6
 561 355 561 355 561 244 c 128,-1,7
 561 133 561 133 491 61 c 128,-1,0
 421 -11 421 -11 300 -11 c 128,-1,1
300 13 m 128,-1,9
 422 13 422 13 422 244 c 0,10,11
 422 357 422 357 395 415.5 c 128,-1,12
 368 474 368 474 300 474 c 128,-1,13
 232 474 232 474 205 415.5 c 128,-1,14
 178 357 178 357 178 244 c 0,15,8
 178 13 178 13 300 13 c 128,-1,9
144 555 m 1,16,-1
 275 741 l 1,17,-1
 337 741 l 1,18,-1
 467 555 l 1,19,-1
 436 536 l 1,20,-1
 306 652 l 1,21,-1
 175 536 l 1,22,-1
 144 555 l 1,16,-1
EndSplineSet
EndChar

StartChar: otilde
Encoding: 245 245 181
Width: 600
GlyphClass: 2
Flags: W
LayerCount: 2
Fore
SplineSet
300 -11 m 128,-1,1
 179 -11 179 -11 109 61 c 128,-1,2
 39 133 39 133 39 244 c 128,-1,3
 39 355 39 355 109 427 c 128,-1,4
 179 499 179 499 300 499 c 128,-1,5
 421 499 421 499 491 427 c 128,-1,6
 561 355 561 355 561 244 c 128,-1,7
 561 133 561 133 491 61 c 128,-1,0
 421 -11 421 -11 300 -11 c 128,-1,1
300 13 m 128,-1,9
 422 13 422 13 422 244 c 0,10,11
 422 357 422 357 395 415.5 c 128,-1,12
 368 474 368 474 300 474 c 128,-1,13
 232 474 232 474 205 415.5 c 128,-1,14
 178 357 178 357 178 244 c 0,15,8
 178 13 178 13 300 13 c 128,-1,9
439.5 583.5 m 128,-1,17
 411 552 411 552 373.5 552 c 128,-1,18
 336 552 336 552 288 581 c 1,19,20
 243 613 243 613 219 613 c 128,-1,21
 195 613 195 613 178.5 601 c 128,-1,22
 162 589 162 589 158 574 c 1,23,-1
 131 574 l 1,24,25
 137 624 137 624 165 655 c 128,-1,26
 193 686 193 686 233.5 686 c 128,-1,27
 274 686 274 686 321 656 c 1,28,29
 366 625 366 625 388 625 c 128,-1,30
 410 625 410 625 427 637.5 c 128,-1,31
 444 650 444 650 447 665 c 1,32,-1
 474 665 l 1,33,16
 468 615 468 615 439.5 583.5 c 128,-1,17
EndSplineSet
EndChar

StartChar: odieresis
Encoding: 246 246 182
Width: 600
GlyphClass: 2
Flags: W
LayerCount: 2
Fore
SplineSet
300 -11 m 128,-1,1
 179 -11 179 -11 109 61 c 128,-1,2
 39 133 39 133 39 244 c 128,-1,3
 39 355 39 355 109 427 c 128,-1,4
 179 499 179 499 300 499 c 128,-1,5
 421 499 421 499 491 427 c 128,-1,6
 561 355 561 355 561 244 c 128,-1,7
 561 133 561 133 491 61 c 128,-1,0
 421 -11 421 -11 300 -11 c 128,-1,1
300 13 m 128,-1,9
 422 13 422 13 422 244 c 0,10,11
 422 357 422 357 395 415.5 c 128,-1,12
 368 474 368 474 300 474 c 128,-1,13
 232 474 232 474 205 415.5 c 128,-1,14
 178 357 178 357 178 244 c 0,15,8
 178 13 178 13 300 13 c 128,-1,9
260.5 581 m 128,-1,17
 240 561 240 561 210.5 561 c 128,-1,18
 181 561 181 561 162 580 c 128,-1,19
 143 599 143 599 143 628 c 128,-1,20
 143 657 143 657 162.5 678 c 128,-1,21
 182 699 182 699 211 699 c 128,-1,22
 240 699 240 699 260.5 678 c 128,-1,23
 281 657 281 657 281 629 c 128,-1,16
 281 601 281 601 260.5 581 c 128,-1,17
446 581 m 128,-1,25
 426 561 426 561 396 561 c 128,-1,26
 366 561 366 561 347 580 c 128,-1,27
 328 599 328 599 328 628.5 c 128,-1,28
 328 658 328 658 347.5 678.5 c 128,-1,29
 367 699 367 699 396.5 699 c 128,-1,30
 426 699 426 699 446 678 c 128,-1,31
 466 657 466 657 466 629 c 128,-1,24
 466 601 466 601 446 581 c 128,-1,25
EndSplineSet
EndChar

StartChar: divide
Encoding: 247 247 183
Width: 504
GlyphClass: 2
Flags: W
LayerCount: 2
Fore
SplineSet
295.5 414.5 m 128,-1,1
 313 397 313 397 313 370.5 c 128,-1,2
 313 344 313 344 295 326.5 c 128,-1,3
 277 309 277 309 250.5 309 c 128,-1,4
 224 309 224 309 207 327 c 128,-1,5
 190 345 190 345 190 371 c 128,-1,6
 190 397 190 397 208 414.5 c 128,-1,7
 226 432 226 432 252 432 c 128,-1,0
 278 432 278 432 295.5 414.5 c 128,-1,1
447 185 m 1,8,-1
 57 185 l 1,9,-1
 57 265 l 1,10,-1
 447 265 l 1,11,-1
 447 185 l 1,8,-1
295.5 123.5 m 128,-1,13
 313 106 313 106 313 79.5 c 128,-1,14
 313 53 313 53 295 35.5 c 128,-1,15
 277 18 277 18 250.5 18 c 128,-1,16
 224 18 224 18 207 36 c 128,-1,17
 190 54 190 54 190 79.5 c 128,-1,18
 190 105 190 105 208 123 c 128,-1,19
 226 141 226 141 252 141 c 128,-1,12
 278 141 278 141 295.5 123.5 c 128,-1,13
EndSplineSet
EndChar

StartChar: oslash
Encoding: 248 248 184
Width: 601
GlyphClass: 2
Flags: W
LayerCount: 2
Fore
SplineSet
53 16 m 1,0,-1
 490 503 l 1,1,-1
 524 471 l 1,2,-1
 84 -15 l 1,3,-1
 53 16 l 1,0,-1
301 -11 m 128,-1,5
 180 -11 180 -11 110 61 c 128,-1,6
 40 133 40 133 40 244 c 128,-1,7
 40 355 40 355 110 427 c 128,-1,8
 180 499 180 499 301 499 c 128,-1,9
 422 499 422 499 492 427 c 128,-1,10
 562 355 562 355 562 244 c 128,-1,11
 562 133 562 133 492 61 c 128,-1,4
 422 -11 422 -11 301 -11 c 128,-1,5
301 13 m 128,-1,13
 423 13 423 13 423 244 c 0,14,15
 423 357 423 357 396 415.5 c 128,-1,16
 369 474 369 474 301 474 c 128,-1,17
 233 474 233 474 206 415.5 c 128,-1,18
 179 357 179 357 179 244 c 0,19,12
 179 13 179 13 301 13 c 128,-1,13
EndSplineSet
EndChar

StartChar: ugrave
Encoding: 249 249 185
Width: 625
GlyphClass: 2
Flags: W
LayerCount: 2
Fore
SplineSet
204 139 m 0,0,1
 204 80 204 80 218.5 53 c 128,-1,2
 233 26 233 26 277 26 c 128,-1,3
 321 26 321 26 364 81 c 128,-1,4
 407 136 407 136 407 176 c 2,5,-1
 407 456 l 1,6,-1
 328 460 l 1,7,-1
 328 483 l 1,8,-1
 535 496 l 1,9,-1
 535 32 l 1,10,-1
 616 28 l 1,11,-1
 616 5 l 1,12,-1
 411 -7 l 1,13,-1
 416 93 l 1,14,-1
 406 93 l 1,15,16
 348 -10 348 -10 238 -10 c 0,17,18
 78 -10 78 -10 78 144 c 128,-1,19
 78 298 78 298 89 456 c 1,20,-1
 15 460 l 1,21,-1
 15 483 l 1,22,-1
 214 494 l 1,23,24
 204 268 204 268 204 139 c 0,0,1
167 696 m 0,25,26
 167 720 167 720 222 763 c 1,27,28
 328 621 328 621 358 578 c 1,29,30
 351 567 351 567 334 551 c 1,31,32
 274 592 274 592 184 666 c 0,33,34
 167 680 167 680 167 696 c 0,25,26
EndSplineSet
EndChar

StartChar: uacute
Encoding: 250 250 186
Width: 625
GlyphClass: 2
Flags: W
LayerCount: 2
Fore
SplineSet
78 144 m 128,-1,1
 78 298 78 298 89 456 c 1,2,-1
 15 460 l 1,3,-1
 15 483 l 1,4,-1
 214 494 l 1,5,6
 204 268 204 268 204 139 c 0,7,8
 204 80 204 80 218.5 53 c 128,-1,9
 233 26 233 26 277 26 c 128,-1,10
 321 26 321 26 364 81 c 128,-1,11
 407 136 407 136 407 176 c 2,12,-1
 407 456 l 1,13,-1
 328 460 l 1,14,-1
 328 483 l 1,15,-1
 535 496 l 1,16,-1
 535 32 l 1,17,-1
 616 28 l 1,18,-1
 616 5 l 1,19,-1
 411 -7 l 1,20,-1
 416 93 l 1,21,-1
 406 93 l 1,22,23
 348 -10 348 -10 238 -10 c 0,24,0
 78 -10 78 -10 78 144 c 128,-1,1
403 696 m 0,25,26
 403 680 403 680 386 666 c 0,27,28
 296 592 296 592 236 551 c 1,29,30
 219 567 219 567 212 578 c 1,31,32
 242 621 242 621 348 763 c 1,33,34
 403 720 403 720 403 696 c 0,25,26
EndSplineSet
EndChar

StartChar: ucircumflex
Encoding: 251 251 187
Width: 625
GlyphClass: 2
Flags: W
LayerCount: 2
Fore
SplineSet
78 144 m 128,-1,1
 78 298 78 298 89 456 c 1,2,-1
 15 460 l 1,3,-1
 15 483 l 1,4,-1
 214 494 l 1,5,6
 204 268 204 268 204 139 c 0,7,8
 204 80 204 80 218.5 53 c 128,-1,9
 233 26 233 26 277 26 c 128,-1,10
 321 26 321 26 364 81 c 128,-1,11
 407 136 407 136 407 176 c 2,12,-1
 407 456 l 1,13,-1
 328 460 l 1,14,-1
 328 483 l 1,15,-1
 535 496 l 1,16,-1
 535 32 l 1,17,-1
 616 28 l 1,18,-1
 616 5 l 1,19,-1
 411 -7 l 1,20,-1
 416 93 l 1,21,-1
 406 93 l 1,22,23
 348 -10 348 -10 238 -10 c 0,24,0
 78 -10 78 -10 78 144 c 128,-1,1
138 555 m 1,25,-1
 269 741 l 1,26,-1
 331 741 l 1,27,-1
 461 555 l 1,28,-1
 430 536 l 1,29,-1
 300 652 l 1,30,-1
 169 536 l 1,31,-1
 138 555 l 1,25,-1
EndSplineSet
EndChar

StartChar: udieresis
Encoding: 252 252 188
Width: 625
GlyphClass: 2
Flags: W
LayerCount: 2
Fore
SplineSet
78 144 m 128,-1,1
 78 298 78 298 89 456 c 1,2,-1
 15 460 l 1,3,-1
 15 483 l 1,4,-1
 214 494 l 1,5,6
 204 268 204 268 204 139 c 0,7,8
 204 80 204 80 218.5 53 c 128,-1,9
 233 26 233 26 277 26 c 128,-1,10
 321 26 321 26 364 81 c 128,-1,11
 407 136 407 136 407 176 c 2,12,-1
 407 456 l 1,13,-1
 328 460 l 1,14,-1
 328 483 l 1,15,-1
 535 496 l 1,16,-1
 535 32 l 1,17,-1
 616 28 l 1,18,-1
 616 5 l 1,19,-1
 411 -7 l 1,20,-1
 416 93 l 1,21,-1
 406 93 l 1,22,23
 348 -10 348 -10 238 -10 c 0,24,0
 78 -10 78 -10 78 144 c 128,-1,1
257.5 582 m 128,-1,26
 237 562 237 562 207.5 562 c 128,-1,27
 178 562 178 562 159 581 c 128,-1,28
 140 600 140 600 140 629 c 128,-1,29
 140 658 140 658 159.5 679 c 128,-1,30
 179 700 179 700 208 700 c 128,-1,31
 237 700 237 700 257.5 679 c 128,-1,32
 278 658 278 658 278 630 c 128,-1,25
 278 602 278 602 257.5 582 c 128,-1,26
443 582 m 128,-1,34
 423 562 423 562 393 562 c 128,-1,35
 363 562 363 562 344 581 c 128,-1,36
 325 600 325 600 325 629.5 c 128,-1,37
 325 659 325 659 344.5 679.5 c 128,-1,38
 364 700 364 700 393.5 700 c 128,-1,39
 423 700 423 700 443 679 c 128,-1,40
 463 658 463 658 463 630 c 128,-1,33
 463 602 463 602 443 582 c 128,-1,34
EndSplineSet
EndChar

StartChar: yacute
Encoding: 253 253 189
Width: 512
GlyphClass: 2
Flags: W
LayerCount: 2
Fore
SplineSet
325 488 m 1,0,-1
 516 488 l 1,1,-1
 516 463 l 1,2,-1
 446 443 l 1,3,-1
 284 0 l 1,4,5
 242 -110 242 -110 195 -180 c 0,6,7
 138 -265 138 -265 57 -265 c 0,8,9
 51 -265 51 -265 44 -264 c 1,10,11
 11 -264 11 -264 -9 -244.5 c 128,-1,12
 -29 -225 -29 -225 -29 -193.5 c 128,-1,13
 -29 -162 -29 -162 -1 -130 c 1,14,15
 32 -167 32 -167 71 -167 c 0,16,17
 126 -167 126 -167 164 -126.5 c 128,-1,18
 202 -86 202 -86 235 0 c 1,19,-1
 43 457 l 1,20,-1
 -7 467 l 1,21,-1
 -7 488 l 1,22,-1
 224 488 l 1,23,-1
 224 467 l 1,24,-1
 165 458 l 1,25,-1
 293 132 l 1,26,-1
 404 443 l 1,27,-1
 325 463 l 1,28,-1
 325 488 l 1,0,-1
384 696 m 0,29,30
 384 680 384 680 367 666 c 0,31,32
 277 592 277 592 217 551 c 1,33,34
 201 567 201 567 193 578 c 1,35,36
 223 621 223 621 329 763 c 1,37,38
 384 720 384 720 384 696 c 0,29,30
EndSplineSet
EndChar

StartChar: thorn
Encoding: 254 254 190
Width: 609
GlyphClass: 2
Flags: W
LayerCount: 2
Fore
SplineSet
301 -12 m 0,0,1
 248 -12 248 -12 201 16 c 1,2,-1
 201 -221 l 1,3,-1
 271 -226 l 1,4,-1
 271 -250 l 1,5,-1
 11 -250 l 1,6,-1
 11 -226 l 1,7,-1
 73 -221 l 1,8,-1
 73 713 l 1,9,-1
 -13 718 l 1,10,-1
 -13 743 l 1,11,-1
 200 768 l 1,12,-1
 200 602 l 2,13,14
 200 456 200 456 198 419 c 1,15,16
 252 499 252 499 362 499 c 0,17,18
 450 499 450 499 509.5 441.5 c 128,-1,19
 569 384 569 384 569 259.5 c 128,-1,20
 569 135 569 135 499.5 61.5 c 128,-1,21
 430 -12 430 -12 301 -12 c 0,0,1
303 18 m 0,22,23
 336 18 336 18 360 34 c 128,-1,24
 384 50 384 50 397 74 c 128,-1,25
 410 98 410 98 418 135 c 0,26,27
 429 192 429 192 429 278 c 0,28,29
 429 468 429 468 332 468 c 0,30,31
 281 468 281 468 241.5 429 c 128,-1,32
 202 390 202 390 200 351 c 1,33,-1
 202 55 l 1,34,35
 240 18 240 18 303 18 c 0,22,23
EndSplineSet
EndChar

StartChar: ydieresis
Encoding: 255 255 191
Width: 512
GlyphClass: 2
Flags: W
LayerCount: 2
Fore
SplineSet
325 488 m 1,0,-1
 516 488 l 1,1,-1
 516 463 l 1,2,-1
 446 443 l 1,3,-1
 284 0 l 1,4,5
 242 -110 242 -110 195 -180 c 0,6,7
 138 -265 138 -265 57 -265 c 0,8,9
 51 -265 51 -265 44 -264 c 1,10,11
 11 -264 11 -264 -9 -244.5 c 128,-1,12
 -29 -225 -29 -225 -29 -193.5 c 128,-1,13
 -29 -162 -29 -162 -1 -130 c 1,14,15
 32 -167 32 -167 71 -167 c 0,16,17
 126 -167 126 -167 164 -126.5 c 128,-1,18
 202 -86 202 -86 235 0 c 1,19,-1
 43 457 l 1,20,-1
 -7 467 l 1,21,-1
 -7 488 l 1,22,-1
 224 488 l 1,23,-1
 224 467 l 1,24,-1
 165 458 l 1,25,-1
 293 132 l 1,26,-1
 404 443 l 1,27,-1
 325 463 l 1,28,-1
 325 488 l 1,0,-1
229.5 582 m 128,-1,30
 209 562 209 562 179.5 562 c 128,-1,31
 150 562 150 562 131 581 c 128,-1,32
 112 600 112 600 112 629 c 128,-1,33
 112 658 112 658 131.5 679 c 128,-1,34
 151 700 151 700 180 700 c 128,-1,35
 209 700 209 700 229.5 679 c 128,-1,36
 250 658 250 658 250 630 c 128,-1,29
 250 602 250 602 229.5 582 c 128,-1,30
415 582 m 128,-1,38
 395 562 395 562 365 562 c 128,-1,39
 335 562 335 562 316 581 c 128,-1,40
 297 600 297 600 297 629.5 c 128,-1,41
 297 659 297 659 316.5 679.5 c 128,-1,42
 336 700 336 700 365.5 700 c 128,-1,43
 395 700 395 700 415 679 c 128,-1,44
 435 658 435 658 435 630 c 128,-1,37
 435 602 435 602 415 582 c 128,-1,38
EndSplineSet
EndChar

StartChar: dotlessi
Encoding: 305 305 192
Width: 309
GlyphClass: 2
Flags: W
LayerCount: 2
Fore
SplineSet
291 0 m 1,0,-1
 33 0 l 1,1,-1
 33 23 l 1,2,-1
 98 29 l 1,3,-1
 98 455 l 1,4,-1
 12 460 l 1,5,-1
 12 481 l 1,6,-1
 226 494 l 1,7,-1
 226 29 l 1,8,-1
 291 23 l 1,9,-1
 291 0 l 1,0,-1
EndSplineSet
EndChar

StartChar: OE
Encoding: 338 338 193
Width: 1028
GlyphClass: 2
Flags: W
LayerCount: 2
Fore
SplineSet
544 0 m 1,0,1
 492 -6 492 -6 425 -6 c 128,-1,2
 358 -6 358 -6 292 9.5 c 128,-1,3
 226 25 226 25 168 60 c 128,-1,4
 110 95 110 95 77.5 161 c 128,-1,5
 45 227 45 227 45 319 c 128,-1,6
 45 411 45 411 78.5 481.5 c 128,-1,7
 112 552 112 552 169 593 c 0,8,9
 283 675 283 675 439 675 c 0,10,11
 477 675 477 675 543 671 c 1,12,-1
 563 669 l 1,13,-1
 956 668 l 1,14,-1
 956 526 l 1,15,-1
 924 526 l 1,16,-1
 885 632 l 1,17,-1
 666 635 l 1,18,-1
 666 366 l 1,19,-1
 860 366 l 1,20,-1
 891 440 l 1,21,-1
 919 440 l 1,22,-1
 919 254 l 1,23,-1
 890 254 l 1,24,-1
 860 330 l 1,25,-1
 666 330 l 1,26,-1
 666 32 l 1,27,-1
 915 35 l 1,28,-1
 967 149 l 1,29,-1
 999 149 l 1,30,-1
 987 0 l 1,31,-1
 544 0 l 1,0,1
453 30 m 0,32,33
 497 30 497 30 533 35 c 1,34,-1
 533 631 l 1,35,36
 491 638 491 638 462 638 c 0,37,38
 343 638 343 638 269 559.5 c 128,-1,39
 195 481 195 481 195 327.5 c 128,-1,40
 195 174 195 174 267 102 c 128,-1,41
 339 30 339 30 453 30 c 0,32,33
EndSplineSet
EndChar

StartChar: oe
Encoding: 339 339 194
Width: 907
GlyphClass: 2
Flags: W
LayerCount: 2
Fore
SplineSet
650 -11 m 0,0,1
 545 -11 545 -11 483 69 c 1,2,3
 415 -11 415 -11 297 -11 c 128,-1,4
 179 -11 179 -11 109 61 c 128,-1,5
 39 133 39 133 39 244 c 128,-1,6
 39 355 39 355 109 427 c 128,-1,7
 179 499 179 499 298 499 c 128,-1,8
 417 499 417 499 484 417 c 1,9,10
 551 499 551 499 657 499 c 128,-1,11
 763 499 763 499 816 453.5 c 128,-1,12
 869 408 869 408 869 327 c 0,13,14
 869 304 869 304 865 279 c 1,15,-1
 548 279 l 1,16,-1
 548 244 l 2,17,18
 548 132 548 132 576 74.5 c 128,-1,19
 604 17 604 17 660.5 17 c 128,-1,20
 717 17 717 17 763.5 40.5 c 128,-1,21
 810 64 810 64 836 107 c 1,22,23
 858 100 858 100 858 86 c 0,24,25
 858 61 858 61 811 28 c 0,26,27
 788 12 788 12 745.5 0.5 c 128,-1,28
 703 -11 703 -11 650 -11 c 0,0,1
300 13 m 128,-1,30
 422 13 422 13 422 244 c 0,31,32
 422 357 422 357 395 415.5 c 128,-1,33
 368 474 368 474 300 474 c 128,-1,34
 232 474 232 474 205 415.5 c 128,-1,35
 178 357 178 357 178 244 c 0,36,29
 178 13 178 13 300 13 c 128,-1,30
742 315 m 1,37,-1
 744 349 l 1,38,39
 744 471 744 471 659 471 c 0,40,41
 570 471 570 471 551 315 c 1,42,-1
 742 315 l 1,37,-1
EndSplineSet
EndChar

StartChar: Scaron
Encoding: 352 352 195
Width: 574
GlyphClass: 2
Flags: W
LayerCount: 2
Fore
SplineSet
76 34 m 0,0,1
 34 61 34 61 34 103 c 0,2,3
 34 161 34 161 126 175 c 1,4,5
 142 82 142 82 194 46 c 0,6,7
 240 14 240 14 291.5 14 c 128,-1,8
 343 14 343 14 380.5 45.5 c 128,-1,9
 418 77 418 77 418 149 c 0,10,11
 418 203 418 203 379.5 234.5 c 128,-1,12
 341 266 341 266 282 290 c 128,-1,13
 223 314 223 314 202 323.5 c 128,-1,14
 181 333 181 333 148.5 352 c 128,-1,15
 116 371 116 371 100 388 c 0,16,17
 60 434 60 434 60 494 c 0,18,19
 60 588 60 588 130 636 c 128,-1,20
 200 684 200 684 325 684 c 0,21,22
 396 684 396 684 490 668 c 1,23,-1
 490 520 l 1,24,-1
 457 520 l 1,25,-1
 417 638 l 1,26,27
 367 654 367 654 315.5 654 c 128,-1,28
 264 654 264 654 226 621.5 c 128,-1,29
 188 589 188 589 188 525 c 0,30,31
 188 452 188 452 254 416 c 0,32,33
 287 399 287 399 332 382 c 128,-1,34
 377 365 377 365 397 356.5 c 128,-1,35
 417 348 417 348 450 329.5 c 128,-1,36
 483 311 483 311 499 293 c 128,-1,37
 515 275 515 275 528 245.5 c 128,-1,38
 541 216 541 216 541 181 c 0,39,40
 541 96 541 96 469 42 c 128,-1,41
 397 -12 397 -12 272.5 -12 c 128,-1,42
 148 -12 148 -12 76 34 c 0,0,1
252 725 m 1,43,-1
 121 911 l 1,44,-1
 152 930 l 1,45,-1
 283 814 l 1,46,-1
 413 930 l 1,47,-1
 444 911 l 1,48,-1
 314 725 l 1,49,-1
 252 725 l 1,43,-1
EndSplineSet
EndChar

StartChar: scaron
Encoding: 353 353 196
Width: 452
GlyphClass: 2
Flags: W
LayerCount: 2
Fore
SplineSet
225 14 m 0,0,1
 260 14 260 14 283 36.5 c 128,-1,2
 306 59 306 59 306 110 c 0,3,4
 306 151 306 151 272 172 c 0,5,6
 246 188 246 188 205.5 203.5 c 128,-1,7
 165 219 165 219 143.5 230 c 128,-1,8
 122 241 122 241 96 259 c 0,9,10
 45 295 45 295 45 357 c 128,-1,11
 45 419 45 419 96.5 459 c 128,-1,12
 148 499 148 499 247 499 c 0,13,14
 309 499 309 499 352 472.5 c 128,-1,15
 395 446 395 446 395 406 c 128,-1,16
 395 366 395 366 361 348 c 0,17,18
 345 340 345 340 329 340 c 1,19,-1
 293 351 l 1,20,21
 299 382 299 382 299 407.5 c 128,-1,22
 299 433 299 433 283 453.5 c 128,-1,23
 267 474 267 474 235 474 c 0,24,25
 157 474 157 474 157 380 c 0,26,27
 157 337 157 337 190 316 c 0,28,29
 215 299 215 299 254 285.5 c 128,-1,30
 293 272 293 272 315.5 262 c 128,-1,31
 338 252 338 252 364 234 c 0,32,33
 416 200 416 200 416 133.5 c 128,-1,34
 416 67 416 67 361 28 c 128,-1,35
 306 -11 306 -11 216 -11 c 0,36,37
 116 -11 116 -11 68 22 c 0,38,39
 40 42 40 42 40 71 c 128,-1,40
 40 100 40 100 59.5 118 c 128,-1,41
 79 136 79 136 114 137 c 1,42,43
 121 14 121 14 225 14 c 0,0,1
201 545 m 1,44,-1
 70 731 l 1,45,-1
 101 750 l 1,46,-1
 232 634 l 1,47,-1
 362 750 l 1,48,-1
 393 731 l 1,49,-1
 263 545 l 1,50,-1
 201 545 l 1,44,-1
EndSplineSet
EndChar

StartChar: Ydieresis
Encoding: 376 376 197
Width: 657
GlyphClass: 2
Flags: W
LayerCount: 2
Fore
SplineSet
487 0 m 1,0,-1
 180 0 l 1,1,-1
 180 24 l 1,2,-1
 267 33 l 1,3,-1
 267 287 l 1,4,-1
 39 635 l 1,5,-1
 -37 644 l 1,6,-1
 -37 668 l 1,7,-1
 263 668 l 1,8,-1
 263 644 l 1,9,-1
 186 635 l 1,10,-1
 376 339 l 1,11,-1
 539 621 l 1,12,-1
 464 644 l 1,13,-1
 464 668 l 1,14,-1
 667 668 l 1,15,-1
 667 644 l 1,16,-1
 591 620 l 1,17,-1
 400 295 l 1,18,-1
 400 33 l 1,19,-1
 487 24 l 1,20,-1
 487 0 l 1,0,-1
378.5 762 m 128,-1,22
 358 742 358 742 328.5 742 c 128,-1,23
 299 742 299 742 280 761 c 128,-1,24
 261 780 261 780 261 809 c 128,-1,25
 261 838 261 838 280.5 859 c 128,-1,26
 300 880 300 880 329 880 c 128,-1,27
 358 880 358 880 378.5 859 c 128,-1,28
 399 838 399 838 399 810 c 128,-1,21
 399 782 399 782 378.5 762 c 128,-1,22
564 762 m 128,-1,30
 544 742 544 742 514 742 c 128,-1,31
 484 742 484 742 465 761 c 128,-1,32
 446 780 446 780 446 809.5 c 128,-1,33
 446 839 446 839 465.5 859.5 c 128,-1,34
 485 880 485 880 514.5 880 c 128,-1,35
 544 880 544 880 564 859 c 128,-1,36
 584 838 584 838 584 810 c 128,-1,29
 584 782 584 782 564 762 c 128,-1,30
EndSplineSet
EndChar

StartChar: Zcaron
Encoding: 381 381 198
Width: 672
GlyphClass: 2
Flags: W
LayerCount: 2
Fore
SplineSet
49 521 m 1,0,-1
 49 668 l 1,1,-1
 631 670 l 1,2,-1
 631 639 l 1,3,-1
 199 51 l 1,4,-1
 560 49 l 1,5,-1
 595 159 l 1,6,-1
 628 159 l 1,7,-1
 628 13 l 1,8,-1
 35 11 l 1,9,-1
 35 39 l 1,10,-1
 471 630 l 1,11,-1
 117 632 l 1,12,-1
 82 521 l 1,13,-1
 49 521 l 1,0,-1
286 725 m 1,14,-1
 155 911 l 1,15,-1
 186 930 l 1,16,-1
 317 814 l 1,17,-1
 447 930 l 1,18,-1
 478 911 l 1,19,-1
 348 725 l 1,20,-1
 286 725 l 1,14,-1
EndSplineSet
EndChar

StartChar: zcaron
Encoding: 382 382 199
Width: 529
GlyphClass: 2
Flags: W
LayerCount: 2
Fore
SplineSet
45 348 m 1,0,-1
 45 489 l 1,1,-1
 493 491 l 1,2,-1
 493 467 l 1,3,-1
 180 34 l 1,4,-1
 416 37 l 1,5,-1
 456 142 l 1,6,-1
 487 142 l 1,7,-1
 480 1 l 1,8,-1
 37 -1 l 1,9,-1
 37 23 l 1,10,-1
 353 456 l 1,11,-1
 109 453 l 1,12,-1
 75 348 l 1,13,-1
 45 348 l 1,0,-1
204 545 m 1,14,-1
 73 731 l 1,15,-1
 104 750 l 1,16,-1
 235 634 l 1,17,-1
 365 750 l 1,18,-1
 396 731 l 1,19,-1
 266 545 l 1,20,-1
 204 545 l 1,14,-1
EndSplineSet
EndChar

StartChar: florin
Encoding: 402 402 200
Width: 785
GlyphClass: 2
Flags: W
LayerCount: 2
Fore
SplineSet
130 -182 m 0,0,1
 130 -248 130 -248 182 -248 c 0,2,3
 219 -248 219 -248 240 -222 c 0,4,5
 252 -208 252 -208 260.5 -195 c 128,-1,6
 269 -182 269 -182 276 -158 c 128,-1,7
 283 -134 283 -134 287 -119.5 c 128,-1,8
 291 -105 291 -105 295 -76 c 0,9,10
 301 -32 301 -32 305 6 c 2,11,-1
 348 415 l 1,12,-1
 281 415 l 1,13,-1
 281 441 l 1,14,-1
 350 441 l 1,15,-1
 353 465 l 1,16,17
 366 598 366 598 432.5 664.5 c 128,-1,18
 499 731 499 731 610 731 c 0,19,20
 679 731 679 731 717.5 709.5 c 128,-1,21
 756 688 756 688 756 647 c 0,22,23
 756 603 756 603 713 582 c 1,24,25
 693 571 693 571 675.5 571 c 128,-1,26
 658 571 658 571 643 579 c 1,27,28
 654 607 654 607 654 638 c 0,29,30
 654 704 654 704 602 704 c 0,31,32
 564 704 564 704 543 676 c 0,33,34
 532 662 532 662 523 648 c 128,-1,35
 514 634 514 634 507.5 609.5 c 128,-1,36
 501 585 501 585 496.5 569.5 c 128,-1,37
 492 554 492 554 488 524 c 0,38,39
 482 477 482 477 478 441 c 1,40,-1
 628 441 l 1,41,-1
 628 415 l 1,42,-1
 476 415 l 1,43,-1
 431 -9 l 1,44,45
 420 -141 420 -141 353 -208 c 128,-1,46
 286 -275 286 -275 174 -275 c 0,47,48
 105 -275 105 -275 67 -253.5 c 128,-1,49
 29 -232 29 -232 29 -190 c 0,50,51
 29 -147 29 -147 70 -126 c 0,52,53
 91 -115 91 -115 108.5 -115 c 128,-1,54
 126 -115 126 -115 141 -123 c 1,55,56
 130 -151 130 -151 130 -182 c 0,0,1
EndSplineSet
EndChar

StartChar: circumflex
Encoding: 710 710 201
Width: 427
GlyphClass: 2
Flags: W
LayerCount: 2
Fore
SplineSet
49 555 m 1,0,-1
 180 741 l 1,1,-1
 242 741 l 1,2,-1
 372 555 l 1,3,-1
 341 536 l 1,4,-1
 211 652 l 1,5,-1
 80 536 l 1,6,-1
 49 555 l 1,0,-1
EndSplineSet
EndChar

StartChar: caron
Encoding: 711 711 202
Width: 523
GlyphClass: 2
Flags: W
LayerCount: 2
Fore
SplineSet
231 545 m 1,0,-1
 100 731 l 1,1,-1
 131 750 l 1,2,-1
 262 634 l 1,3,-1
 392 750 l 1,4,-1
 423 731 l 1,5,-1
 293 545 l 1,6,-1
 231 545 l 1,0,-1
EndSplineSet
EndChar

StartChar: breve
Encoding: 728 728 203
Width: 391
GlyphClass: 2
Flags: W
LayerCount: 2
Fore
SplineSet
60 669 m 1,0,-1
 80 669 l 1,1,2
 109 588 109 588 195.5 588 c 128,-1,3
 282 588 282 588 311 669 c 1,4,-1
 331 669 l 1,5,6
 331 593 331 593 295 551.5 c 128,-1,7
 259 510 259 510 196 510 c 128,-1,8
 133 510 133 510 96.5 551.5 c 128,-1,9
 60 593 60 593 60 669 c 1,0,-1
EndSplineSet
EndChar

StartChar: dotaccent
Encoding: 729 729 204
Width: 285
GlyphClass: 2
Flags: W
LayerCount: 2
Fore
SplineSet
202.5 597.5 m 128,-1,1
 180 575 180 575 148 575 c 128,-1,2
 116 575 116 575 93.5 597.5 c 128,-1,3
 71 620 71 620 71 651.5 c 128,-1,4
 71 683 71 683 93.5 706.5 c 128,-1,5
 116 730 116 730 148 730 c 128,-1,6
 180 730 180 730 202.5 706.5 c 128,-1,7
 225 683 225 683 225 651.5 c 128,-1,0
 225 620 225 620 202.5 597.5 c 128,-1,1
EndSplineSet
EndChar

StartChar: ring
Encoding: 730 730 205
Width: 385
GlyphClass: 2
Flags: W
LayerCount: 2
Fore
SplineSet
277 753 m 128,-1,1
 310 721 310 721 310 671.5 c 128,-1,2
 310 622 310 622 275.5 588.5 c 128,-1,3
 241 555 241 555 191.5 555 c 128,-1,4
 142 555 142 555 108.5 587 c 128,-1,5
 75 619 75 619 75 668.5 c 128,-1,6
 75 718 75 718 109.5 751.5 c 128,-1,7
 144 785 144 785 194 785 c 128,-1,0
 244 785 244 785 277 753 c 128,-1,1
233.5 625 m 128,-1,9
 250 642 250 642 250 668 c 128,-1,10
 250 694 250 694 233 712 c 128,-1,11
 216 730 216 730 192.5 730 c 128,-1,12
 169 730 169 730 152.5 713 c 128,-1,13
 136 696 136 696 136 669 c 128,-1,14
 136 642 136 642 152.5 625 c 128,-1,15
 169 608 169 608 193 608 c 128,-1,8
 217 608 217 608 233.5 625 c 128,-1,9
EndSplineSet
EndChar

StartChar: ogonek
Encoding: 731 731 206
Width: 291
GlyphClass: 2
Flags: W
LayerCount: 2
Fore
SplineSet
139 -218 m 0,0,1
 52 -218 52 -218 52 -146 c 0,2,3
 52 -117 52 -117 70 -89 c 128,-1,4
 88 -61 88 -61 114 -42 c 0,5,6
 164 -5 164 -5 203 6 c 1,7,-1
 221 6 l 1,8,9
 191 -18 191 -18 166.5 -56 c 128,-1,10
 142 -94 142 -94 142 -137.5 c 128,-1,11
 142 -181 142 -181 182 -181 c 0,12,13
 214 -181 214 -181 236 -157 c 1,14,-1
 246 -172 l 1,15,16
 233 -191 233 -191 202 -204.5 c 128,-1,17
 171 -218 171 -218 139 -218 c 0,0,1
EndSplineSet
EndChar

StartChar: tilde
Encoding: 732 732 207
Width: 408
GlyphClass: 2
Flags: W
LayerCount: 2
Fore
SplineSet
344.5 583.5 m 128,-1,1
 316 552 316 552 278.5 552 c 128,-1,2
 241 552 241 552 193 581 c 1,3,4
 148 613 148 613 124 613 c 128,-1,5
 100 613 100 613 83.5 601 c 128,-1,6
 67 589 67 589 63 574 c 1,7,-1
 36 574 l 1,8,9
 42 624 42 624 70 655 c 128,-1,10
 98 686 98 686 138.5 686 c 128,-1,11
 179 686 179 686 226 656 c 1,12,13
 271 625 271 625 293 625 c 128,-1,14
 315 625 315 625 332 637.5 c 128,-1,15
 349 650 349 650 352 665 c 1,16,-1
 379 665 l 1,17,0
 373 615 373 615 344.5 583.5 c 128,-1,1
EndSplineSet
EndChar

StartChar: hungarumlaut
Encoding: 733 733 208
Width: 448
GlyphClass: 2
Flags: W
LayerCount: 2
Fore
SplineSet
223 696 m 0,0,1
 223 680 223 680 206 666 c 0,2,3
 116 592 116 592 56 551 c 1,4,5
 40 567 40 567 32 578 c 1,6,7
 62 621 62 621 168 763 c 1,8,9
 223 720 223 720 223 696 c 0,0,1
404 696 m 0,10,11
 404 680 404 680 387 666 c 0,12,13
 297 592 297 592 237 551 c 1,14,15
 221 567 221 567 213 578 c 1,16,17
 243 621 243 621 349 763 c 1,18,19
 404 720 404 720 404 696 c 0,10,11
EndSplineSet
EndChar

StartChar: endash
Encoding: 8211 8211 209
Width: 625
GlyphClass: 2
Flags: W
LayerCount: 2
Fore
SplineSet
560 301 m 1,0,-1
 560 230 l 1,1,-1
 65 230 l 1,2,-1
 65 301 l 1,3,-1
 560 301 l 1,0,-1
EndSplineSet
EndChar

StartChar: emdash
Encoding: 8212 8212 210
Width: 1134
GlyphClass: 2
Flags: W
LayerCount: 2
Fore
SplineSet
1069 301 m 1,0,-1
 1069 230 l 1,1,-1
 65 230 l 1,2,-1
 65 301 l 1,3,-1
 1069 301 l 1,0,-1
EndSplineSet
EndChar

StartChar: quoteleft
Encoding: 8216 8216 211
Width: 238
GlyphClass: 2
Flags: W
LayerCount: 2
Fore
SplineSet
45 500 m 0,0,1
 45 561 45 561 94 616 c 128,-1,2
 143 671 143 671 177 684 c 1,3,-1
 192 660 l 1,4,5
 158 642 158 642 134 607 c 128,-1,6
 110 572 110 572 106 535 c 1,7,8
 118 541 118 541 138.5 541 c 128,-1,9
 159 541 159 541 173.5 523 c 128,-1,10
 188 505 188 505 188 475.5 c 128,-1,11
 188 446 188 446 167 429 c 128,-1,12
 146 412 146 412 114.5 412 c 128,-1,13
 83 412 83 412 64 433.5 c 128,-1,14
 45 455 45 455 45 500 c 0,0,1
EndSplineSet
EndChar

StartChar: quoteright
Encoding: 8217 8217 212
Width: 236
GlyphClass: 2
Flags: W
LayerCount: 2
Fore
SplineSet
201 603 m 0,0,1
 201 542 201 542 152 487 c 128,-1,2
 103 432 103 432 69 419 c 1,3,-1
 54 443 l 1,4,5
 88 461 88 461 112 496 c 128,-1,6
 136 531 136 531 140 568 c 1,7,8
 128 562 128 562 107.5 562 c 128,-1,9
 87 562 87 562 72.5 580 c 128,-1,10
 58 598 58 598 58 627.5 c 128,-1,11
 58 657 58 657 79 674 c 128,-1,12
 100 691 100 691 131.5 691 c 128,-1,13
 163 691 163 691 182 669.5 c 128,-1,14
 201 648 201 648 201 603 c 0,0,1
EndSplineSet
EndChar

StartChar: quotesinglbase
Encoding: 8218 8218 213
Width: 245
GlyphClass: 2
Flags: W
LayerCount: 2
Fore
SplineSet
194 40 m 0,0,1
 194 -21 194 -21 145 -76 c 128,-1,2
 96 -131 96 -131 62 -144 c 1,3,-1
 47 -120 l 1,4,5
 81 -102 81 -102 105 -67 c 128,-1,6
 129 -32 129 -32 133 5 c 1,7,8
 121 -1 121 -1 100.5 -1 c 128,-1,9
 80 -1 80 -1 65.5 17 c 128,-1,10
 51 35 51 35 51 64.5 c 128,-1,11
 51 94 51 94 72 111 c 128,-1,12
 93 128 93 128 124.5 128 c 128,-1,13
 156 128 156 128 175 106.5 c 128,-1,14
 194 85 194 85 194 40 c 0,0,1
EndSplineSet
EndChar

StartChar: quotedblleft
Encoding: 8220 8220 214
Width: 418
GlyphClass: 2
Flags: W
LayerCount: 2
Fore
SplineSet
45 500 m 0,0,1
 45 561 45 561 94 616 c 128,-1,2
 143 671 143 671 177 684 c 1,3,-1
 192 660 l 1,4,5
 158 642 158 642 134 607 c 128,-1,6
 110 572 110 572 106 535 c 1,7,8
 118 541 118 541 138.5 541 c 128,-1,9
 159 541 159 541 173.5 523 c 128,-1,10
 188 505 188 505 188 475.5 c 128,-1,11
 188 446 188 446 167 429 c 128,-1,12
 146 412 146 412 114.5 412 c 128,-1,13
 83 412 83 412 64 433.5 c 128,-1,14
 45 455 45 455 45 500 c 0,0,1
225 500 m 0,15,16
 225 561 225 561 274 616 c 128,-1,17
 323 671 323 671 357 684 c 1,18,-1
 372 660 l 1,19,20
 338 642 338 642 314 607 c 128,-1,21
 290 572 290 572 286 535 c 1,22,23
 298 541 298 541 318.5 541 c 128,-1,24
 339 541 339 541 353.5 523 c 128,-1,25
 368 505 368 505 368 475.5 c 128,-1,26
 368 446 368 446 347 429 c 128,-1,27
 326 412 326 412 294.5 412 c 128,-1,28
 263 412 263 412 244 433.5 c 128,-1,29
 225 455 225 455 225 500 c 0,15,16
EndSplineSet
EndChar

StartChar: quotedblright
Encoding: 8221 8221 215
Width: 416
GlyphClass: 2
Flags: W
LayerCount: 2
Fore
SplineSet
201 603 m 0,0,1
 201 542 201 542 152 487 c 128,-1,2
 103 432 103 432 69 419 c 1,3,-1
 54 443 l 1,4,5
 88 461 88 461 112 496 c 128,-1,6
 136 531 136 531 140 568 c 1,7,8
 128 562 128 562 107.5 562 c 128,-1,9
 87 562 87 562 72.5 580 c 128,-1,10
 58 598 58 598 58 627.5 c 128,-1,11
 58 657 58 657 79 674 c 128,-1,12
 100 691 100 691 131.5 691 c 128,-1,13
 163 691 163 691 182 669.5 c 128,-1,14
 201 648 201 648 201 603 c 0,0,1
381 603 m 0,15,16
 381 542 381 542 332 487 c 128,-1,17
 283 432 283 432 249 419 c 1,18,-1
 234 443 l 1,19,20
 268 461 268 461 292 496 c 128,-1,21
 316 531 316 531 320 568 c 1,22,23
 308 562 308 562 287.5 562 c 128,-1,24
 267 562 267 562 252.5 580 c 128,-1,25
 238 598 238 598 238 627.5 c 128,-1,26
 238 657 238 657 259 674 c 128,-1,27
 280 691 280 691 311.5 691 c 128,-1,28
 343 691 343 691 362 669.5 c 128,-1,29
 381 648 381 648 381 603 c 0,15,16
EndSplineSet
EndChar

StartChar: quotedblbase
Encoding: 8222 8222 216
Width: 429
GlyphClass: 2
Flags: W
LayerCount: 2
Fore
SplineSet
194 40 m 0,0,1
 194 -21 194 -21 145 -76 c 128,-1,2
 96 -131 96 -131 62 -144 c 1,3,-1
 47 -120 l 1,4,5
 81 -102 81 -102 105 -67 c 128,-1,6
 129 -32 129 -32 133 5 c 1,7,8
 121 -1 121 -1 100.5 -1 c 128,-1,9
 80 -1 80 -1 65.5 17 c 128,-1,10
 51 35 51 35 51 64.5 c 128,-1,11
 51 94 51 94 72 111 c 128,-1,12
 93 128 93 128 124.5 128 c 128,-1,13
 156 128 156 128 175 106.5 c 128,-1,14
 194 85 194 85 194 40 c 0,0,1
378 40 m 0,15,16
 378 -21 378 -21 329 -76 c 128,-1,17
 280 -131 280 -131 246 -144 c 1,18,-1
 231 -120 l 1,19,20
 265 -102 265 -102 289 -67 c 128,-1,21
 313 -32 313 -32 317 5 c 1,22,23
 305 -1 305 -1 284.5 -1 c 128,-1,24
 264 -1 264 -1 249.5 17 c 128,-1,25
 235 35 235 35 235 64.5 c 128,-1,26
 235 94 235 94 256 111 c 128,-1,27
 277 128 277 128 308.5 128 c 128,-1,28
 340 128 340 128 359 106.5 c 128,-1,29
 378 85 378 85 378 40 c 0,15,16
EndSplineSet
EndChar

StartChar: dagger
Encoding: 8224 8224 217
Width: 474
GlyphClass: 2
Flags: W
LayerCount: 2
Fore
SplineSet
441 491 m 1,0,-1
 441 406 l 1,1,-1
 273 424 l 1,2,-1
 300 -270 l 1,3,-1
 175 -270 l 1,4,-1
 201 424 l 1,5,-1
 33 406 l 1,6,-1
 33 491 l 1,7,-1
 201 471 l 1,8,-1
 178 676 l 1,9,-1
 296 676 l 1,10,-1
 273 471 l 1,11,-1
 441 491 l 1,0,-1
EndSplineSet
EndChar

StartChar: daggerdbl
Encoding: 8225 8225 218
Width: 510
GlyphClass: 2
Flags: W
LayerCount: 2
Fore
SplineSet
219 -18 m 1,0,-1
 219 424 l 1,1,-1
 51 406 l 1,2,-1
 51 491 l 1,3,-1
 219 471 l 1,4,-1
 196 676 l 1,5,-1
 314 676 l 1,6,-1
 291 471 l 1,7,-1
 459 491 l 1,8,-1
 459 406 l 1,9,-1
 291 424 l 1,10,-1
 291 -18 l 1,11,-1
 459 0 l 1,12,-1
 459 -85 l 1,13,-1
 291 -65 l 1,14,-1
 314 -270 l 1,15,-1
 196 -270 l 1,16,-1
 219 -65 l 1,17,-1
 51 -84 l 1,18,-1
 51 0 l 1,19,-1
 219 -18 l 1,0,-1
EndSplineSet
EndChar

StartChar: bullet
Encoding: 8226 8226 219
Width: 439
GlyphClass: 2
Flags: W
LayerCount: 2
Fore
SplineSet
365 331 m 128,-1,1
 365 268 365 268 322.5 222.5 c 128,-1,2
 280 177 280 177 219 177 c 128,-1,3
 158 177 158 177 116 222.5 c 128,-1,4
 74 268 74 268 74 331.5 c 128,-1,5
 74 395 74 395 115.5 441 c 128,-1,6
 157 487 157 487 219 487 c 128,-1,7
 281 487 281 487 323 440.5 c 128,-1,0
 365 394 365 394 365 331 c 128,-1,1
EndSplineSet
EndChar

StartChar: ellipsis
Encoding: 8230 8230 220
Width: 699
GlyphClass: 2
Flags: W
LayerCount: 2
Fore
SplineSet
153 5.5 m 128,-1,1
 136 -12 136 -12 110.5 -12 c 128,-1,2
 85 -12 85 -12 68 5 c 128,-1,3
 51 22 51 22 51 47.5 c 128,-1,4
 51 73 51 73 68 90.5 c 128,-1,5
 85 108 85 108 110 108 c 128,-1,6
 135 108 135 108 152.5 90 c 128,-1,7
 170 72 170 72 170 47.5 c 128,-1,0
 170 23 170 23 153 5.5 c 128,-1,1
392 5.5 m 128,-1,9
 375 -12 375 -12 349.5 -12 c 128,-1,10
 324 -12 324 -12 307 5 c 128,-1,11
 290 22 290 22 290 47.5 c 128,-1,12
 290 73 290 73 307 90.5 c 128,-1,13
 324 108 324 108 349 108 c 128,-1,14
 374 108 374 108 391.5 90 c 128,-1,15
 409 72 409 72 409 47.5 c 128,-1,8
 409 23 409 23 392 5.5 c 128,-1,9
631 5.5 m 128,-1,17
 614 -12 614 -12 588.5 -12 c 128,-1,18
 563 -12 563 -12 546 5 c 128,-1,19
 529 22 529 22 529 47.5 c 128,-1,20
 529 73 529 73 546 90.5 c 128,-1,21
 563 108 563 108 588 108 c 128,-1,22
 613 108 613 108 630.5 90 c 128,-1,23
 648 72 648 72 648 47.5 c 128,-1,16
 648 23 648 23 631 5.5 c 128,-1,17
EndSplineSet
EndChar

StartChar: perthousand
Encoding: 8240 8240 221
Width: 1083
GlyphClass: 2
Flags: W
LayerCount: 2
Fore
SplineSet
38 517 m 128,-1,1
 38 579 38 579 82.5 623 c 128,-1,2
 127 667 127 667 189 667 c 128,-1,3
 251 667 251 667 295.5 623 c 128,-1,4
 340 579 340 579 340 517 c 128,-1,5
 340 455 340 455 295.5 411 c 128,-1,6
 251 367 251 367 189 367 c 128,-1,7
 127 367 127 367 82.5 411 c 128,-1,0
 38 455 38 455 38 517 c 128,-1,1
103 516 m 128,-1,9
 103 480 103 480 128 453 c 128,-1,10
 153 426 153 426 188 426 c 128,-1,11
 223 426 223 426 248 453 c 128,-1,12
 273 480 273 480 273 516 c 128,-1,13
 273 552 273 552 248 579 c 128,-1,14
 223 606 223 606 188 606 c 128,-1,15
 153 606 153 606 128 579 c 128,-1,8
 103 552 103 552 103 516 c 128,-1,9
106 1 m 1,16,-1
 577 682 l 1,17,-1
 630 646 l 1,18,-1
 183 1 l 1,19,-1
 106 1 l 1,16,-1
396 147 m 128,-1,21
 396 209 396 209 440.5 253 c 128,-1,22
 485 297 485 297 547 297 c 128,-1,23
 609 297 609 297 653.5 253 c 128,-1,24
 698 209 698 209 698 147 c 128,-1,25
 698 85 698 85 653.5 41 c 128,-1,26
 609 -3 609 -3 547 -3 c 128,-1,27
 485 -3 485 -3 440.5 41 c 128,-1,20
 396 85 396 85 396 147 c 128,-1,21
461 146 m 128,-1,29
 461 110 461 110 486 83 c 128,-1,30
 511 56 511 56 546 56 c 128,-1,31
 581 56 581 56 606 83 c 128,-1,32
 631 110 631 110 631 146 c 128,-1,33
 631 182 631 182 606 209 c 128,-1,34
 581 236 581 236 546 236 c 128,-1,35
 511 236 511 236 486 209 c 128,-1,28
 461 182 461 182 461 146 c 128,-1,29
748 147 m 128,-1,37
 748 209 748 209 792.5 253 c 128,-1,38
 837 297 837 297 899 297 c 128,-1,39
 961 297 961 297 1005.5 253 c 128,-1,40
 1050 209 1050 209 1050 147 c 128,-1,41
 1050 85 1050 85 1005.5 41 c 128,-1,42
 961 -3 961 -3 899 -3 c 128,-1,43
 837 -3 837 -3 792.5 41 c 128,-1,36
 748 85 748 85 748 147 c 128,-1,37
813 146 m 128,-1,45
 813 110 813 110 838 83 c 128,-1,46
 863 56 863 56 898 56 c 128,-1,47
 933 56 933 56 958 83 c 128,-1,48
 983 110 983 110 983 146 c 128,-1,49
 983 182 983 182 958 209 c 128,-1,50
 933 236 933 236 898 236 c 128,-1,51
 863 236 863 236 838 209 c 128,-1,44
 813 182 813 182 813 146 c 128,-1,45
EndSplineSet
EndChar

StartChar: guilsinglleft
Encoding: 8249 8249 222
Width: 320
GlyphClass: 2
Flags: W
LayerCount: 2
Fore
SplineSet
256 377 m 0,0,1
 256 325 256 325 144 234 c 1,2,3
 198 193 198 193 225 155 c 128,-1,4
 252 117 252 117 252 94 c 0,5,6
 252 62 252 62 212 43 c 1,7,8
 172 122 172 122 49 220 c 1,9,-1
 32 233 l 1,10,11
 119 305 119 305 146 334 c 0,12,13
 184 374 184 374 216 414 c 1,14,-1
 225 426 l 1,15,16
 256 405 256 405 256 377 c 0,0,1
EndSplineSet
EndChar

StartChar: guilsinglright
Encoding: 8250 8250 223
Width: 320
GlyphClass: 2
Flags: W
LayerCount: 2
Fore
SplineSet
108 43 m 1,0,1
 68 62 68 62 68 94.5 c 128,-1,2
 68 127 68 127 104 166.5 c 128,-1,3
 140 206 140 206 176 234 c 1,4,5
 64 325 64 325 64 377 c 0,6,7
 64 405 64 405 95 426 c 1,8,9
 158 340 158 340 265 252 c 2,10,-1
 288 233 l 1,11,12
 192 158 192 158 142 95 c 0,13,14
 123 70 123 70 116 56 c 1,15,-1
 108 43 l 1,0,1
EndSplineSet
EndChar

StartChar: fraction
Encoding: 8260 8260 224
Width: 485
GlyphClass: 2
Flags: W
LayerCount: 2
Fore
SplineSet
481 667 m 1,0,-1
 75 -10 l 1,1,-1
 5 -10 l 1,2,-1
 412 667 l 1,3,-1
 481 667 l 1,0,-1
EndSplineSet
EndChar

StartChar: Euro
Encoding: 8364 8364 225
Width: 722
GlyphClass: 2
Flags: W
LayerCount: 2
Fore
SplineSet
418 -11 m 2,0,-1
 414 -11 l 2,1,2
 291 -11 291 -11 209.5 56 c 128,-1,3
 128 123 128 123 104 239 c 1,4,-1
 39 239 l 1,5,-1
 39 276 l 1,6,-1
 99 276 l 1,7,8
 96 302 96 302 96 329 c 2,9,-1
 96 354 l 1,10,-1
 39 354 l 1,11,-1
 39 390 l 1,12,-1
 100 390 l 1,13,14
 119 523 119 523 209 602.5 c 128,-1,15
 299 682 299 682 440 682 c 0,16,17
 515 682 515 682 587 650 c 0,18,19
 625 633 625 633 648.5 598.5 c 128,-1,20
 672 564 672 564 672 518 c 128,-1,21
 672 472 672 472 624 453 c 0,22,23
 603 445 603 445 581.5 445 c 128,-1,24
 560 445 560 445 540 459 c 1,25,26
 548 493 548 493 548 528.5 c 128,-1,27
 548 564 548 564 530 597 c 0,28,29
 499 652 499 652 433 652 c 0,30,31
 343 652 343 652 301 582.5 c 128,-1,32
 259 513 259 513 250 390 c 1,33,-1
 528 390 l 1,34,-1
 519 354 l 1,35,-1
 249 354 l 1,36,-1
 249 329 l 2,37,38
 249 293 249 293 250 276 c 1,39,-1
 498 276 l 1,40,-1
 489 239 l 1,41,-1
 253 239 l 1,42,43
 265 132 265 132 307.5 77.5 c 128,-1,44
 350 23 350 23 434 23 c 0,45,46
 558 23 558 23 633 145 c 1,47,48
 634 144 634 144 637 143 c 128,-1,49
 640 142 640 142 642 141 c 128,-1,50
 644 140 644 140 646.5 138.5 c 128,-1,51
 649 137 649 137 650.5 136 c 128,-1,52
 652 135 652 135 654 133 c 128,-1,53
 656 131 656 131 657 130 c 0,54,55
 660 125 660 125 660 120 c 0,56,57
 660 83 660 83 594.5 36 c 128,-1,58
 529 -11 529 -11 418 -11 c 2,0,-1
EndSplineSet
EndChar

StartChar: trademark
Encoding: 8482 8482 226
Width: 697
GlyphClass: 2
Flags: W
LayerCount: 2
Fore
SplineSet
296 615 m 1,0,-1
 285 615 l 1,1,-1
 269 656 l 1,2,-1
 210 657 l 1,3,-1
 210 441 l 1,4,-1
 244 438 l 1,5,-1
 244 429 l 1,6,-1
 129 429 l 1,7,-1
 129 438 l 1,8,-1
 163 441 l 1,9,-1
 163 657 l 1,10,-1
 105 656 l 1,11,-1
 88 615 l 1,12,-1
 77 615 l 1,13,-1
 77 669 l 1,14,-1
 187 670 l 1,15,-1
 296 669 l 1,16,-1
 296 615 l 1,0,-1
623 669 m 1,17,-1
 623 661 l 1,18,-1
 593 657 l 1,19,-1
 600 441 l 1,20,-1
 628 438 l 1,21,-1
 628 429 l 1,22,-1
 527 429 l 1,23,-1
 527 438 l 1,24,-1
 554 441 l 1,25,-1
 545 626 l 1,26,-1
 473 429 l 1,27,-1
 453 429 l 1,28,-1
 367 624 l 1,29,-1
 360 447 l 1,30,-1
 391 438 l 1,31,-1
 391 429 l 1,32,-1
 317 429 l 1,33,-1
 317 438 l 1,34,-1
 347 448 l 1,35,-1
 354 657 l 1,36,-1
 324 661 l 1,37,-1
 324 669 l 1,38,-1
 395 669 l 1,39,-1
 476 479 l 1,40,-1
 546 669 l 1,41,-1
 623 669 l 1,17,-1
EndSplineSet
EndChar

StartChar: minus
Encoding: 8722 8722 227
Width: 430
GlyphClass: 2
Flags: W
LayerCount: 2
Fore
SplineSet
360 301 m 1,0,-1
 360 223 l 1,1,-1
 70 223 l 1,2,-1
 70 301 l 1,3,-1
 360 301 l 1,0,-1
EndSplineSet
EndChar

StartChar: fi
Encoding: 64257 64257 228
Width: 638
GlyphClass: 2
Flags: W
LayerCount: 2
Fore
SplineSet
555 498 m 1,0,-1
 555 29 l 1,1,-1
 620 23 l 1,2,-1
 620 0 l 1,3,-1
 362 0 l 1,4,-1
 362 23 l 1,5,-1
 427 29 l 1,6,-1
 427 462 l 1,7,-1
 221 462 l 1,8,-1
 221 29 l 1,9,-1
 295 23 l 1,10,-1
 295 0 l 1,11,-1
 27 0 l 1,12,-1
 27 23 l 1,13,-1
 93 29 l 1,14,-1
 93 462 l 1,15,-1
 24 462 l 1,16,-1
 24 488 l 1,17,-1
 93 488 l 1,18,19
 95 630 95 630 162 700 c 128,-1,20
 229 770 229 770 351 770 c 1,21,22
 505 768 505 768 505 675 c 0,23,24
 505 639 505 639 469 620 c 0,25,26
 450 609 450 609 432.5 609 c 128,-1,27
 415 609 415 609 399 617 c 1,28,29
 404 644 404 644 404 671 c 128,-1,30
 404 698 404 698 387.5 720.5 c 128,-1,31
 371 743 371 743 342 743 c 0,32,33
 224 743 224 743 221 488 c 1,34,-1
 373 488 l 1,35,-1
 555 498 l 1,0,-1
EndSplineSet
EndChar

StartChar: fl
Encoding: 64258 64258 229
Width: 645
GlyphClass: 2
Flags: W
LayerCount: 2
Fore
SplineSet
432 621 m 2,0,1
 432 682 432 682 415.5 712.5 c 128,-1,2
 399 743 399 743 352 743 c 128,-1,3
 305 743 305 743 278.5 719 c 128,-1,4
 252 695 252 695 240 652 c 0,5,6
 221 579 221 579 221 488 c 1,7,-1
 366 488 l 1,8,-1
 366 462 l 1,9,-1
 221 462 l 1,10,-1
 221 29 l 1,11,-1
 297 23 l 1,12,-1
 297 0 l 1,13,-1
 27 0 l 1,14,-1
 27 23 l 1,15,-1
 93 29 l 1,16,-1
 93 462 l 1,17,-1
 24 462 l 1,18,-1
 24 488 l 1,19,-1
 93 488 l 1,20,21
 95 630 95 630 162.5 701 c 128,-1,22
 230 772 230 772 351 772 c 0,23,24
 416 772 416 772 454 751 c 1,25,-1
 560 770 l 1,26,-1
 560 29 l 1,27,-1
 625 23 l 1,28,-1
 625 0 l 1,29,-1
 369 0 l 1,30,-1
 369 23 l 1,31,-1
 432 29 l 1,32,-1
 432 621 l 2,0,1
EndSplineSet
EndChar

StartChar: gravemayuscula
Encoding: 65540 -1 231
Width: 389
GlyphClass: 2
Flags: W
LayerCount: 2
Fore
SplineSet
297 741 m 1,0,1
 291 732 291 732 275 712 c 1,2,3
 210 749 210 749 117 815 c 0,4,5
 99 828 99 828 97 843 c 1,6,7
 96 868 96 868 147 914 c 1,8,9
 271 773 271 773 297 741 c 1,0,1
EndSplineSet
EndChar

StartChar: acutemayuscula
Encoding: 65541 -1 232
Width: 389
GlyphClass: 2
Flags: W
LayerCount: 2
Fore
SplineSet
89 741 m 1,0,1
 115 773 115 773 239 914 c 1,2,3
 290 868 290 868 289 843 c 1,4,5
 287 828 287 828 269 815 c 0,6,7
 176 749 176 749 111 712 c 1,8,9
 95 732 95 732 89 741 c 1,0,1
EndSplineSet
EndChar

